<?xml version="1.0" standalone="no"?>
<!DOCTYPE svg PUBLIC "-//W3C//DTD SVG 20010904//EN"
 "http://www.w3.org/TR/2001/REC-SVG-20010904/DTD/svg10.dtd">
<svg version="1.0" xmlns="http://www.w3.org/2000/svg"
 width="619.000000pt" height="619.000000pt" viewBox="0 0 619.000000 619.000000"
 preserveAspectRatio="xMidYMid meet">
<metadata>
Created by potrace 1.11, written by Peter Selinger 2001-2013
</metadata>
<g transform="translate(0.000000,619.000000) scale(0.100000,-0.100000)"
fill="#000000" stroke="none">
<path d="M5945 5020 c-13 -15 -27 -19 -47 -16 -21 3 -32 -1 -41 -15 -7 -11
-29 -31 -50 -46 -20 -14 -54 -49 -74 -77 -20 -28 -62 -78 -94 -111 -61 -63
-153 -175 -144 -175 3 0 -6 -12 -22 -27 -15 -16 -31 -27 -35 -26 -7 3 -16 -18
-23 -57 -5 -27 -23 -50 -39 -50 -12 0 -40 -37 -41 -55 -1 -5 -7 -9 -14 -7 -7
1 -10 -2 -6 -8 3 -5 1 -10 -6 -10 -7 0 -9 -3 -6 -7 4 -3 0 -15 -10 -25 -9 -10
-13 -18 -9 -18 4 0 -11 -24 -33 -52 -68 -88 -71 -92 -71 -101 0 -4 -4 -5 -10
-2 -6 3 -7 -1 -4 -10 5 -11 2 -14 -10 -9 -9 3 -16 1 -16 -5 0 -6 5 -10 11 -8
20 4 20 -17 0 -50 -13 -20 -26 -30 -38 -28 -20 3 -43 -12 -43 -27 0 -6 6 -6
14 1 11 9 15 8 20 -4 3 -9 2 -14 -3 -11 -4 3 -17 -4 -27 -15 -17 -19 -17 -20
2 -14 18 6 18 6 2 -8 -10 -8 -18 -20 -18 -26 0 -7 -4 -10 -9 -7 -4 3 -6 -5 -4
-17 2 -12 -2 -31 -10 -42 -14 -19 -15 -18 -10 10 4 21 -21 -10 -81 -100 -47
-71 -86 -125 -86 -120 0 6 -8 1 -17 -10 -15 -19 -15 -19 -8 10 35 147 107 492
121 575 18 113 52 345 50 347 -1 1 -20 6 -42 9 -58 11 -119 9 -117 -2 1 -6
-19 -10 -48 -10 -75 2 -91 -11 -106 -85 -7 -35 -21 -86 -31 -114 -10 -27 -29
-79 -40 -115 -31 -91 -29 -137 3 -93 11 15 13 10 9 -32 -5 -61 -30 -218 -54
-345 -11 -52 -19 -108 -18 -125 0 -16 -7 -57 -15 -90 -9 -33 -18 -76 -21 -95
-15 -95 -26 -153 -46 -235 -12 -49 -22 -108 -23 -130 -1 -22 -6 -46 -11 -53
-7 -11 -4 -12 13 -3 11 7 21 8 22 4 1 -15 18 32 18 52 l0 20 -16 -20 c-15 -19
-15 -18 -10 19 4 22 12 44 18 50 9 8 10 7 4 -4 -8 -13 -6 -13 8 -2 9 8 19 35
22 60 4 26 13 60 20 77 8 17 10 35 5 44 -5 9 -3 23 5 35 7 12 16 37 18 56 3
19 8 46 11 60 8 32 36 181 36 187 0 2 10 2 23 -2 19 -5 20 -4 5 5 -22 13 -22
35 -2 75 l14 30 -5 -27 c-3 -16 -1 -28 5 -28 5 0 10 -5 10 -11 0 -5 -4 -7 -10
-4 -5 3 -10 2 -10 -4 0 -5 5 -13 10 -16 13 -8 5 -75 -21 -170 -10 -38 -18 -83
-18 -100 1 -38 -6 -75 -26 -150 -21 -75 -23 -87 -31 -155 -3 -30 -10 -59 -15
-64 -14 -15 -11 -38 4 -30 6 4 8 3 4 -1 -4 -5 -14 -10 -21 -11 -15 -2 -15 30
3 91 13 48 14 55 3 55 -10 0 -42 -159 -42 -205 0 -35 -14 -62 -24 -47 -5 8 0
68 7 92 1 3 -2 5 -8 5 -5 0 -9 -6 -9 -12 1 -7 -2 -13 -7 -13 -5 0 -9 -10 -8
-22 1 -64 -17 -148 -32 -148 -5 0 -14 -12 -20 -27 -18 -46 -48 -218 -39 -223
12 -7 -29 -152 -47 -170 -9 -8 -13 -10 -10 -4 4 6 -20 32 -53 58 -33 25 -60
43 -60 38 0 -4 28 -32 62 -63 35 -32 59 -61 55 -65 -4 -4 -18 2 -30 13 -64 62
-128 114 -177 146 -30 19 -64 45 -75 58 -21 23 -11 20 37 -13 60 -42 49 -12
-14 35 -31 24 -55 35 -70 32 -22 -4 -22 -3 -5 10 18 13 17 14 -7 30 -14 10
-24 21 -21 25 3 4 -2 11 -11 14 -22 9 -26 8 -18 -6 4 -7 3 -8 -4 -4 -6 4 -9
13 -5 22 3 8 1 14 -4 12 -5 -2 -29 17 -52 42 -23 25 -43 43 -44 40 -2 -3 -25
16 -53 41 -27 26 -82 75 -122 109 l-72 62 25 20 c14 11 23 23 20 28 -3 4 3 7
13 6 9 0 16 5 14 12 -1 6 1 11 5 10 16 -3 62 25 56 35 -3 6 -1 7 6 3 6 -4 17
-1 24 6 8 7 40 31 73 53 32 22 62 44 65 48 3 5 17 16 31 25 72 48 127 95 122
103 -3 5 -2 8 3 7 12 -4 165 151 192 195 14 22 27 34 34 30 7 -4 6 1 -2 10
-12 15 -12 17 3 11 9 -4 16 -3 15 2 -1 5 -1 16 1 24 1 12 3 12 8 -2 6 -14 11
-9 29 23 12 21 16 36 10 32 -11 -6 9 21 41 55 7 8 11 21 8 29 -3 8 -1 11 4 8
6 -3 11 0 12 7 0 7 2 18 2 23 1 6 5 15 9 21 4 7 8 36 11 67 2 30 7 60 10 66 4
6 9 29 12 52 4 35 2 41 -11 36 -12 -5 -14 -1 -10 25 3 17 8 35 11 40 3 4 0 8
-5 8 -6 0 -11 9 -11 20 0 11 -10 40 -22 66 -21 42 -25 45 -53 40 -29 -5 -29
-5 -7 7 l22 13 -21 22 c-20 22 -59 23 -67 1 -4 -11 -22 -2 -22 11 0 5 8 11 18
13 9 3 -11 4 -46 2 -66 -2 -100 -15 -40 -15 21 0 41 -7 49 -17 13 -15 11 -16
-20 -10 -18 4 -42 7 -52 7 -13 0 -19 7 -19 21 0 17 -4 19 -22 13 -13 -4 -32
-8 -43 -9 -11 -1 -24 -3 -28 -4 -5 0 -5 -6 -1 -12 5 -9 -3 -10 -30 -5 -24 5
-36 3 -36 -5 0 -6 -7 -8 -16 -5 -8 3 -12 2 -9 -4 7 -11 -23 -27 -50 -26 -11 1
-23 -3 -27 -8 -3 -5 -17 -10 -30 -11 -12 -1 -28 -10 -33 -21 -6 -10 -17 -20
-24 -22 -7 -2 -21 -12 -30 -23 -9 -11 -23 -21 -31 -23 -8 -1 -26 -8 -40 -15
l-25 -14 19 22 c29 33 4 25 -60 -19 -53 -35 -60 -38 -71 -23 -7 9 -13 13 -13
8 0 -5 -5 -4 -12 3 -18 18 -64 15 -145 -9 -75 -22 -91 -38 -84 -83 2 -11 -3
-47 -9 -80 -11 -55 -19 -67 -74 -122 -115 -114 -146 -152 -146 -179 0 -14 -4
-25 -9 -25 -5 0 -11 -9 -14 -21 -5 -17 -3 -18 10 -7 14 11 15 9 8 -21 -4 -21
-3 -31 2 -28 6 4 9 -13 8 -41 -2 -44 11 -92 25 -92 4 0 15 9 25 20 10 11 21
17 26 15 4 -3 10 8 14 24 5 25 55 105 55 89 0 -4 -15 -84 -34 -180 -19 -95
-37 -191 -40 -213 -3 -22 -11 -69 -19 -105 -13 -62 -15 -66 -57 -87 -62 -32
-68 -41 -26 -40 19 0 38 -1 40 -4 10 -10 8 -75 -3 -121 -6 -26 -8 -54 -5 -62
3 -9 2 -16 -3 -16 -5 0 -9 -10 -10 -22 0 -13 -6 -54 -12 -93 -7 -38 -15 -90
-19 -115 -9 -52 -7 -107 3 -132 4 -11 3 -18 -4 -18 -22 0 -9 -180 15 -209 5
-6 48 51 50 67 2 7 9 21 17 30 8 10 25 38 37 65 12 26 28 47 36 47 7 0 24 11
38 25 14 14 23 25 19 25 -3 0 1 10 10 23 8 12 18 37 21 55 4 17 11 32 16 32 4
0 11 26 15 58 3 31 13 83 21 114 8 31 13 61 12 65 -1 4 2 23 6 41 l8 32 45
-32 c25 -18 83 -63 129 -100 47 -37 85 -67 87 -65 3 3 173 -126 208 -158 9 -8
19 -15 22 -15 9 0 131 -92 135 -102 2 -5 10 -8 17 -8 7 0 15 -4 17 -8 1 -4 37
-33 78 -65 41 -31 80 -61 85 -65 6 -4 25 -18 43 -31 30 -21 33 -28 28 -55 -4
-17 -15 -43 -26 -58 -11 -14 -21 -37 -24 -50 -5 -30 23 -69 49 -68 120 4 195
16 195 31 0 5 9 9 19 9 11 0 23 5 26 10 10 16 23 12 52 -19 41 -41 135 -81
148 -62 7 12 -32 109 -52 129 -7 7 -13 17 -13 22 0 5 -18 28 -40 52 -41 44
-52 72 -25 62 8 -4 15 -2 15 4 0 6 -5 12 -11 14 -9 3 -9 13 -1 38 6 19 12 59
13 87 2 29 6 53 10 53 13 0 31 60 33 109 0 28 3 51 6 51 3 0 6 8 7 18 1 17 3
31 23 137 18 96 48 179 85 231 19 27 31 50 25 52 -5 2 -10 8 -10 13 0 6 4 8 9
5 11 -7 34 20 60 72 l22 42 29 -15 c17 -9 30 -22 30 -29 0 -8 14 -24 31 -37
18 -13 51 -41 74 -61 23 -21 48 -38 55 -38 15 0 70 -40 100 -72 20 -22 45 -38
97 -62 17 -9 33 -19 35 -24 3 -9 165 -138 196 -157 9 -5 43 -34 75 -63 32 -29
71 -59 87 -67 16 -8 40 -26 54 -40 14 -14 32 -25 41 -25 8 0 15 -9 15 -19 0
-15 18 -31 34 -31 11 0 -6 55 -21 72 -18 21 -18 21 5 9 21 -11 23 -11 20 5 -2
12 -19 23 -47 31 -25 7 -54 21 -65 32 -12 10 -30 21 -41 23 -11 2 -20 11 -20
20 0 9 -9 26 -19 37 -38 42 -8 30 48 -19 31 -27 63 -50 69 -50 11 1 -15 25
-34 32 -4 2 -10 17 -14 33 -5 23 -4 26 4 15 6 -8 11 -11 11 -6 0 6 13 -3 30
-19 16 -15 27 -31 25 -35 -5 -7 34 -47 41 -42 2 1 4 0 4 -3 0 -3 19 -26 42
-51 24 -25 47 -52 51 -60 4 -8 16 -14 26 -14 23 0 94 -35 111 -54 7 -9 19 -16
27 -16 13 0 13 3 3 15 -10 12 -10 15 4 15 9 0 16 -4 16 -8 0 -14 52 -35 98
-39 23 -2 42 -2 42 1 0 14 -48 82 -60 84 -8 2 -26 18 -40 35 -13 18 -42 51
-65 74 -22 23 -47 54 -55 70 -17 36 -81 95 -96 89 -6 -2 -11 1 -10 7 0 7 -35
47 -80 89 -66 63 -85 76 -105 72 -21 -5 -22 -4 -6 6 17 11 16 13 -6 30 -15 12
-32 17 -47 13 -15 -4 -21 -2 -16 5 3 6 -2 13 -12 16 -24 8 -80 66 -63 66 6 0
23 -11 37 -25 13 -13 34 -29 47 -35 l22 -11 -22 17 c-13 9 -23 25 -23 35 0 10
-10 21 -22 25 -13 4 -25 10 -28 13 -3 4 -27 23 -54 42 -28 18 -57 41 -66 49
-33 31 -117 100 -180 149 -107 83 -230 197 -230 212 0 4 29 55 65 114 45 74
62 111 54 115 -8 6 -5 17 12 39 25 34 37 35 19 1 -6 -12 -10 -24 -8 -26 3 -2
12 12 21 32 10 19 13 33 7 29 -5 -3 -10 -1 -10 5 0 16 -20 1 -31 -23 -5 -12
-18 -37 -29 -55 -11 -18 -18 -38 -14 -43 3 -5 0 -8 -6 -7 -6 2 -19 -8 -28 -22
l-16 -25 23 20 24 20 -24 -42 c-19 -33 -25 -38 -30 -25 -7 19 10 59 59 143 17
31 32 62 32 68 0 7 4 10 9 7 5 -3 14 8 20 25 6 17 24 53 41 80 16 27 32 61 36
76 3 16 13 44 22 63 8 19 15 41 15 48 0 7 6 11 12 8 7 -2 18 1 24 7 20 20 12
-3 -9 -25 -11 -12 -20 -27 -20 -32 2 -29 208 223 221 269 1 6 9 16 16 24 8 8
22 25 30 38 14 21 14 26 2 34 -13 8 -12 10 10 13 6 0 16 8 23 16 11 12 11 12
-4 1 -21 -15 -23 -9 -7 21 8 15 13 17 19 8 6 -9 13 -5 25 14 27 40 35 31 13
-15 -10 -22 -17 -43 -15 -46 3 -2 31 28 63 66 32 39 60 71 64 71 3 0 11 12 17
28 7 15 31 47 53 72 22 24 40 47 40 50 0 3 16 22 35 42 19 20 35 41 35 46 0 5
7 15 15 22 8 6 13 15 12 20 -1 4 10 22 26 39 15 17 28 40 30 51 2 11 6 23 10
26 4 4 7 16 7 26 0 10 5 18 10 18 11 0 13 30 4 54 -3 9 -14 16 -23 16 -9 0
-22 5 -27 10 -7 7 -16 4 -29 -10z m42 -32 c-3 -8 -6 -5 -6 6 -1 11 2 17 5 13
3 -3 4 -12 1 -19z m-287 -375 c-18 -32 -43 -68 -56 -80 -14 -13 -21 -28 -18
-37 3 -8 -3 -26 -13 -40 -24 -33 -40 -33 -18 0 31 48 10 33 -38 -27 -49 -61
-72 -103 -68 -129 2 -13 1 -13 -8 0 -12 17 -10 19 -54 -50 -37 -59 -67 -91
-67 -71 0 6 4 11 8 11 5 0 19 22 32 49 12 28 38 66 56 85 19 20 34 42 34 50 0
8 9 18 20 21 11 4 18 10 15 14 -6 10 60 103 67 95 4 -3 12 5 19 18 6 12 25 38
40 56 16 18 29 37 29 41 0 12 43 61 49 56 2 -2 -11 -30 -29 -62z m-230 -137
c0 -3 -4 -8 -10 -11 -5 -3 -10 -1 -10 4 0 6 5 11 10 11 6 0 10 -2 10 -4z
m-1375 -155 c-3 -6 -14 -11 -23 -11 -15 1 -15 2 2 15 21 16 32 13 21 -4z m195
-22 c0 -11 -27 -12 -34 0 -3 4 -3 11 0 14 8 8 34 -3 34 -14z m-470 -73 c0 -2
-7 -7 -16 -10 -8 -3 -12 -2 -9 4 6 10 25 14 25 6z m520 -6 c0 -5 -2 -10 -4
-10 -3 0 -8 5 -11 10 -3 6 -1 10 4 10 6 0 11 -4 11 -10z m22 -45 c3 -14 1 -25
-3 -25 -5 0 -9 4 -9 9 0 5 -3 16 -6 25 -3 9 -2 16 4 16 5 0 12 -11 14 -25z
m-136 -11 c23 -24 29 -34 20 -34 -8 0 -56 47 -56 54 0 12 13 5 36 -20z m-106
6 c12 -8 9 -10 -12 -10 -16 0 -28 -4 -28 -8 0 -5 -19 -8 -42 -7 -24 1 -48 -2
-54 -7 -7 -5 -14 -2 -18 7 -5 14 2 16 42 15 66 -2 74 -1 67 10 -8 13 25 13 45
0z m1110 -9 c0 -9 -28 -41 -35 -41 -3 0 1 11 7 25 11 25 28 34 28 16z m-1326
-33 c-5 -8 -2 -9 9 -5 28 10 19 -1 -12 -18 -22 -11 -32 -12 -37 -3 -4 7 -3 8
4 4 6 -3 16 3 22 14 6 11 13 20 16 20 3 0 2 -5 -2 -12z m1289 -33 c-3 -9 -8
-14 -10 -11 -3 3 -2 9 2 15 9 16 15 13 8 -4z m-1058 -19 c36 -15 47 -36 20
-36 -8 0 -15 4 -15 9 0 5 -9 11 -19 14 -15 3 -11 -3 12 -27 21 -21 35 -29 39
-22 5 7 8 5 8 -5 0 -24 -45 -112 -69 -133 -11 -10 -18 -22 -16 -26 8 -13 -126
-170 -145 -170 -5 0 -15 -10 -21 -22 -7 -13 -19 -28 -28 -35 -9 -6 -16 -17
-16 -25 0 -7 -6 -14 -12 -14 -37 -4 -38 -4 -23 -14 12 -7 7 -12 -24 -25 -21
-9 -35 -19 -32 -22 6 -6 -83 -93 -95 -93 -3 0 -20 -13 -37 -30 -18 -16 -36
-30 -42 -30 -5 0 -10 -6 -10 -14 0 -8 -10 -16 -22 -19 -13 -4 -43 -25 -67 -47
-40 -38 -118 -86 -126 -78 -4 3 15 96 40 203 7 33 19 92 26 130 7 39 19 74 26
78 7 4 13 13 13 20 0 8 -4 6 -11 -3 -8 -11 -9 -3 -4 30 4 25 10 69 14 99 6 43
14 60 37 78 16 13 41 35 56 48 15 14 30 25 35 25 4 0 33 15 63 33 52 31 168
85 200 93 8 2 38 10 67 17 28 8 69 14 92 13 23 -1 41 1 41 6 0 11 5 10 45 -6z
m255 -30 c0 -3 -4 -8 -10 -11 -5 -3 -10 -1 -10 4 0 6 5 11 10 11 6 0 10 -2 10
-4z m757 -33 c-14 -14 -19 -15 -29 -4 -9 9 -9 12 -1 7 6 -3 14 -2 18 4 3 5 11
10 18 10 6 0 4 -7 -6 -17z m86 -3 c-6 -24 -23 -37 -23 -18 0 12 18 38 26 38 1
0 0 -9 -3 -20z m-37 -70 c-5 -42 -16 -51 -16 -13 0 26 6 43 16 43 2 0 2 -14 0
-30z m-449 -42 c-3 -8 -6 -5 -6 6 -1 11 2 17 5 13 3 -3 4 -12 1 -19z m-86 -75
c-12 -20 -14 -14 -5 12 4 9 9 14 11 11 3 -2 0 -13 -6 -23z m481 5 c-2 -10 -8
-18 -13 -18 -5 0 -9 -7 -9 -15 0 -8 -4 -15 -9 -15 -5 0 -14 -14 -22 -32 -7
-17 -15 -26 -17 -19 -2 6 4 24 14 39 10 15 19 29 19 32 1 3 4 14 8 26 9 26 36
28 29 2z m-102 -146 c0 -5 -7 -17 -16 -28 -8 -10 -14 -14 -11 -9 2 6 7 18 10
28 7 17 17 23 17 9z m-1733 -24 c-3 -8 -6 -5 -6 6 -1 11 2 17 5 13 3 -3 4 -12
1 -19z m-34 -53 c-8 -28 -17 -56 -19 -62 -6 -23 -21 -14 -21 12 0 13 4 22 9
19 5 -4 8 2 7 12 -3 17 29 79 37 72 1 -2 -4 -26 -13 -53z m1410 40 c-3 -9 -8
-14 -10 -11 -3 3 -2 9 2 15 9 16 15 13 8 -4z m308 -48 c-9 -24 -28 -43 -36
-35 -2 2 5 18 17 36 23 37 33 37 19 -1z m-313 -60 c-6 -20 -15 -37 -19 -37 -4
0 0 18 8 40 20 49 26 47 11 -3z m-1398 -54 c-7 -29 -18 -53 -23 -53 -5 0 -4
-6 2 -14 10 -11 9 -16 -3 -23 -20 -11 -39 -93 -21 -93 10 0 11 -9 3 -40 -6
-22 -14 -40 -18 -40 -4 0 -15 -27 -25 -60 -10 -34 -22 -63 -27 -66 -8 -5 -8 1
7 69 4 19 2 26 -5 22 -5 -3 -10 -1 -10 4 0 6 4 11 9 11 5 0 11 9 14 20 3 11 1
20 -4 20 -14 0 -10 26 6 40 8 7 15 22 15 34 0 11 -4 17 -8 11 -8 -12 -32 -18
-32 -8 0 3 12 21 26 40 14 19 23 40 21 47 -3 8 0 19 6 25 6 6 12 28 14 47 2
36 29 68 47 57 5 -4 6 -1 2 5 -4 7 -4 18 1 25 14 23 16 -25 3 -80z m1740 43
c0 -2 -8 -10 -17 -17 -16 -13 -17 -12 -4 4 13 16 21 21 21 13z m-300 -21 c0
-8 -4 -15 -10 -15 -5 0 -7 7 -4 15 4 8 8 15 10 15 2 0 4 -7 4 -15z m291 -38
c-5 -14 -14 -28 -20 -31 -14 -9 -25 34 -13 46 8 8 9 4 6 -13 -5 -23 -5 -23 12
3 22 33 28 30 15 -5z m-352 -21 c-9 -8 -10 -7 -5 7 3 10 7 24 7 30 1 7 3 4 6
-7 3 -10 -1 -23 -8 -30z m-554 24 c-3 -5 -11 -10 -16 -10 -6 0 -7 5 -4 10 3 6
11 10 16 10 6 0 7 -4 4 -10z m532 -27 c-3 -10 -5 -4 -5 12 0 17 2 24 5 18 2
-7 2 -21 0 -30z m-797 7 c-8 -5 -17 -7 -19 -4 -3 3 1 9 9 14 8 5 17 7 19 4 3
-3 -1 -9 -9 -14z m-115 -80 c-3 -5 -16 -15 -28 -21 -21 -10 -21 -9 2 10 25 23
36 27 26 11z m-90 -30 c-3 -5 -16 -15 -28 -21 -19 -9 -19 -8 3 10 28 23 34 26
25 11z m35 -95 c-33 -19 -50 -18 -26 0 11 8 27 15 35 15 10 -1 7 -6 -9 -15z
m-516 -10 c-4 -8 -11 -15 -16 -15 -6 0 -5 6 2 15 7 8 14 15 16 15 2 0 1 -7 -2
-15z m464 -27 c-7 -19 -38 -22 -38 -4 0 10 9 16 21 16 12 0 19 -5 17 -12z
m999 -10 c-3 -8 -6 -5 -6 6 -1 11 2 17 5 13 3 -3 4 -12 1 -19z m-1475 -30 c-8
-8 -9 -4 -5 13 4 13 8 18 11 10 2 -7 -1 -18 -6 -23z m1813 22 c3 -5 1 -10 -4
-10 -6 0 -11 5 -11 10 0 6 2 10 4 10 3 0 8 -4 11 -10z m-1390 -19 c-3 -6 -15
-11 -25 -11 -10 0 -22 -4 -25 -10 -3 -5 -14 -10 -23 -10 -9 1 3 12 28 25 46
23 57 25 45 6z m1348 -1 c9 -11 23 -17 30 -14 8 3 27 -9 43 -25 37 -39 57 -41
44 -5 -13 34 -13 39 5 24 8 -7 12 -17 9 -22 -4 -6 5 -8 25 -3 24 5 31 3 31 -9
0 -10 -9 -16 -21 -16 -18 0 -19 -2 -9 -15 27 -32 -43 -15 -109 27 -74 46 -93
63 -84 72 10 10 18 7 36 -14z m373 -28 c-4 -3 -14 2 -24 12 -16 18 -16 18 6 6
13 -6 21 -14 18 -18z m-101 -12 c10 -16 -12 -12 -29 6 -9 8 -16 18 -16 20 0 7
38 -15 45 -26z m-2045 -1 c0 -6 -4 -7 -10 -4 -5 3 -10 11 -10 16 0 6 5 7 10 4
6 -3 10 -11 10 -16z m2205 -29 c27 -28 28 -42 2 -20 -7 6 -23 19 -36 30 -16
13 -19 20 -9 20 8 0 27 -13 43 -30z m-121 -9 c10 -11 25 -17 34 -15 14 4 13 3
-1 -6 -15 -10 -23 -7 -44 14 -14 14 -21 26 -16 26 5 0 18 -9 27 -19z m-84 -21
c0 5 9 1 20 -10 11 -11 20 -23 20 -26 0 -9 -43 7 -61 22 -9 8 -19 11 -24 7 -4
-5 -5 -2 -1 5 5 9 12 9 27 2 13 -7 19 -7 19 0z m-4 -58 c21 -20 42 -35 47 -34
4 1 7 -4 7 -11 0 -13 19 -18 75 -21 17 0 36 -5 43 -11 36 -27 112 -99 108
-102 -2 -3 3 -13 12 -23 45 -48 59 -66 65 -82 3 -9 23 -26 45 -37 21 -11 44
-27 51 -35 7 -9 18 -13 23 -10 6 4 5 10 -3 16 -12 8 -12 9 0 6 16 -4 26 -48
12 -48 -5 0 -16 6 -23 14 -8 7 -24 16 -36 20 -18 6 -21 4 -15 -10 5 -14 3 -15
-14 -6 -11 6 -25 18 -33 26 -7 9 -21 16 -32 16 -10 0 -29 9 -41 21 l-22 20 25
-3 c14 -2 31 -7 38 -12 23 -14 -7 27 -34 47 -21 16 -23 16 -17 1 5 -15 3 -15
-21 1 -16 11 -25 24 -22 32 3 8 1 11 -4 8 -5 -3 -31 10 -56 29 -26 20 -51 36
-56 36 -15 0 -63 40 -63 53 0 6 -11 14 -25 18 -14 4 -21 7 -16 8 14 1 -45 61
-61 61 -7 0 -19 13 -27 29 -14 27 -14 28 8 24 12 -3 40 -21 62 -41z m319 -2
c8 -13 -5 -13 -25 0 -13 8 -13 10 2 10 9 0 20 -4 23 -10z m-914 -50 c5 0 9 5
9 12 0 6 3 8 7 5 3 -4 -3 -16 -15 -27 -12 -12 -23 -25 -23 -30 -1 -6 -2 -14
-3 -19 0 -5 -5 -13 -10 -18 -5 -5 -6 7 -2 27 4 19 10 51 14 70 6 33 7 33 10 8
2 -16 8 -28 13 -28z m708 21 c9 -16 8 -18 -9 -14 -11 3 -25 11 -31 19 -9 11
-7 14 9 14 12 0 26 -9 31 -19z m58 -8 c-9 -8 -48 8 -42 18 4 5 14 5 26 -2 12
-6 18 -13 16 -16z m189 0 c-7 -7 -26 7 -26 19 0 6 6 6 15 -2 9 -7 13 -15 11
-17z m-136 -38 c16 -9 19 -14 9 -15 -8 0 -24 7 -35 15 -24 18 -7 19 26 0z
m-2220 -40 c-7 -9 -15 -13 -17 -11 -7 7 7 26 19 26 6 0 6 -6 -2 -15z m2349
-10 c6 -3 8 -12 5 -20 -4 -8 6 -20 24 -29 27 -14 51 -46 34 -46 -4 0 -37 27
-72 60 -60 55 -62 59 -33 51 18 -5 37 -12 42 -16z m-2358 -78 c-10 -9 -11 -8
-5 6 3 10 9 15 12 12 3 -3 0 -11 -7 -18z m2404 -27 c10 -11 14 -20 8 -20 -5 0
-18 9 -28 20 -10 11 -14 20 -8 20 5 0 18 -9 28 -20z m185 0 c10 -19 10 -20 -9
-8 -22 13 -28 28 -11 28 5 0 14 -9 20 -20z m-135 -10 c3 -5 2 -10 -4 -10 -5 0
-13 5 -16 10 -3 6 -2 10 4 10 5 0 13 -4 16 -10z m-1728 -103 c10 -16 -50 23
-92 60 -37 33 -36 32 23 -8 35 -23 66 -47 69 -52z m1832 23 c33 -32 61 -65 61
-72 -1 -8 -5 -7 -14 5 -7 9 -16 17 -20 17 -15 0 -32 26 -28 39 3 9 0 12 -10 8
-10 -3 -28 8 -49 29 -59 61 -6 38 60 -26z m-1759 -70 c0 -5 24 -25 53 -45 85
-58 121 -85 111 -86 -5 0 1 -4 14 -9 12 -5 22 -17 22 -27 0 -13 -7 -11 -32 13
-18 16 -43 38 -56 49 -23 19 -23 19 -16 -1 8 -21 9 -22 -71 46 -37 31 -57 70
-35 70 6 0 10 -4 10 -10z m244 -186 c23 -22 20 -37 -4 -22 -11 7 -20 18 -20
25 0 17 5 16 24 -3z m386 2 c0 -8 -4 -18 -10 -21 -5 -3 -10 3 -10 14 0 12 5
21 10 21 6 0 10 -6 10 -14z m-1360 -26 c0 -5 -4 -10 -10 -10 -5 0 -10 5 -10
10 0 6 5 10 10 10 6 0 10 -4 10 -10z m1070 -50 c0 -17 -15 -11 -28 11 -12 19
-11 19 8 9 11 -6 20 -15 20 -20z m30 -26 c0 -8 -4 -12 -10 -9 -5 3 -10 10 -10
16 0 5 5 9 10 9 6 0 10 -7 10 -16z"/>
<path d="M3750 3499 c0 -5 5 -7 10 -4 6 3 10 8 10 11 0 2 -4 4 -10 4 -5 0 -10
-5 -10 -11z"/>
<path d="M3246 3484 c-22 -21 -20 -27 4 -12 11 7 20 16 20 20 0 12 -7 10 -24
-8z"/>
<path d="M3218 3267 c-3 -19 -2 -25 4 -19 6 6 8 18 6 28 -3 14 -5 12 -10 -9z"/>
<path d="M5315 2870 c4 -6 10 -8 15 -5 4 3 11 -1 13 -7 3 -8 6 -6 6 5 1 11 -6
17 -20 17 -11 0 -17 -5 -14 -10z"/>
<path d="M5325 2830 c3 -5 11 -10 16 -10 6 0 7 5 4 10 -3 6 -11 10 -16 10 -6
0 -7 -4 -4 -10z"/>
<path d="M3970 2566 c0 -3 9 -10 20 -16 11 -6 20 -8 20 -6 0 3 -9 10 -20 16
-11 6 -20 8 -20 6z"/>
<path d="M5390 4455 c0 -8 2 -15 4 -15 2 0 6 7 10 15 3 8 1 15 -4 15 -6 0 -10
-7 -10 -15z"/>
<path d="M3117 4322 c-15 -15 -27 -32 -27 -37 0 -7 -37 -60 -86 -123 -12 -15
-34 -55 -50 -89 -15 -35 -32 -63 -36 -63 -4 0 -8 -11 -8 -24 0 -38 -20 -85
-35 -80 -8 3 -17 -7 -24 -28 -10 -30 -9 -31 4 -14 17 23 20 14 4 -15 -6 -11
-12 -28 -15 -37 -4 -17 -50 -148 -73 -207 -6 -16 -15 -37 -20 -46 -5 -9 -12
-34 -16 -55 l-6 -39 21 44 c30 65 35 44 6 -33 -14 -36 -23 -66 -20 -66 3 0 -6
-20 -20 -44 -29 -49 -78 -208 -75 -246 2 -43 -1 -60 -10 -60 -5 0 -7 10 -5 23
2 12 2 16 -2 9 -3 -6 -9 -10 -13 -8 -3 2 -5 -13 -3 -34 3 -30 -1 -43 -17 -56
-11 -10 -24 -33 -27 -51 -3 -18 -10 -30 -15 -27 -5 3 -7 10 -4 15 4 5 2 9 -3
9 -13 0 -22 36 -12 47 4 4 10 24 14 43 6 34 6 34 -9 13 -18 -25 -27 -93 -15
-108 14 -19 23 -58 11 -51 -7 5 -11 -5 -11 -29 0 -28 -7 -44 -31 -66 -17 -16
-27 -29 -21 -29 11 0 -8 -82 -22 -91 -5 -4 -6 -12 -2 -18 4 -7 1 -9 -8 -5 -9
3 -14 14 -13 25 4 22 17 38 17 19 0 -7 3 -10 6 -7 4 4 1 14 -7 24 -8 9 -9 14
-3 10 8 -5 13 8 16 38 2 29 -1 44 -7 41 -7 -2 -9 10 -7 33 8 69 -8 36 -93
-194 -65 -176 -78 -209 -107 -267 -15 -32 -33 -58 -38 -58 -6 0 -10 -11 -10
-25 0 -14 -5 -25 -10 -25 -20 0 -27 45 -25 160 1 63 -1 117 -6 120 -15 10 -24
114 -17 180 4 36 7 117 7 180 -1 238 1 358 7 470 3 63 6 134 7 158 2 23 -1 42
-6 42 -4 0 -6 4 -2 10 3 5 -24 7 -72 4 -58 -3 -81 -9 -91 -22 -7 -9 -19 -17
-28 -17 -8 0 -18 -5 -22 -11 -4 -6 -15 -13 -24 -17 -10 -4 -19 -22 -23 -49 -9
-62 -10 -246 -2 -368 4 -58 9 -163 12 -235 5 -149 13 -273 21 -360 3 -33 7
-89 9 -125 2 -36 11 -108 20 -160 8 -52 17 -120 18 -150 1 -30 7 -62 12 -70 9
-15 10 -19 13 -51 6 -63 128 -97 224 -62 38 13 45 19 31 24 -15 7 -15 8 5 8
12 1 26 9 29 18 7 17 39 53 48 53 3 0 9 0 15 0 5 0 6 7 3 17 -4 11 -3 14 5 9
7 -4 12 -1 12 9 0 8 11 21 25 27 15 7 24 17 21 25 -3 7 0 13 7 13 7 0 20 21
31 48 10 26 31 74 46 107 16 33 46 116 69 185 23 69 45 134 50 145 5 11 20 61
34 110 24 89 43 145 98 298 16 43 29 87 29 97 0 22 49 133 62 141 6 4 8 11 4
17 -3 5 1 23 10 41 8 17 16 40 17 52 1 12 9 24 19 27 19 5 47 78 53 141 2 23
10 51 16 63 11 21 13 21 18 5 5 -13 11 -4 23 35 14 43 14 49 3 34 -21 -27 -19
-11 4 33 16 32 37 87 45 116 5 18 40 90 57 115 9 14 19 39 22 55 3 17 11 48
18 70 7 22 11 46 10 54 -1 8 2 10 10 5 9 -5 9 -3 3 7 -13 21 -33 82 -29 89 5
9 18 170 13 170 -2 0 -16 -13 -31 -28z m-104 -397 c-3 -9 -8 -14 -10 -11 -3 3
-2 9 2 15 9 16 15 13 8 -4z m-63 -115 c0 -5 -5 -10 -11 -10 -5 0 -7 5 -4 10 3
6 8 10 11 10 2 0 4 -4 4 -10z m-66 -147 c-8 -32 -19 -75 -24 -95 -6 -21 -19
-57 -29 -80 -11 -24 -32 -77 -47 -118 -14 -41 -32 -79 -38 -85 -7 -5 -13 -21
-13 -34 -1 -13 -7 -29 -14 -35 -9 -8 -10 -2 -6 29 4 22 11 41 17 43 5 2 10 12
10 23 0 10 4 19 10 19 5 0 7 6 4 13 -3 8 6 43 20 80 13 36 22 68 19 71 -4 3
-1 6 5 6 7 0 12 3 11 8 -2 14 13 52 21 52 7 0 22 39 55 148 3 6 6 12 9 12 2 0
-2 -26 -10 -57z m-181 -478 c-3 -9 -8 -14 -10 -11 -3 3 -2 9 2 15 9 16 15 13
8 -4z m-19 -69 c-3 -15 -8 -25 -11 -23 -2 3 -1 17 3 31 3 15 8 25 11 23 2 -3
1 -17 -3 -31z m-43 -113 c-12 -20 -14 -14 -5 12 4 9 9 14 11 11 3 -2 0 -13 -6
-23z m-21 -70 c0 -5 -5 -15 -10 -23 -7 -12 -9 -10 -7 8 1 19 17 33 17 15z
m-180 -160 c0 -5 -5 -15 -10 -23 -8 -12 -10 -11 -10 8 0 12 5 22 10 22 6 0 10
-3 10 -7z m-494 -198 c1 -8 -2 -13 -7 -9 -5 3 -9 12 -9 21 0 19 13 9 16 -12z
m23 -196 c-3 -68 -14 -70 -15 -3 -1 30 3 54 8 54 5 0 8 -23 7 -51z m85 -464
c3 -8 1 -15 -4 -15 -6 0 -10 5 -10 11 0 5 -5 7 -12 3 -7 -4 -8 -3 -4 4 10 16
23 15 30 -3z"/>
<path d="M3715 4201 c-3 -6 -10 -9 -15 -6 -5 3 -11 2 -14 -3 -2 -4 4 -8 14 -9
19 -2 37 14 27 23 -3 3 -8 0 -12 -5z"/>
<path d="M1806 4167 c-5 -19 -8 -20 -17 -7 -9 12 -11 13 -16 1 -3 -7 -15 -23
-27 -35 -11 -11 -22 -31 -23 -43 -1 -13 -13 -38 -28 -57 -14 -19 -25 -38 -23
-42 1 -5 -17 -43 -42 -84 -45 -76 -197 -374 -259 -508 -18 -39 -37 -72 -41
-72 -5 0 -17 -24 -28 -52 -18 -48 -167 -394 -213 -495 -10 -23 -19 -44 -19
-47 0 -3 -11 -29 -24 -58 -14 -29 -40 -94 -60 -145 -19 -50 -44 -106 -54 -125
-10 -18 -24 -50 -31 -70 -7 -21 -16 -38 -19 -38 -12 0 -18 365 -13 850 2 205
-8 270 -51 335 -19 29 -39 47 -56 51 -15 3 -42 12 -60 20 -61 26 -89 15 -122
-51 -3 -5 -17 -30 -32 -55 -49 -82 -166 -466 -257 -845 -17 -71 -42 -170 -55
-220 -14 -49 -31 -124 -40 -165 -19 -89 -57 -287 -62 -315 -2 -11 -10 -59 -18
-107 -9 -49 -23 -127 -31 -174 -8 -48 -23 -128 -35 -179 -11 -51 -23 -124 -26
-161 -4 -38 -11 -74 -16 -81 -6 -8 -5 -18 4 -30 12 -17 20 -19 54 -15 6 1 33
34 59 74 45 68 64 118 109 295 7 29 18 59 25 66 6 8 8 17 5 20 -4 3 0 36 7 73
10 50 15 62 19 44 6 -24 6 -24 17 5 6 17 14 51 18 78 3 26 11 45 16 42 5 -4 5
-13 -1 -25 -16 -30 -12 -47 6 -22 8 12 14 28 11 35 -2 6 1 28 8 47 12 33 36
112 41 135 5 25 69 262 100 372 74 264 106 390 106 422 0 19 4 44 8 55 7 18 9
15 10 -14 1 -19 3 -44 5 -55 3 -11 7 -45 10 -75 3 -30 8 -64 10 -75 2 -11 6
-56 10 -100 3 -44 10 -105 15 -135 5 -30 12 -82 15 -115 3 -33 8 -71 10 -85 2
-14 6 -52 10 -85 8 -69 9 -73 28 -145 46 -170 104 -218 178 -147 19 17 46 37
61 44 23 10 32 30 71 150 25 76 86 247 136 380 50 133 91 245 91 248 0 4 13
34 29 68 16 34 46 100 67 147 38 86 67 133 59 94 -7 -29 -45 -234 -45 -241 0
-3 7 -3 15 1 8 3 15 0 16 -7 2 -22 38 170 44 238 5 40 19 96 32 120 6 11 14
43 18 70 4 28 11 57 16 65 17 33 22 -23 5 -81 -9 -32 -16 -73 -16 -89 0 -17
-3 -29 -8 -26 -4 2 -6 -12 -5 -32 1 -21 -4 -59 -12 -87 -16 -63 -76 -438 -80
-500 -2 -26 -9 -77 -21 -140 -2 -11 -6 -53 -10 -95 -3 -41 -10 -80 -15 -86 -6
-7 -6 -15 -1 -18 11 -6 3 -64 -9 -72 -5 -3 -9 -13 -9 -24 0 -10 -7 -20 -15
-24 -13 -4 -14 -2 -5 14 8 15 8 20 -1 20 -8 0 -9 4 0 13 6 8 13 34 16 58 3 24
8 64 11 89 13 102 13 150 1 150 -8 0 -8 3 1 9 8 4 13 11 13 15 -1 3 -1 9 0 14
1 4 0 17 0 29 -1 11 3 24 8 28 18 10 12 31 -9 32 -22 2 -32 -21 -35 -87 -2
-25 -5 -54 -8 -65 -7 -30 -17 -112 -22 -190 -13 -172 -13 -175 4 -186 14 -9
14 -10 -1 -5 -30 9 -32 -29 -13 -189 10 -83 29 -137 52 -152 13 -9 20 -19 17
-24 -3 -5 5 -10 18 -10 13 -1 34 -2 48 -3 16 -1 24 4 22 12 -1 8 3 30 10 49
l13 36 5 -29 c6 -33 23 -38 28 -8 2 10 6 26 9 34 4 8 7 17 7 20 1 3 5 11 10
19 7 10 6 12 -4 6 -10 -6 -11 -4 -4 6 10 17 11 29 19 189 3 69 7 135 10 147 5
21 12 91 30 317 4 44 10 89 14 100 4 12 9 46 10 76 2 30 5 58 7 62 2 4 7 26
10 50 3 24 7 49 10 56 2 8 7 37 10 65 3 29 12 78 20 110 7 32 13 61 12 65 -1
4 4 32 10 62 16 71 18 86 26 140 7 53 36 181 50 228 3 9 8 33 11 53 10 62 70
276 128 454 47 145 54 178 50 223 -3 28 -9 52 -14 52 -5 0 -9 6 -9 14 0 21
-27 40 -33 24 -3 -7 -6 -3 -6 10 -1 13 -5 20 -11 17 -5 -3 -7 0 -4 8 6 18 -12
32 -21 17 -4 -7 -12 -7 -25 0 -14 8 -19 5 -24 -13z m-246 -912 c-6 -30 -8 -33
-9 -13 -1 25 8 62 14 56 2 -2 -1 -21 -5 -43z m37 -22 c-3 -10 -5 -4 -5 12 0
17 2 24 5 18 2 -7 2 -21 0 -30z m-15 -108 c-2 -19 -8 -35 -12 -35 -7 0 -5 22
6 58 7 23 10 12 6 -23z m1 -132 c-9 -3 -10 -10 -3 -22 5 -10 6 -21 3 -25 -4
-4 -8 -12 -9 -19 -2 -7 -5 -21 -8 -32 -23 -84 -34 -140 -30 -147 3 -4 1 -8 -5
-8 -5 0 -8 -12 -5 -26 3 -14 0 -32 -7 -40 -6 -8 -8 -14 -5 -14 4 0 2 -10 -5
-21 -8 -15 -8 -19 0 -15 13 9 13 6 1 -69 -19 -117 -27 -143 -46 -165 -7 -8
-17 -38 -23 -65 l-10 -50 4 55 c9 111 25 236 35 270 5 19 10 49 10 67 0 17 4
34 8 37 5 3 7 18 5 33 -3 16 6 50 18 78 12 28 23 59 24 70 6 90 6 91 15 70 6
-14 9 -16 11 -5 4 27 6 45 8 60 1 12 3 12 14 1 9 -11 9 -14 0 -18z m34 -65
c-3 -7 -5 -2 -5 12 0 14 2 19 5 13 2 -7 2 -19 0 -25z m-10 -40 c-3 -8 -6 -5
-6 6 -1 11 2 17 5 13 3 -3 4 -12 1 -19z m-90 -575 c-3 -10 -5 -4 -5 12 0 17 2
24 5 18 2 -7 2 -21 0 -30z m-60 -172 c0 -11 -5 -18 -9 -15 -4 3 -5 11 -1 19 7
21 12 19 10 -4z m-32 -58 c-3 -10 -9 -31 -13 -48 -6 -30 -6 -30 -12 -5 -9 36
0 70 17 70 10 0 13 -6 8 -17z m6 -86 c-10 -9 -11 -8 -5 6 3 10 9 15 12 12 3
-3 0 -11 -7 -18z m-88 -97 c-3 -11 -7 -20 -9 -20 -2 0 -4 9 -4 20 0 11 4 20 9
20 5 0 7 -9 4 -20z m54 -32 c-3 -8 -6 -5 -6 6 -1 11 2 17 5 13 3 -3 4 -12 1
-19z m-50 -40 c-3 -7 -5 -2 -5 12 0 14 2 19 5 13 2 -7 2 -19 0 -25z m-33 -30
c-4 -6 -10 -5 -15 3 -14 22 -10 33 6 19 8 -7 12 -17 9 -22z"/>
<path d="M1546 2913 c-6 -14 -5 -15 5 -6 7 7 10 15 7 18 -3 3 -9 -2 -12 -12z"/>
<path d="M1455 2410 c-3 -5 -1 -10 4 -10 6 0 11 5 11 10 0 6 -2 10 -4 10 -3 0
-8 -4 -11 -10z"/>
<path d="M5110 4066 c-14 -14 -13 -25 3 -22 17 2 37 16 37 25 0 11 -28 9 -40
-3z"/>
<path d="M2885 3949 c-4 -6 -5 -12 -2 -15 2 -3 7 2 10 11 7 17 1 20 -8 4z"/>
<path d="M5214 3847 c-11 -18 -29 -44 -38 -59 -10 -16 -16 -28 -12 -28 7 0 78
111 74 115 -2 2 -13 -11 -24 -28z"/>
<path d="M2797 3775 c-9 -19 -13 -35 -9 -35 8 0 34 61 29 67 -2 1 -11 -13 -20
-32z"/>
<path d="M5215 3799 c-4 -6 -5 -12 -2 -15 2 -3 7 2 10 11 7 17 1 20 -8 4z"/>
<path d="M2729 3603 c-13 -16 -12 -17 4 -4 16 13 21 21 13 21 -2 0 -10 -8 -17
-17z"/>
<path d="M2686 3523 c-6 -14 -5 -15 5 -6 7 7 10 15 7 18 -3 3 -9 -2 -12 -12z"/>
<path d="M2644 3445 c-3 -8 -4 -20 -2 -27 3 -7 7 -1 10 15 6 29 1 36 -8 12z"/>
<path d="M2623 3385 c-3 -9 -3 -18 -1 -21 3 -3 8 4 11 16 6 23 -1 27 -10 5z"/>
<path d="M2600 3325 c-6 -8 -10 -21 -8 -31 2 -11 7 -6 15 15 13 34 11 38 -7
16z"/>
<path d="M2566 3248 c-20 -71 -32 -106 -41 -123 -7 -11 -18 -40 -24 -65 -7
-25 -19 -61 -26 -80 -8 -19 -17 -46 -20 -60 l-7 -25 17 23 c9 12 28 64 42 115
14 51 28 97 33 102 11 15 41 125 34 125 -3 0 -6 -6 -8 -12z"/>
<path d="M2605 3228 c-4 -18 -9 -42 -12 -53 -3 -13 -2 -17 5 -10 11 11 27 95
19 95 -3 0 -8 -15 -12 -32z"/>
<path d="M4543 3195 c0 -8 4 -15 9 -15 4 0 8 7 8 15 0 8 -4 15 -8 15 -5 0 -9
-7 -9 -15z"/>
<path d="M1531 3174 c0 -11 3 -14 6 -6 3 7 2 16 -1 19 -3 4 -6 -2 -5 -13z"/>
<path d="M4431 2954 c0 -11 3 -14 6 -6 3 7 2 16 -1 19 -3 4 -6 -2 -5 -13z"/>
<path d="M2477 2900 c-3 -11 -1 -23 4 -26 5 -3 9 6 9 20 0 31 -6 34 -13 6z"/>
<path d="M2481 2852 c0 -7 -5 -11 -10 -8 -5 3 -12 -1 -15 -10 -3 -8 -2 -13 3
-10 5 3 12 -4 16 -17 l8 -22 4 23 c2 12 2 30 0 40 -3 9 -5 11 -6 4z"/>
<path d="M1388 2672 c-2 -25 1 -39 8 -39 8 0 10 12 7 36 -8 48 -10 49 -15 3z"/>
<path d="M4000 2665 c19 -19 36 -35 39 -35 3 0 -10 16 -29 35 -19 19 -36 35
-39 35 -3 0 10 -16 29 -35z"/>
<path d="M4083 2598 c27 -24 34 -37 27 -44 -8 -8 -1 -19 25 -38 42 -32 46 -24
8 17 l-28 30 25 -13 c31 -15 20 -5 -45 44 -46 35 -47 36 -12 4z"/>
<path d="M1406 2595 c-3 -9 -6 -22 -5 -28 0 -7 5 -1 10 12 5 13 8 26 5 28 -2
2 -6 -3 -10 -12z"/>
<path d="M1375 2579 c-4 -6 -5 -12 -2 -15 2 -3 7 2 10 11 7 17 1 20 -8 4z"/>
<path d="M1365 2520 c-4 -17 -5 -34 -2 -36 3 -3 8 9 12 26 4 17 5 34 2 36 -3
3 -8 -9 -12 -26z"/>
<path d="M1380 2476 c0 -31 6 -34 13 -6 3 11 1 23 -4 26 -5 3 -9 -6 -9 -20z"/>
<path d="M1357 2435 c-3 -7 0 -12 8 -11 22 3 27 13 11 19 -8 3 -17 0 -19 -8z"/>
<path d="M5770 2432 c0 -8 52 -42 65 -42 3 0 -2 11 -12 25 -17 23 -53 35 -53
17z"/>
<path d="M319 1713 c-11 -25 -27 -52 -37 -60 -16 -12 -16 -13 2 -7 16 6 17 3
12 -22 -3 -16 -8 -42 -11 -59 -6 -36 -39 -162 -50 -190 -6 -16 -5 -18 5 -8 10
10 28 62 45 133 2 8 11 47 20 85 9 39 19 83 22 99 2 16 9 40 14 53 16 43 -1
24 -22 -24z"/>
</g>
</svg>
