<svg width="27" height="25" viewBox="0 0 27 25" fill="none" xmlns="http://www.w3.org/2000/svg">
    <path d="M23 0H3.6661C1.64466 0 0 1.64433 0 3.6661V15.498C0 17.5152 1.6375 19.157 3.65308 19.1641V24.5333L11.3692 19.1641H23C25.0214 19.1641 26.6661 17.5195 26.6661 15.498V3.6661C26.6661 1.64433 25.0214 0 23 0ZM25.1036 15.498C25.1036 16.6578 24.1599 17.6017 23 17.6017H10.879L5.21554 21.5427V17.6017H3.6661C2.50613 17.6017 1.56247 16.6578 1.56247 15.498V3.6661C1.56247 2.50597 2.50613 1.56247 3.6661 1.56247H23C24.1599 1.56247 25.1036 2.50597 25.1036 3.6661V15.498Z" fill="white"/>
    <path d="M7.13702 5.52051H19.529V7.08297H7.13702V5.52051Z" fill="white"/>
    <path d="M7.13702 8.854H19.529V10.4165H7.13702V8.854Z" fill="white"/>
    <path d="M7.13702 12.1875H19.529V13.75H7.13702V12.1875Z" fill="white"/>
</svg>
