<svg width="106" height="69" viewBox="0 0 106 69" fill="none" xmlns="http://www.w3.org/2000/svg">
<path d="M33.0232 15.9075C31.7355 13.9717 30.1743 13.9917 29.4278 16.2136C28.6814 18.4354 25.0595 26.0738 21.7211 32.2709C18.3827 38.468 15.1185 47.1833 14.8514 48.3505C14.4693 42.4437 14.1814 38.5266 14.4118 34.3756C14.6421 30.2246 15.1024 27.9447 13.4908 26.7169C11.8792 25.4892 11.2305 25.5185 10.7282 25.723C10.2259 25.9275 8.42609 27.8861 5.72099 38.4682C4.58418 42.9153 0.483286 61.5614 0.0808108 65.7124C-0.321665 69.8634 0.886452 68.0509 1.34694 67.6417C1.80743 67.2326 3.30372 65.8294 3.70672 65.3032C4.10971 64.7771 4.57003 63.6661 4.97285 61.6784C5.37567 59.6907 8.84013 43.1491 10.5034 37.5932C10.5034 37.5932 11.1312 43.5546 11.5912 47.2378C12.0511 50.9211 12.7998 56.592 14.4689 56.7674C16.138 56.9428 16.5885 55.3839 17.1107 55.0233C17.6328 54.6627 17.8063 52.3242 19.2453 48.524C20.6842 44.7238 22.3499 38.9192 24.5674 35.6535C23.4287 40.5026 22.6838 45.4385 22.3401 50.4114C21.8601 57.5462 21.566 62.1928 24.233 61.9064C26.8999 61.62 26.2666 57.4106 26.7846 49.8101C27.3026 42.2097 30.6983 26.1908 31.9644 22.5659C33.2306 18.9411 34.3107 17.8435 33.0232 15.9075Z" fill="white"/>
<path d="M53.8787 16.1505C53.7486 15.1725 53.8147 14.4013 54.0193 13.313C54.2239 12.2247 53.9713 11.9584 53.3756 12.4513C49.8649 15.9007 43.9368 31.0428 42.2104 36.4895C40.484 41.9361 37.7782 48.5237 37.2256 48.4288C36.6731 48.3339 36.5127 47.5297 36.546 42.1875C36.5794 36.8452 36.9155 28.2952 36.9824 26.3127C37.0492 24.3302 35.9167 24.8452 34.1659 25.5059C32.1067 26.2834 32.3688 26.0145 32.0781 31.4389C31.7873 36.8632 32.9443 51.505 33.3471 53.6681C33.75 55.8312 35.9947 56.6498 38.9176 54.7071C41.8404 52.7645 43.5342 47.1786 46.412 38.1752C49.2897 29.1718 50.8437 25.7807 52.62 21.2065C54.3964 16.6323 54.0084 17.1284 53.8787 16.1505Z" fill="white"/>
<path d="M80.9707 8.52836L80.9728 8.52728C80.9732 8.50483 80.9707 8.52836 80.9707 8.52836Z" fill="white"/>
<path d="M104.311 45.2494C102.145 42.4229 97.7474 38.8041 94.6167 35.8619C91.486 32.9197 86.2393 28.7041 85.9442 28.3274C89.7932 21.5779 96.3866 11.646 101.376 5.61075C106.365 -0.424499 102.813 -0.627778 101.173 0.599967C99.7354 1.67565 96.5108 4.80938 92.3399 10.5798C88.3247 16.1355 84.5063 22.4025 83.4254 23.5413C83.3982 23.5698 83.3627 23.5886 83.3241 23.5948C83.2855 23.601 83.2459 23.5942 83.2114 23.5756C83.1769 23.557 83.1493 23.5274 83.1328 23.4915C83.1163 23.4555 83.1117 23.4151 83.1198 23.3762C85.6177 11.3669 86.1795 8.33108 86.1595 8.06799C83.0885 7.31083 82.2114 7.88962 80.9729 8.52664C80.9729 8.5633 80.9634 8.7294 80.9211 9.34046C80.4518 11.2059 79.8076 14.0322 79.2014 15.5515C78.7853 16.594 79.3849 16.3509 79.8668 16.0441C78.2081 24.511 74.8845 40.2362 73.7214 45.8533C69.1343 41.529 61.1762 34.9114 61.1762 34.9114C61.1762 34.9114 64.2103 33.3776 69.1241 29.0533C74.0379 24.729 77.5485 19.2328 76.2249 14.7895C74.9012 10.3463 67.8749 11.2831 62.3808 15.3748C61.7732 15.8273 61.171 16.2641 60.5793 16.688C60.225 14.4993 58.1528 15.3741 57.4047 15.9003C56.6566 16.4265 56.0752 16.836 56.0752 16.836C56.5195 17.1675 56.3371 18.4381 56.0909 19.9198C53.5728 21.8284 51.9037 23.4757 52.1071 25.0809C52.298 26.5868 52.2222 28.4835 52.7416 28.3011C53.0676 28.1869 53.7562 26.7857 55.191 25.0933C54.6504 27.845 53.8475 31.7652 53.146 35.2836C52.7038 35.5527 52.0717 36.0045 51.592 36.2888C51.5766 36.3931 51.5457 36.4945 51.5003 36.5894C51.475 36.642 51.509 36.7122 51.548 36.7737C51.8667 36.7536 52.4603 36.5349 52.8984 36.5268C52.4011 39.0419 51.9833 41.2334 51.7934 42.4628C51.1673 46.5066 51.189 49.1087 51.4765 50.1611C51.764 51.2134 52.4498 49.8133 53.6061 47.9396C54.7624 46.0658 55.6682 45.0503 55.9126 44.0485C55.9989 43.6968 56.4492 41.5053 57.0428 38.5194C60.2256 40.7834 65.4048 44.6674 68.3206 47.0216C69.6328 48.0806 71.1545 49.2815 72.6573 50.4166C72.0606 52.3701 71.713 52.3459 71.713 52.3459C71.7044 52.8629 71.8106 53.3752 72.0238 53.8447C72.3692 54.5462 73.9115 54.042 75.7751 53.6386C75.9954 53.5909 76.2093 53.4132 76.4207 53.1175C78.0342 54.1909 79.3017 54.8767 79.7703 54.7662C80.6378 54.561 79.8515 52.669 77.6671 50.0045C78.4759 47.1849 79.3521 42.8171 80.495 37.1984C81.3951 36.1087 82.1715 34.9195 82.8097 33.6533C82.8097 33.6533 95.0452 43.3802 96.5992 44.608C98.1531 45.8357 99.4205 46.2267 101.041 46.5396C102.662 46.8525 104.87 48.0031 105.52 48.1742C106.17 48.3454 106.478 48.076 104.311 45.2494ZM60.3299 20.8332C64.4317 18.173 70.3632 14.9544 71.6697 17.9484C72.3686 19.9345 67.5037 24.7038 64.9865 26.7039C63.3462 28.0082 61.7074 29.5662 58.3305 31.9231C59.1085 27.8614 59.8829 23.6574 60.3299 20.8332Z" fill="white"/>
</svg>
