<?xml version="1.0" encoding="utf-8"?>
<!-- Generator: Adobe Illustrator 21.0.1, SVG Export Plug-In . SVG Version: 6.00 Build 0)  -->
<svg version="1.1" id="Layer_1" xmlns="http://www.w3.org/2000/svg" xmlns:xlink="http://www.w3.org/1999/xlink" x="0px" y="0px"
	 viewBox="0 0 864 864" style="enable-background:new 0 0 864 864;" xml:space="preserve">
<!-- <style type="text/css">
	.st0{fill:#FFFFFF;}
</style> -->
<g>
	<path class="st0" d="M316.6,332.4c0.3-0.1,0.5-0.4,1-0.5c0.8,2.7-0.7,8.1,1.6,8.9c-6.6,22.4-15.2,43.2-19.4,67.7
		c-1.9,2.3-0.3,6.7-2.6,8.8c-0.1,0.7,0,1-0.1,1.6c-3,10.2-3.3,22.6-6.8,33.2c-0.1,0.7,0.3,0.9,0.6,1.1c-1.3,5.4-3.1,10.8-3.2,17.2
		c-0.4,0.7-0.6,1.1-1,1.5c-0.1,1.6,0.7-0.5,1,0.4c-2.2,5.2-1.8,13.4-4,17.7c1.6,6.3-2.6,12.6-1.7,18.5c-0.1,1.6-1.5,2.8-1,4.3
		c-0.3,0.1-0.6,0.1-0.5,0.4c-0.1,0.7,0.5-0.1,0.5-0.4c0.3-0.1,0.3-0.1,0.5-0.1c-2,10.6-1.5,23.9-4,33.9c0.5,2.8-0.6,4.6,0.1,6
		c0.6,0.8-0.6,0.8-0.5,1.4c0.8,10.3-1,15.8-0.8,24c0.4,1.2-0.6,0.1-0.8,0.2c-0.6,1.1,0,3.8-1.6,4.5c-0.1-0.3,0.1-0.7,0.3-1
		c-0.7,0.5-1.1,1.2-1.7,1.3c0.6,1.1,1,0.4,1.4-0.3c0.7,2.4-0.3,3.9-1,5.3c-1,0.5-0.5-1.5-0.4-2.2c-1.2-0.1-0.1,1.6-1.4,1.2
		c-1.1-0.7,0.3-4.8-1.6-6.3c-0.4,1.7,0.2,2.5,0.4,4.1c-1.4-0.7-0.6,1.7-1.5,2.8c-0.7,0.5,0-1-0.8-0.8c-0.6,1.7,0.5,2.8,0.9,3.9
		c-0.6,0.8-1.4,2.2-2.4,0.8c-0.2,0.4-0.2,1.3,0.1,2.2c-1.9-0.6-0.7-1.4-0.4-3.1c-0.5-0.5-1.2,0.9-1,1.5c-1.9-2.5-6.8-0.2-8.3-3.1
		c1.5-0.9,2.1,2.1,3.2,0.9c-0.8-2.7-6.2-3.2-5-6.9c-3.2-3.8-1-11.9-3.7-17.1c0.9-3.7-0.6-7.8-0.1-11.8c1.5,1,1.1-1.2,1.8-1.7
		c-0.5-0.5-0.6-1.1-1.3-0.4c1.1-3.1,1.3-6.3,0.9-9.4c0.2-5.1,1.7-10.8,1.4-17.5c1.2-3.7,0.5-9,2.4-12.3c0.2-0.4-0.6-0.2-0.6-0.8
		c0.7-0.5,0.6-1.7,1.4-2.2c-0.3-1.9-1.2-2.9-0.8-5.6c0.6-0.1,0.6,0.8,0.4,1.2c0.6-0.1-0.1-1.3,0.7-1.4c-1.2-0.1-0.6-1.1-0.2-2.5
		c1.3-0.6-0.7,1.4,0.4,1.2c0.8-3,0.7-5.2,1.4-7.9c1.1,1.7-0.3,4.8-0.6,6.8c2.1-1.7,1.8-8.3,3.2-11.5c0.8,0.8-0.2,2.3-0.3,2.9
		c0.7,0.5,1.3-1.5,1.3-2.5c1.3,2.3-1.7,3.9-0.9,6.6c-0.3,0.1-0.8,0.2-1.1,0.2c-0.2,1.3,0,2.9-0.5,4.2c1.1-0.2,1.3-1.5,1.2-2.8
		c1.5,2.9-1.9,6.1-1.8,9.3c0.6,1.1,0.6-1.7,1.5-0.9c-0.3,2.9-3.1,2.2-2.8,5.3c0.3,0.9,0.4,0.2,1.1-0.2c0.8,5.6-0.7,14.1-1.7,20.4
		c0.6,0.8,0-1,0.9-0.8c0.3,1.9-1.7,2.9-1.6,4.5c1,1.4,0.2,5.4-1.7,5.8c0.1,1.3,0.4,1.2,0.1,2.2c0.9,0.1,0.3-1,1.2-0.9
		c0.2,1.6-1.8,3.6,0.3,3.8c-1,2.4-1.4,4.1-0.4,6.4c0.5-0.4,0.4-1.7,1.2-1.8c-0.3-0.9-0.8,0.2-1-0.4c1-1.5,0-5.7,1.7-6.1
		c0.6-1.7-0.9-0.1-1-1.4c2.9-0.9,2.6-5,3-8.3c0-1-0.7-0.5-1.1-0.7c0.7-1.4,1.2-2.8,1.7-3.9c0.1-9.3,1.4-17.5,3-25.5
		c0.3-3.9,0.2-8,1.5-11.4c1.8-16.3,4.4-32.4,8.1-48.1c-0.4-4.1,1.7-7.7,1.2-11.4c2.3-7.8,4-16.7,5.2-25.9c-0.8,2.1-1.1,4-2.7,5.6
		c0.8-1.1,1.6,6-1.3,6.3c0.6-1.1,0.7-2.4,0.9-3.7c-3.4,5.2-1.8,11.5-4.4,17.1c-0.3,0.1-0.2-0.6-0.5-0.5c-1.8,2.6-0.6,8.7-3.7,10
		c-0.1,0.7,0.9,0.1,0.4,1.2c0.8-0.2,0.7-1.4,0.9-1.8c-1.3,11.1-3.6,23.7-6.3,35c-0.6,0.1-0.2-0.6-0.7-0.5c1-3.4,2.4-7.5,1.2-11.4
		c-0.7,0.5-0.1,3.5-1.5,2.8c1,3.3,0.1,8.9-1.9,9.9c0.9-2.7,1.3-6.3,1.9-9c-0.6,0.1-0.1,1.6-0.6,1.7c0.7-10,3.5-20.1,5-30.6
		c-5,8.7-9.6,18.2-12.7,28.4c-0.7,0.5-0.9,0.8-1.7,1.3c-7.4,21.9-16.1,42.1-23.4,64c-1.2,6.6-3.6,11.2-5.4,16.7
		c-2.2,1.4-3.1,3.2-5.9,2.8c-0.7,0.5,0.5,0.5,0.1,1.3c-0.6-0.2-1,0.5-2.2,0.5c-0.5,0.4-0.2,1.3-0.8,2.1c-2.1,0.8-2.1,2.7-4.3,3.1
		c-3.9-0.5-7.2-2.3-9.4-5.7c0.8-3-1.3-4.2-2.4-5.9c-0.6-5-1.6-8-3-11.8c-2.6-13.2-3.1-30.2-5.8-44c-0.6-14.5-2.9-27.7-4.6-41.7
		c-0.7,1.4-0.8,4-1.5,5.7c0.1,1.3,0.6,2.1,0.7,2.4c-5.7,23.5-11.8,43.8-18,66.4c0.2,2.5-0.8,4-1.7,5.8c0.1,0.3,0.3,0.9,0.7,0.5
		c-1,2.4-3.2,5.8-2,8.7c-3.2,2.9-2,9.6-5.1,12.2c0.4,1.2-0.1,1.6,0.3,2.8c-0.9-0.1-0.9-0.1-1.7,0.3c0.2-1.3,0.3-3.9,0.6-5.5
		c-1.6,3.5-2.7,10.4-3.1,14.7c-0.8,2.1-2.1,3.6-2.6,5.9c-0.1,0.7,0.2,0.6,0.7,0.5c0,1-1.8,0.7-1.7,2.2c0.6,1.1,0.8-0.2,1.6,0.3
		c1.7-3.9,2.2-8.1,4.7-11.5c-1.4,8.9-4.8,19.8-6.1,28c0,1-0.7,2.4-1.8,2.6c1.1,1.7,0,1.9,0.2,4.4c-1.7,2.3-2,6.8-4.2,7.2
		c3.4-9,6.1-19.4,7.3-29.8c-0.8-0.8-1.8-0.3-2.1,0.8c-0.8,0.2,0.7-3.3,1-4.3c0.1-2.6,0-3.8,0.5-6.1c-1.1,0.2-1.6,2.5-0.9,2.7
		c-2.2,7.1-3,15-5.3,20.8c0.3,1.9-0.8,2.1-0.2,3.2c-1.3,1.5-1.6,3.5-1.7,5.8c-0.9-0.1-0.6,1.1-1.1,1.2c-0.3,3.9-2,9.6-3.5,13.5
		c-0.3,0.1-0.8,0.2-1.1,0.2c-1.8,4.5-5.3,7.5-7.3,12.3c-3.6,1.7-6.8,0.8-8-3.1c1-0.5,1.2-1.8,1.8-2.6c0.4-13.1,3.4-24.3,6.2-36.3
		c0.1-2.6-0.1-5.1,1.2-6.6c-0.2-0.6-0.7-0.5-0.5-1.5c2.5-7.2,2.7-16.1,4.6-23.2c0.2-7,3.4-11.8,3.3-18.8c1.2-0.9,0.8-2.1,0.8-3
		c0.8-2.1,0.7-4.3,1-7.2c2.3-6.8,3.1-15.6,6-22.6c4.6-22.3,10.6-42.9,16.3-64.5c0.6-1.1,0.7-3.3,1.8-4.5c-0.2-0.6-0.1-1.3-0.3-1.9
		c1.1-2.1,2.1-4.6,2.4-7.5c3.9-7.5,5.2-17.3,9.1-24.8c1.6-2.5,3.9-4.3,4.4-7.6c1.5-0.9,1.3-2.5,2.8-3.1c0-1-0.8-0.8-0.2-1.6
		c5.1-2.3,8.8,0.1,11.7,2c4.5-0.6,7,1.7,8.6,5.2c5.3,4,4.9,17.1,6.2,26.1c-1.2,6.6,0.9,13.5-0.8,20.2c-0.3,4.8-1,9.1,0,13.4
		c-0.7,7.2,0.7,12.9-0.7,18.9c0.2,1.6-0.1,1.6,0.5,2.5c0.3-0.1,0.5-0.4,1-0.5c-0.1,0.7-0.6,0.8-1.2,0.9c0.4,14.6,1.3,27.1,1.4,39.2
		c1.7-2.9,3-6.4,4-10c1-0.5,0.7-0.5,1.4-0.3c-0.6-1.1-0.1-3.2,1.3-3.4c11.9-31.7,26.1-61.1,38.6-92c0.9,0.1-0.4,1.7,0.5,1.8
		c10.7-22.6,21.4-45.8,34.4-66.6c-0.2-0.6-0.3-0.9-1.1-0.7c1.7-3.9,7.2-6.2,5.4-11.9c1.6-0.6,1.8-2.6,3.2-1.9c1.7-1,0.8-4.9,3.7-4.3
		c0,1,0.8,0.8,0.3,1.9c1.3-0.6,1.6-2.5,2-3.9c0.7,1.4,2.2-0.5,2.7,2c0.7-1.4,1.5,0,2.6-2.1c1.8,0.3,1.5,3.8,3.1,4.5
		c-1.8,1.7-0.3,2-0.9,3.7c1.4-0.3,0.3-2,0.9-2.7c0.5-0.1,1.1-0.2,1.7-0.3c-0.4,1.7,0.7,1.4,1.6,1.6
		C316.2,330.2,315.5,331.6,316.6,332.4C315.7,332.5,316.7,333.6,316.6,332.4z M150,580.9c-0.4,1.7-1.3,1.5-1.7,3.2
		c-1.2-1,1.3-2.5,1.5-3.8C150.1,580.2,149.9,580.6,150,580.9z M152.2,583.3c-0.4,0.7-0.8,1.1,0.1,1.3
		C151.8,584,152.9,583.5,152.2,583.3z M151.7,564.3c0.7,0.5,1.1-1.2,0.6-1.1c-0.2,0.4-0.2,0.4-0.5,0.4
		C151.6,564,151.6,564,151.7,564.3z M150,487c-0.3,0.1-0.2,0.4-0.2,0.4c-0.3,0.1-0.5-0.5-0.3-0.9C150.1,486.3,149.9,486.7,150,487z
		 M159,557.7c-0.8,1.1,0.1,3.2-2.2,3.3c-0.5,0.4,0.1,2.2-1,2.4c-0.3-2.8,1.2-3.7,1.7-6.1C158.5,556.9,158.3,558.2,159,557.7z
		 M157.1,562.9c0.2-0.4,0.6-0.8,1.2-0.9C158.1,562.4,157.6,562.8,157.1,562.9z M158.1,551.8c0.2-0.4,0.9-0.8,0.8-1.1
		c-0.3,0.1-0.5,0.1-0.8,0.2c0.1,0.3,0.1,0.3-0.1,0.7C157.8,551.9,157.8,551.9,158.1,551.8z M160.5,556.8c-0.4-0.2,0.1-0.7,0-1
		C161.1,556,160.7,556.4,160.5,556.8z M160.8,552.9c0.2-0.4-0.4-1.2,0.6-1.1C161.5,552.4,161.3,552.8,160.8,552.9z M162.2,547.2
		 M162.4,545.9 M163.3,540.3 M164.4,538.1c-0.6,0.1-0.1-1.3,0.6-1.1C165.1,537.4,164.3,537.8,164.4,538.1z M251.6,553.3
		c-0.6,0.1-0.5-0.5-0.3-0.9l0.3-0.1C251.8,552.9,251.8,552.9,251.6,553.3z M251,550.5c0.5-0.4-0.1-1.3,0.8-1.1
		C251.7,549.8,251.7,550.7,251,550.5z M252.3,565.2c0.7,0.5,1.1-1.2,0.6-1.1c0.1,0.3,0.1,0.3-0.2,0.4
		C252.2,564.9,252.2,564.9,252.3,565.2z M254.8,559.9c-0.7-0.5-0.5,0.4-0.9,0.8c-0.7-0.5-0.7-2.4-1.7-2.8c0.4,2.2,0.8,2.7,0.5,4.7
		C253.7,562.1,254.3,561.3,254.8,559.9z M253.8,552.8c-0.2,0.4-0.6,0.8-0.6,1.7C254,554.7,254.4,553,253.8,552.8z M254.2,556.2
		c-0.4,0.7-1.3,2.5-0.5,3.3C254.2,559.1,255.8,556.5,254.2,556.2z M253.8,555.7c0.2-0.4,0.1-0.7-0.5-0.5c0.1,0.3,0,1,0.3,0.9
		C253.6,556,253.5,555.7,253.8,555.7z M252.3,538.5 M254.1,552.1c-0.1-0.3-0.1-0.3,0.1-0.7c-0.3,0.1-0.4-0.2-0.9-0.1
		c-0.1,0.7,0.1,1.3,0.4,1.2C253.6,552.2,253.9,552.2,254.1,552.1z M253.1,546.9c0.1,0.3-0.1,0.7,0.1,1.3
		C254,548.6,253.7,546.8,253.1,546.9z M254,539.1c-0.3,0.1-0.5,0.1-0.8,0.2c-0.2,0.4,0,1,0.1,1.3C254.1,540.4,254,540.1,254,539.1z
		 M255.1,552.2c0.2,0.6-0.7,0.5-0.7,1.4C255.2,553.8,255.7,552.4,255.1,552.2z M254.8,546.6c0,1,0.4,1.2,0.2,2.5
		C255.9,549.2,255.2,546.8,254.8,546.6z M256.1,566.3 M256.5,568.5 M255,531.9c0.1,1.3,1.5,0,1-0.5C255.9,531.1,255,531.9,255,531.9
		z M258,557c-0.4-0.2-0.7-0.5-0.6-0.8c0.8-0.2-0.4-1.2-0.8-0.8c0.1,2.2-0.3,2.9,1.2,3.9C257.4,558.1,257.9,557.7,258,557z
		 M257.5,561.3c0.1,0.3-0.1,0.7,0,1C258.5,562.7,258.3,560.8,257.5,561.3z M255.3,526.4 M256.5,545.6 M249.9,434.9 M255.7,508.5
		 M258.4,546.8 M257.3,525 M259.6,543.3c-0.1,0.7-1,0.5-0.5,1.4C260.1,544.8,260,543.6,259.6,543.3z M254.7,463.8
		c0.1,0.3-0.4,0.7,0.3,0.9C254.8,464.4,255.3,464,254.7,463.8z M258.2,520.4 M259.2,502.7c-0.3,0.1-0.4-0.2-0.9-0.1
		c0.4,1.2-1.3,3.4-0.3,3.9C258.1,504.8,259.1,504.3,259.2,502.7z M252.4,418.2 M258.2,507c0.1,0.3-0.6,0.8,0,1
		C258.1,507.7,258.8,507.2,258.2,507z M257.7,498.5 M262.2,559.4c0-1,0.5-1.4,0.3-2c-0.3,0.1-0.3,0.1-0.6,0.1
		c0.4-3.6,1.4-7.9,0.4-11.2c0.2,4.4-1.2,7.6-0.4,11.2C261.5,557.9,260.8,559.6,262.2,559.4z M262.4,560c-0.6,0.8-0.6,3.9,0.5,4.4
		C262.6,563.4,263,561.1,262.4,560z M257.9,495.6 M259,510.7c0.6-0.1,1.1-0.2,1.5,0c-0.5,0.4-0.6,1.1-0.7,1.4
		C259.9,510.8,258.8,511.7,259,510.7z M259.8,512.1c-0.2,0.4-0.2,0.4-0.5,0.4C259.3,512.5,259.5,512.2,259.8,512.1z M260.6,486.2
		c0.7,2.4-1.3,5.4-1.5,7.6c-1.6-1.3,0.6-4.9,0.6-7.5C260.1,486.3,260.3,486.2,260.6,486.2z M264.8,591 M260.5,518.3
		c-0.1-0.3,0.2-0.4,0.4-0.7C261.2,517.9,261.3,519.1,260.5,518.3z M265.8,588.2c-0.3,0.1-0.6,0.1-0.8,0.2c0,1,0.4,1.2,1,1.4
		C266.3,589.1,265.5,589.2,265.8,588.2z M263.5,541.6c-0.3,0.1-0.6,0.1-0.8,0.2c0,1-0.3,2,0.6,2.1
		C263,542.7,263.8,542.5,263.5,541.6z M264.7,533.1c1.1-0.2,1.3-1.5,0.6-2.7c-1.2-0.1-0.4,1.7-1.6,1.6c-0.9-2,1.5-6.7-0.2-8.2
		c0.1,6-2,11.6-0.6,16.3C264.2,538.3,264.1,535.7,264.7,533.1z M260,486c-0.9-1.1,0.9-2.7,1-4.3C262.3,482.3,260.2,485,260,486z
		 M261.3,495.2c0.2,0.6-0.1,0.7-0.2,1.3C260.3,496.7,260.4,495.1,261.3,495.2z M261,480.7c-0.3,0.1-0.2,0.4-0.2,0.4
		c-0.3,0.1-0.5-0.5-0.6-0.8C260.8,480.1,260.9,480.4,261,480.7z M264.6,517.5c-0.6,2-0.3,3.9-0.9,5.6
		C265,522.5,265.8,518.5,264.6,517.5z M266.8,540c0.2-0.4-0.2-0.6-0.6-0.8c-0.5,1.4-1.5,1.9-1.3,3.4
		C266.3,542,266.6,541.3,266.8,540z M262.3,488.7c-0.6,0.1-0.3-0.9-0.4-1.2C262.7,487.3,262.3,488.7,262.3,488.7z M263.1,502.8
		 M262.2,486.5 M263.2,498.4c0.2-0.4-0.1-1.3,0.8-1.1C263.5,497.7,264.1,498.5,263.2,498.4z M263.3,485.3c-1.3-0.4-0.1-3.2,0-4.8
		c0.6,0.2,0,1.9,0,2.9c0.6-0.8,1.2-1.8,1-3.4C265.6,481.3,263.6,483.6,263.3,485.3z M266.9,552.7 M263.6,492.2 M266.5,537.1
		c0.7,0.5,1.1-1.2,0.6-1.1c-0.2,0.4-0.2,0.4-0.5,0.4C266.4,536.8,266.4,536.8,266.5,537.1z M276.2,473.1c-0.9-2-0.1-3.2,0.3-5.8
		l0.3-0.1c0.2-0.4,0-1,0.1-1.6c-0.9-0.1-0.6,1.1-0.4,1.7c-1.7,0.3-0.1,3.5-1.7,3.9c0.8-6.9,3.7-10.9,3.7-17.6
		c1.4-0.3,0.6-2.7,1.5-3.8c-0.2,0.4-0.1,0.7,0.2,0.6c0.9-1.8,1.4-5.1,1.1-6.9c0.1,0.3-0.4,1.7-0.6,0.8c0-1,0.6-1.7,0.6-3
		c0.6,0.2,0.7,0.5,1.3,0.4c-0.5-1.5-2.1-1.2-1.8-3.1c-2,0.1,0,4.8-2,3c-0.2,1.3,1,0.4,0.5,1.5c0.9,0.1,1-1.5,1.3-0.6
		c-0.5,2.3-2.7,4.7-1.4,7c-2.4,0.8-0.6,5.5-3.4,6.1c-0.6,4.6-5,7.4-3.2,13.4c-1.3,2.5-1.9,5.2-1.1,7.9c-1.4,4.1-2.2,9-3.3,13.1
		c0.1,9.9-2.5,17.7-2.4,26.6c1.3-6.3,2.9-12.7,3.8-19.2c0.7,1.4-0.5,3.3,0.3,5.7c2.2-4.3,3.1-8,3.1-13.7c0.8-0.2,0.7,0.5,1.1-0.2
		c-0.4-6,2.3-9.7,0.7-14.8c0.1,0.3,0.2,0.6-0.1,0.7C274,472.6,275.6,473.9,276.2,473.1z M270.3,589.8 M264.7,487.2
		c0.4-0.7,0.6-2,0.8-3C266.1,485,265.6,487.1,264.7,487.2z M268,522.8c-0.9,2.7-0.1,5.4-0.6,8.7C269.2,529.6,268.1,525,268,522.8z
		 M264.9,488.8 M270.4,552.6c-0.8,0.2-0.6,0.8-1,1.5C270.2,553.9,270.6,553.5,270.4,552.6z M263.7,462 M264.5,465.3
		c0.2,0.6,0.4,1.2,0.6,1.1c0-1,0-1.9,0.3-2.9c-0.8,0.2-1.9,1.4-1.2,1.8C264.2,465.4,264.4,465,264.5,465.3z M271.4,575
		c0.3-0.1,0.6-0.1,0.5-0.4C271.6,574.6,271.3,574.7,271.4,575z M272.7,585.2c-0.1-0.3-0.1-0.3-0.2-0.6c-0.3,0.1-0.3,0.1-0.5,0.1
		c0.1,0.3,0.1,0.3,0.2,0.6C272.5,585.3,272.5,585.3,272.7,585.2z M269.9,548.2c-0.1,0.7,0.1,1.3,0.4,1.2
		C270.5,549.1,270.9,547.7,269.9,548.2z M265.9,481.6c-0.1-0.3-0.2-0.6,0-1C266.7,480.1,266.7,482.1,265.9,481.6z M264.8,462.7
		 M270.3,537c-0.3,1-0.5,1.4-0.7,2.4C270.2,539.6,271.8,537,270.3,537z M269.4,513c-0.6,1.1-1.3,1.5-1,3.4
		C269.4,515.9,270.1,513.5,269.4,513z M270.6,543.6c0.1,0.3-0.1,0.7-0.2,1.3C271.2,544.8,271.4,543.5,270.6,543.6z M273.7,590.1
		 M271.6,528.8c-0.4,1.7,0.3,3.8-0.5,5.2C272.5,533.7,272.5,529.9,271.6,528.8z M268.9,490.5 M275.3,576.4c-0.9-0.1-0.6,1.7,0.2,1.6
		C275.7,577.6,275.5,577,275.3,576.4z M276,573.7c-0.8-0.8-1.7,1.3,0.2,0.6C276,574,276,574,276,573.7z M272.4,521
		c-0.4,0.7-0.4,1.7-0.3,2.9C273.3,524,272.8,521.2,272.4,521z M272.5,519.4 M268.5,446 M271.4,486.2c-0.7-0.5-0.2-2.5,0.1-3.5
		C272.3,482.5,271.5,485.5,271.4,486.2z M275,502.6c0.4-0.7,1.5-1.9,0.5-2.3c-1.3,5.4-1.5,10.5-2.4,17
		C274.7,513.2,275.1,506.7,275,502.6z M269.7,439.4 M273.5,486.4c-0.5,0.1-0.7-0.5-0.9-1.1C273.4,484.8,273.4,485.8,273.5,486.4z
		 M272.7,484.6c1.4-3.1,1.4-6,1.7-9.9C272.8,477.3,273.2,481.3,272.7,484.6z M271,443.6c-0.9-0.1,0.2-1.3,0.3-2
		C272,442.1,270.8,443,271,443.6z M276,497.3c-1.1,0.2-1.8,2.6-0.5,2.3C275.2,498.4,276,498.3,276,497.3z M271.7,438.4
		c-0.4-0.2-0.3-1.9,0.6-1.7C272.7,437.5,271.8,437.7,271.7,438.4z M272.5,439.8c0.1-0.7,0.3-1,1.1-1.2
		C273.5,439.3,273.4,439.9,272.5,439.8z M274.9,472.7c-0.6-0.2-0.2-0.6-0.3-0.9C275.3,472,274.8,472.4,274.9,472.7z M276.8,489.5
		c0.2,0.6-0.9,1.8-0.3,2C276.7,490.8,278,489.6,276.8,489.5z M274.8,461.9 M276,460.1c-0.9-0.1,0.1-0.7-0.2-1.6
		C276.4,458.4,276.3,460,276,460.1z M276.8,445.3c0.7,3.4-2.3,7.8-0.6,9.4c1.1-3.1,2.2-8.1,1.8-11.5c0.2,0.6-0.5,0.4-0.6,0.8
		C276.8,444.3,277.3,445.2,276.8,445.3z M275,425.9c0.7-1.4,1.2-2.8,1.6-4.5C277.9,422.1,276,426.3,275,425.9z M281,501.4
		 M281.7,491 M279.6,448.8c0.2-1.3-0.1-1.3,0.4-2.6C280.9,446.3,280.5,449,279.6,448.8z M280.5,430.5c-0.1,0.7-0.6,1.1-0.3,2
		c1-0.5,0.8-3-0.2-2.5c0.3-1,0.3-1,0.9-0.8c-0.4-2.2,1.2-2.8,0.8-4.9c-2.6,1.2-1.5,5.7-3,8.3C279.9,432.5,279.4,431,280.5,430.5z
		 M281.3,458c0.1,1.3-0.9,1.8-0.5,3.3C281.5,460.8,282.1,457.9,281.3,458z M284.8,446.8c-0.9-1.1,1.1-5-0.2-5.4
		c-1,5.3-1.2,10.4-2.9,15.2C283.6,454.4,283.6,450.2,284.8,446.8z M282.5,419c0.1-1.6,1.2-3.7,0.6-4.9c0,1-0.4-0.2-1.1,0.2
		c0.6,2.1-1.5,4.8-0.4,5.5C281.6,418.8,281.7,418.2,282.5,419z M283.1,411.5c-0.4,0.7-0.2,1.3,0.2,1.6
		C283.2,412.8,283.7,411.4,283.1,411.5z M285,421.6c-0.3,0.1-0.3,0.1-0.6,0.1c-0.1,0.7,0,1,0.5,0.8C285,422.3,284.9,422,285,421.6z
		 M286.2,436c-0.1-0.3-0.2-0.6-0.7-0.5c0.1,0.3,0.3,0.9,0.6,0.8C286,436.4,286,436.1,286.2,436z M286.7,428.9
		c-0.9,0.8-0.2,3.2-0.5,4.2C287,432.7,287.6,429,286.7,428.9z M286.8,406.3c-0.6-0.2-0.7,1.4-0.2,1.3
		C286.4,407,287.4,407.1,286.8,406.3z M289.8,448.6c-0.6,0.1-1,0.5-0.9,0.8C289.4,449.4,289.6,449,289.8,448.6z M308.5,321.3
		c0.1,0.3,0.1,0.3,0.2,0.6c-0.3,0.1-0.3,0.1-0.6,0.1c-0.1-0.3-0.1-0.3-0.2-0.6C308.2,321.3,308.2,321.3,308.5,321.3z M310.1,326.4
		c0.8-0.2,0.7-0.5,0.7-1.4c-0.5,0.1-0.8,0.2-1,0.5C309.7,326.1,309.7,326.1,310.1,326.4z M314.9,337.5c0.9,1.1,2.2-1.4,0.8-1.1
		c0.1,0.3-0.2,0.4-0.5,0.4C315.1,337.1,315.1,337.1,314.9,337.5z M317.7,337.9c-0.1-0.3-0.1-0.3-0.2-0.6c-0.3,0.1-0.3,0.1-0.5,0.1
		c0.1,0.3,0.1,0.3,0.2,0.6C317.4,337.9,317.4,337.9,317.7,337.9z"/>
	<path class="st0" d="M407.8,413.4c-2.8,1.2-0.8,4.5-1.9,7.1c-1.1-0.3,0.2-1.4-0.3-1.9c-2.7,3.4-3.1,9.1-6.3,13.2
		c1.3,5.8-3.8,10.9-3.9,15.5c-1.7,0.8-0.8,3.5-2.3,4.9c0.1,0.3,0.2,0.6,0.4,1.2c-2.2,3.2-2.1,8.4-5.1,11.9c1,2-2.3,4.9-1.4,7.6
		c-1,2.9-2.3,5.9-2.7,9.6c-2.9,5.8-3.8,11.9-6.8,17.6c-0.9,7.1-4.5,12.7-6.8,19.6c-0.6,0.2-0.7,0.9-1.6,1.1c0.3,3.8-3.6,7.6-4.4,12
		c0,0,0,0-0.3,0.1c0-1-0.3-0.9-0.7-1.1c-0.3,0.1-0.2,0.4-0.7,0.9c0.1,0.3-0.1,1.7,0.7,1.1c-0.3,2-1.9,0.2-1.8,1.5
		c0,0-0.3,0.1-0.6,0.2c-0.5,0.5,0.1,0.3,0.6-0.2c0.8,1.4-2.3,1-2.2,0.3c-1.4,0.7-0.9,3.2-1.8,4.4c-0.9,0.3,0.1-1.7-1-1
		c-0.3,1.1,0.2,1.6,0.2,2.5c-0.7-0.1-1.3,0.1-0.5,0.5c-1,0.9-1.2-0.6-2,0.9c-0.2-0.6-0.3-0.9-0.4-1.2c-0.4-0.2-0.8,1.5-0.1,1.7
		c0,1-0.6-0.8-1.3,0.1c-0.8,0.6,0.2,0.6-0.1,1.7c-0.9-0.7-1.4,0.7-2.4,0.4c-0.5,0.5,0.5,0.5,0,2c-1.2,0.3-1.4,1.7-0.8,2.5
		c-1.1,0.6-0.3-1.9-1.1-1.3c-1.3,0.1-0.3,1.1-0.1,1.7c-4.8,3-9.7,3.8-14.1,4.2c-0.2-0.6,0-1,0-1c-4.2-1-8.8,0.7-10.8-3.6
		c0.3-0.1,0.6-0.2,0.6-0.2c-0.2-0.6-0.7-0.1-0.6,0.2c-1-1-2.8-1.8-1.9-4c-0.8-0.4-0.8-2.4-0.4-3.1c-0.9-1.7-1.9-2.7-2.9-4
		c0-1,0.6-2.1,1.1-2.6c-1.2-6.5-0.8-14.1-3.2-19.5c0.7-2.8,0.4-6.6-1.5-7.7c1.5-8.2-0.6-13.5-0.4-21c-0.5-2.5-1.7-5-0.5-7.3
		c-0.3-0.9-0.4-2.2-1.4-2.2c2-13.6-2-24.8-0.3-35.4c0.1-0.7-0.7-0.1-0.5-0.5c0.1-10.4-0.9-16.6-1.5-25.2c0.1-6.5,0.8-16.2,0.3-22.5
		c0.7-0.9,1.5-1.4,1.6-2.1c0-1-0.2-1.6-0.1-2.2c1.1-1.6,2.7-0.5,2.8-2.1c0.6-0.2,0.3,0.9,0.9,0.7c1.1-1.6,1.9-3.2,2.3-4.9
		c1,0-0.4,1.7-0.5,2.4c0.7,0.1,1.7-0.8,2.2,0c0.9-1.2,1.2-2.3,2.5-3c3.7-0.5,8.1-0.8,12.7-1.5c0.8,0.4,1.3,0.9,2.4,0.6
		c-0.7,1.8,0.4,1.2,1.1,2.3c0.3,0.9-0.8,0.6-1.1,1.6c0,1,0.5,1.5,1.2,1.6c-0.7,6.7-2.5,16-1.3,24.5c-0.4,1.7-0.5,3.4-1.1,5.5
		c1.5,4.4-0.4,9.6,0.9,13.7c-0.4,0.8-1,0.9-1.4,1.7c1.6-0.1,1,3.9,0.1,5.2c0.7,0.1,0.6,0.8,0.8,1.4c0.1,4.2,0.2,9.4,0.6,13.5
		c-0.5,1.4-0.5,3.4-0.6,5.1c0.4,4.1,1,4.9-1.4,8.5c1.7,4.1-1.1,7.5,0.9,11.5c0.3,0.9-1.1,0.6-0.7,1.8c1.8,1.4,0.4,4.1,1.8,6.6
		c-0.4-0.2-0.6,0.2-1,0.9c0.6-0.2,0.8-0.6,1-0.9c0.6-0.2,0.7-0.9,0.1-0.7c0.9-1.2,0.9,1.7,1,3c-0.3,0.1,0.1,0.3,0,0
		c0.7,0.1,0.5,2.5-0.4,2.7c1.4,0.2,0.3,2.8,1.3,3.9c-1.6,4-1.3,8.8-0.6,12.9c-0.3,0.1-0.6,0.2-1.2,0.3c-0.4,0.8,0.2,0.6,0.3,1.9
		c0.2-0.4,0.8-0.6,0.4-0.8c1.1,0.3,1.1,3.3,1,4.9c0.6,0.8,1.4-0.7,0.7,1.1c1.3-1,1.1-1.6,2.1-1.6c-0.4-2.2-0.1-4.2,0.8-5.4
		c1.2-0.3-0.3,1.1,0.9,1.7c7.7-14,12.4-30,18.2-44.7c0.1-0.7-0.3-0.9-0.1-1.3c3-2.5,2.3-7.8,4.9-10.6c-0.3,3-0.3,4,0.5,6.4
		c-0.6,0.2-0.8-0.4-1.6,0.1c0.1,1.3,1.6-0.1,1.3,1.9c-2.1-0.7-2.4,2.4-1.2,4.3c2.1-3.5,2.2-9.1,4.7-12.1c0,1-0.6,1.1-0.7,1.8
		c0.2,0.6,1,0,1.2,0.6c0.8-1.5,0.3-4-0.8-4.3c1.2-1.3,1.5-3.4,1.8-4.4c0.7,2.1-1.2,5.2,0.3,6.7c0.3,1.9-0.9,6.1,1,6.9
		c3-4.5,1.6-8.9,3.4-13.4c-0.4-1.2-1-1-1.9-0.8c-0.6-4.7-0.3-9.7,2.9-12.9c0-1-0.4-1.2-0.4-2.2c1.2-0.3,0.2,2.5,1,3
		c-1.7,2.8-0.9,5.1-1.4,7.6c-1,0,0.1-1.7-0.9-1.7c-1.7,1.8,1.3,2.9-0.1,4.6c0.3,0.9,1.3,0.9,2,1c-0.5,0.5-0.2,2.3,0.2,2.5
		c1.3-1,1.9-3.2,0.9-3.2c1.2-1.3,1.8-2.5,1.6-4c1.6-0.1,1.3-1,2.3-0.7c2.7-3.4,0.7-7.7,1.1-10.4c1.2,0.6,0.4,4.1,2.4,3.5
		c0.8-1.5,1-2.9,1.6-4c0-1-2.1-1.3-0.8-2.4c0.1,0.3,0.2,0.6,0.6,0.8c0.6-0.2,0.4-1.7-0.6-0.8c0.1-0.7-0.2-0.6,0-1
		c2.2-9.1,3.9-19.4,9.7-26.3c-0.3-0.9-0.3-1.9-0.2-2.5c1.8-4.4,3.5-8.9,4.8-13.8c-2.9,1.8-3.4,6.2-5.1,9c-1.3-4.8,3.2-9.7,4.2-14.6
		c0.6-0.2,0.3-1.1,1.3-1c0.4-5.6,3.6-10.5,4.1-14.9c0.5-0.5,0.4-0.8,1.1-0.6c0.3-1.1-0.9-2.7,0.4-2.7c0.2,0.6,0.7,0.1,1.1,0.3
		c0-1-0.5-0.5-1.1-0.3c0.6-3.1,2.6-4.7,2.9-7.7c-1.4,0.7-1.6,3.1-3.4,4.3c1.6-3.1,1.1-5.5,3.6-7.6c0.5,0.5,0.4,2.2,0.1,3.2
		c2.4-2.6,3.7-7.3,3.5-11.8c4.4-2.3,3.1-9.1,7.3-11.3c-0.3-0.9,0.1-1.7-0.1-2.2c1.1-0.6,1.1-1.6,2.6-1.8c1.6-5,5.4-8.1,8.2-12.2
		c-0.3-0.9,0.5-1.4-0.4-1.2c1.4-2.7,3.8-4.1,5.5-5.9c1.8,1.4,0.7,5,0.3,7.7c-0.2,0.4,0.5,0.5,1.1,0.3c0.1,1.3-1.6,2.1-2.1,3.5
		c-0.2,0.4,0.4,0.2,0.7,0.1c-0.1,0.7-0.6,1.2-0.9,2.2c0.9,0.7,1.1,3.3-0.4,4.7c1.6,1.8,2.8,2.7,1.6,6c-0.2,0.4,0.4,0.2,0.8,0.4
		c-0.1,0.7-0.9,1.2-0.4,2.7c0.6-0.2,0.5-0.5,0.8-0.6c0.8-0.6-0.7-2.1,0.2-2.3c2.7,2.4-3.3,5.5-2.2,10.1c-1.3,1-1.7,3.7-1.8,6.4
		c-2.1,3.5-4.2,6.8-5.6,11.4c-0.3,0.1-0.2-0.6-0.5-0.5c-0.5,0.5-0.1,0.7-0.3,2c-0.5,0.5-0.4-0.2-1.2,0.3c0.2,3.5-3.1,6.1-2.3,9.8
		c-0.3,1.1-1.2,2.3-2.2,3.2c1.4,4.2-1.9,10-3.8,13.8c1.1-2.6,0.5-3.4,0.8-5.4c-2.4,2.4-2.4,5.6-4.2,8.7c0.5,0.5,0.6,1.8,1.1,2.3
		c-1.8,5.4-3.2,11-6.6,15.3c0.3-1.1,0.2-2.3,1.4-2.7c0.5-1.4-0.4-1.2-0.8-2.4c-1.6,3.1-2.4,6.6-2.8,11.2c0,0,0,0-0.3,0.1
		C407.7,414.1,407.9,413.7,407.8,413.4z M315.4,487.9 M316,483.9c1.8-0.5,0.8,1.4,0.1,2.2c1.1-0.6,1,0,1.4,0.2
		c-0.2-2.5,0.6-3.1-0.4-5.1c-0.7-0.1-0.9,0.3-1.1,0.6C316.2,482.5,316,482.9,316,483.9z M319.7,518.9c0.4-0.8,0.1-1.7-0.7-1.1
		c0.5,0.5-0.1,0.7-0.4,1.7C319.3,519.3,319.4,518.6,319.7,518.9z M319.8,508.1c-1.3-2.9,1.2-6.2-0.7-7.9c1.2-0.3,1.5-1.4,1.5-2.4
		c-1.1-0.3-1.6,1.1-2.7,0.5c0.2,4.5,0.8,7.3,0.6,11.5C320,509.7,318.5,508.2,319.8,508.1z M316.6,477.8 M318.8,511 M317.4,477.3
		c-0.1,0.7-0.5,1.4-0.4,2.7C317.9,479.7,317.7,477.2,317.4,477.3z M317.4,473.4c-0.7,0.9-0.3,2-0.3,3
		C318.4,476.3,318.1,473.5,317.4,473.4z M321.4,533.7 M322.1,534.8c0.2-0.4,0.1-0.7,0.1-0.7s-0.3,0.1-0.6,0.2c0,0,0.1,0.3-0.1,0.7
		C321.8,534.8,322.1,534.8,322.1,534.8z M322.6,528.4c0,0-0.5,0.5-0.8,0.6c0.1-0.7-0.1-1.3-0.6-0.8c0.2,0.6-0.1,1.7,0.6,1.8
		C321.9,529.3,323.2,528.5,322.6,528.4z M322.9,543.3c-0.1-0.3-0.2-0.6-0.2-0.6s-0.3,0.1-0.6,0.2c0,0,0.1,0.3,0.2,0.6
		C322.6,543.4,322.9,543.3,322.9,543.3z M323.6,548.3c-0.1-0.3-0.2-0.6-0.2-0.6s-0.3,0.1-0.6,0.2c0,0,0.1,0.3,0.2,0.6
		C323.3,548.4,323.6,548.3,323.6,548.3z M322.7,545.6 M322.4,540.8 M323.5,537.2 M324.7,548.6c-0.2,0.4,0.1,1.3,0.8,1.4
		C325.6,549.6,326,547.9,324.7,548.6z M325.1,541c0.1-0.7-0.1-1.3-0.6-0.8c0,0,0.1,0.3,0.2,0.6C325,540.7,325,540.7,325.1,541z
		 M325,545.6c0.2,0.6,0.3,0.9,1,1C326.4,545.2,325.8,545.3,325,545.6z M327.4,552c0.9-0.3,0.7-0.9,1.3-1c-0.2-1.6-1.3-0.9-0.5-2.5
		c-0.7-0.1-1.5-0.5-2.3-0.3c0,1,1,0,1.3,0.9C326.3,549.7,327.1,551.1,327.4,552z M325.4,537 M325.8,532.3c0.1,0.3,0.3,0.9,0.9,0.7
		C326.5,532.5,326.1,532.3,325.8,532.3z M327.1,549.2 M328.2,540.7c-0.3,0.1-0.6,0.2-0.9,0.3c0.2,0.6-0.1,0.7-0.2,1.4
		C328,542.1,328.3,541,328.2,540.7z M327.4,544.2c0.2,0.6,1.1,1.3,1.4,0.2C328.4,544.3,328,544,327.4,544.2z M318.6,387.8
		 M319.9,384.8 M331.5,547.9 M332.8,551.7 M331,514.9 M327.8,458.9 M339.7,553.3 M330.2,384.7c0.2-0.4,0.1-0.7,0.1-0.7
		s-0.3,0.1-0.6,0.2c0,0,0.1,0.3-0.1,0.7C329.9,384.8,330.2,384.7,330.2,384.7z M337.4,498 M336.3,461.3c-0.2-0.6-0.3-0.9-0.8-0.4
		c0.1,0.3,0.2,0.6,0.3,0.9C336,461.4,335.9,461.1,336.3,461.3z M342.8,553c-0.1-0.3,0.4-0.8,0.4-0.8s-0.3,0.1-0.6,0.2
		c0,0-0.5,0.5-0.4,0.8C342.5,553.1,342.8,553,342.8,553z M339.8,513.2 M340.1,514.1 M343.4,552.8 M341.2,516.4 M344,550.7
		c1,0,0.8-1.5,0.3-1.1c0,0,0.1,0.3-0.2,0.4C344.1,550,343.9,550.4,344,550.7z M341.9,506.8 M342.4,507.6 M342.4,507.6 M345.7,549.9
		c1.1-0.6,0.1,1.3,1,1C347.3,550,346.2,548.4,345.7,549.9z M346.4,549 M346.6,547.7 M347,550.1c0.3-0.1,0.6-0.2,0.6-0.2
		c0.1-0.7,0.3-1.1-0.3-0.9c0,0-0.2,0.4-0.5,0.5C346.9,549.5,347,549.8,347,550.1z M351.6,544.2 M354.4,541.1
		c-0.1-0.3-0.2-0.6-0.2-0.6s-0.3,0.1-0.6,0.2c0,0,0.1,0.3,0.2,0.6C354.1,541.2,354.4,541.1,354.4,541.1z M355,540
		c0.4,0.2-0.4,1.7,0.2,1.6C356.2,540.6,355.6,539.8,355,540z M352.6,486.4c0.4-0.8,0.6-1.1,0.4-1.7C354,484,353.4,486.1,352.6,486.4
		z M356.2,540.6 M353.9,476.8 M359.1,541.7c-1,0-0.5-1.5-0.1-1.3C359.5,540.9,359.2,541,359.1,541.7z M358.8,533.9 M361.3,536.8
		c-0.2,1.4-1.4-0.2-2,0.9c0.2-0.4,0.1-0.7,0-1C360.2,536.1,360.3,537.4,361.3,536.8z M360.3,538.4c0.1,0.3-0.4-0.2-0.6,0.2
		C359.8,537.9,360.2,538.1,360.3,538.4z M359.9,533.3 M362.4,533.2c-0.3,0.1-1,0-1,0.9C362,534,362.5,533.5,362.4,533.2z
		 M361.6,532.5 M363.1,530.4c-0.1-0.3-0.2-0.6-0.2-0.6s-0.3,0.1-0.6,0.2c0,0,0.1,0.3,0.2,0.6C362.8,530.5,363.1,530.4,363.1,530.4z
		 M363.9,533.7c0.1-0.7,0.3-1.1,0.7-0.9C364.4,533.3,364.5,533.6,363.9,533.7z M364.9,529.9 M366.7,511.8c-0.5,0.5-0.4,0.8-0.3,1.1
		C367.4,512.9,367.4,510.9,366.7,511.8z M365.7,480.2c-0.3,0.1-0.6,0.2-0.9,0.3c0.1,0.3,0.2,0.6,0,1
		C365.7,481.2,365.4,480.3,365.7,480.2z M369,458.1c1.3-0.1,0.5,1.5,0.8,3.3c0.9-0.3,1-0.9,0.8-1.5c0.7,1.1,0.8,1.4,0.9,3.6
		c-0.7-0.1-0.8-0.4-0.7-1.1c-1,0.9-1.1,0.6-1.7,1.8c0.2,0.6,0.9,0.7,1.5,0.5c-1,1.9-1.5,5.3-2.2,9.1c-0.7-0.1-0.8,0.6-1.7,0.8
		c0.7,0.1,0.4,1.2,0.4,2.2c-1.1-0.3-2-1-2.6-1.2c0.1-0.7,0.6-1.1,1.3-1c-1.1-1.3-0.6-1.8-0.4-3.1c1.3-0.1,1.1-1.6,2-0.9
		c-0.6,1.2-1,1.9-0.1,2.6c0.7-0.9,0-2.9,1.3-3c0-1-0.5-0.5-1.1-0.3c1.1-4.5-0.5-6.4,1.5-9.2c-0.4-0.2-0.8-0.4-1.1-0.3
		C368.1,459,369.3,459,369,458.1z M366.7,468.5c-1.1-0.3-1,1.9-0.3,2C366.7,469.5,367.2,469.3,366.7,468.5z M367.4,453
		c0.3-0.1,0.5,0.5,0.8,0.4c-0.1,0.7-1.8,0.5-2.2,0.3C366.5,452.3,367.7,453.9,367.4,453z M367.7,455.9c0,0,0.1,0.3-0.1,0.7
		c0,0-0.3,0.1-0.6,0.2c0.2-0.4,0.1-0.7,0.1-0.7C367.4,456,367.7,455.9,367.7,455.9z M379.9,416.5c0.9,4.6-2.5,6.3-2.8,11.2
		c-3.2,2.9-2,8.7-4.9,12.5c1,1-0.3,2-0.3,4c-0.6,0.2-0.4-0.2-1,0c0.5,0.5,1.5,2.5-0.7,2.8c0.7,1.1-0.1,1.7-1.5,2.4
		c0.9,0.7,0.2,1.6-0.4,2.7c0-1,0.1-2.6-1.2-2.6c1.7-0.8,2-1.9,1.8-3.5c1.8-3.4,3.1-6.1,3.1-10c1.4-1.7,2.1-3.5,1.6-5
		c4.3-4.5,4-12.3,7.3-17.1C381.8,414.6,380.7,415.9,379.9,416.5z M368.8,454.5 M372.8,446.9c0.1,0.3-0.3,0.1-0.5,0.5
		C372.2,447.1,372.5,447,372.8,446.9z M373.6,451.5c-0.3,0.1-0.7-0.1-1,0c0.2-0.4,0.5-0.5,0.4-0.8
		C373.3,450.6,373.7,450.8,373.6,451.5z M372.6,446.3c-0.1-0.3,0.1-0.7,0.1-0.7c0.3-0.1,0.2-0.4,0.2-0.4
		C373.4,444.8,373.6,446.3,372.6,446.3z M373.1,449.7 M376.7,492.2c-0.1-0.3-0.2-0.6-0.2-0.6s-0.3,0.1-0.6,0.2c0,0,0.1,0.3,0.2,0.6
		C376.4,492.3,376.7,492.2,376.7,492.2z M376.3,491 M374.7,448.9c0.1,0.3-0.3,0.1-0.5,0.5C374.1,449.1,374.4,449,374.7,448.9z
		 M376.8,451.2c-1,0-0.9,1.2-1.2,2.3C376.7,452.9,376.7,451.9,376.8,451.2z M378.5,494 M378.8,483.8 M377.5,443.5
		c0.1,0.3-0.4-0.2-0.6,0.2C376.7,443.1,377.4,443.2,377.5,443.5z M377.3,436.1c-0.8-0.4-1.2,1.3-0.5,1.4
		C376.5,436.7,377.5,436.7,377.3,436.1z M378,431.3c0.1,0.3-0.3,0.1-0.5,0.5C377.4,431.5,377.7,431.4,378,431.3z M378.2,433.9
		c-0.1-0.3-0.2-0.6,0-1C378.9,432.1,378.9,434,378.2,433.9z M380.1,458.4 M378.5,431.9 M383.6,476.9c-0.6,0.2-1.4,0.7-1.8,1.5
		C382.9,477.7,383.5,477.5,383.6,476.9z M379,428.5 M382,454.5c-1,0-0.9,1.2-1.2,2.3C381.6,456.3,382,455.5,382,454.5z M379.7,432.8
		 M381.8,443.9c-0.3,0.1-0.6,0.2-0.9,0.3c0,1-0.7,1.8,0.8,1.4C381.8,444.9,381.6,444.3,381.8,443.9z M380,423.9
		c0.1,0.3-0.3,0.1-0.5,0.5C379.5,424.1,379.8,424,380,423.9z M383.5,480.8 M380.5,430.3 M383.7,478.4 M384.6,446.6
		c-0.6,0.2-1,0-1.3,0.1c-0.2,1.4-0.1,3.6-0.9,5.1C384.8,451.1,383.9,448.5,384.6,446.6z M383.9,423.8c-1.8,0.5-2.3,2.9-1.9,5.1
		c-2-2,1.2-5.2,0.3-7.9c2.1-0.6,0.4-4.7,1.7-6.7C385.8,418,383.2,419.7,383.9,423.8z M384.3,442.8c-0.4-0.2-0.2-0.6-1,0
		c0.7,0.1-1.2,3.3,0.8,3.3C383.5,444.3,383.9,444.5,384.3,442.8z M382.2,412.9c-1-2,0.5-5.4,2.2-6.2c0.5-2.4,0.7-4.8,2.2-6.2
		c0.4-2.7,0.6-5.1,2.4-6.6C387.9,400.8,384.3,406.4,382.2,412.9z M386,473.5 M383.1,425.3 M383,413.3 M385.9,433.9
		c-1.6,0.1-0.9-2.7-1.4-3.2C385.8,430.7,385.5,432.7,385.9,433.9z M384.8,428.7 M388.1,437.8c-0.1-0.3-0.2-0.6-0.8-0.4
		c-1,1.9-1.1,2.6-1.7,4.7C387.7,441.5,387.6,439.2,388.1,437.8z M384.6,408.3 M387.2,405.5c0,0,0.1,0.3,0.2,0.6c0,0-0.3,0.1-0.6,0.2
		c-0.1-0.3-0.2-0.6-0.2-0.6C386.9,405.6,387.2,405.5,387.2,405.5z M386.5,403.4c0.2-0.4,0.2-1.4,0.9-1.2
		C387.3,402.9,387.1,403.3,386.5,403.4z M387.8,412.2c-0.4-0.2-0.6-0.8-0.7-1.1C387.9,410.5,388.2,411.4,387.8,412.2z M391.1,432
		c-0.3-1.9,1.4-4.6,0.4-6.6c-0.9,1.2-0.4,3.7-1.8,5.4C390.2,431.3,390.4,431.9,391.1,432z M389.4,408.1c-0.3-0.9-1.9-3.7,0.4-3.7
		C388.5,405.5,390,407,389.4,408.1z M389.1,402.4 M391.6,424.7c0.2-0.4,0.6-0.2,0.5-0.5C391.8,424.3,391.5,424.4,391.6,424.7z
		 M405.7,384.4c-1,1.9-1.7,4.7-3.6,6.6c0.2,0.6,1.6,0.8,0.7,2.1c-0.4-0.2-1.5-1.5-1.6,0.1c-0.3,1.1,1.5-0.4,1,1
		c-1.9,3.2-2.8,7-4.1,11c0.2,0.6,0.6,1.8,0.3,2.8c-0.6,0.2-0.8-0.4-1.3,0.1c-1.3,2-0.2,4.3-1.4,6.6c0-1,0.1-2.6-0.6-2.8
		c-0.2,1.4-0.7,3.8-1.8,5.4c0.2,0.6,0.3,1.9,0.6,2.8c-0.8,0.6-0.7,1.8-2.1,2.6c0.4,0.2,0.5,1.5,0.9,1.7c0.6-4.1,4.1-6.1,3.7-10.2
		c2.7-1.5,1.5-5.3,4-6.4c0.1-3.6,1.5-5.3,2.7-7.6c0.8-7.4,5.9-11.5,6-19c1.5-1.4,2.1-3.5,1.3-4.9c0.8-0.6,1-0.9,1.3-1
		c-1.4-2.2,2.5-6.3,0.4-6.6c-1.8,5.4-3.6,10.5-5.5,16.6C406.2,384.9,406.8,383.8,405.7,384.4z M391.7,402.6c-0.2,0.4-0.1,1.7-1,1.9
		c0.1-0.7,0.2-1.4,0.1-1.7C391.1,402.7,391.4,402.6,391.7,402.6z M392,399.5c-0.1-0.3,0.1-0.7-0.5-0.5
		C391.5,398.1,393,398.6,392,399.5z M391.3,390.3c-0.2-1.6,0.5-3.4,1.3-4.9C392.9,386.6,392.2,389.4,391.3,390.3z M394.9,445.5
		c0.2-0.4,0.6-0.2,0.5-0.5C395.1,445.2,394.8,445.2,394.9,445.5z M392.4,404.6c0-1,0-2,0.7-1.8C392.9,403.2,393.3,404.4,392.4,404.6
		z M393.9,396.4c0,0,0.1,0.3-0.1,0.7c0,0-0.3,0.1-0.6,0.2c0.2-0.4,0.1-0.7,0.1-0.7C393.6,396.5,393.9,396.4,393.9,396.4z M395,415.6
		 M395.8,403.3c0.2-0.4,0.6-0.2,0.5-0.5C396,402.9,395.7,403,395.8,403.3z M394.6,382.8c0.1-1.7,0.5-3.4,1.6-4
		C395.6,380,395.5,381.6,394.6,382.8z M395.6,383.9 M397.5,374.2c1.3,0.9-0.9,2.2-0.1,3.6c-0.6,0.2-0.4,0.8-1.3,1
		C396.6,377.1,397.3,375.5,397.5,374.2z M396.5,381.6c-0.2-0.6,0-2.9,1.4-2.7C397.4,379.7,396.8,380.6,396.5,381.6z M399.3,370.7
		 M399.7,374.8 M400.6,369.7c0,1-1.6-0.8-0.3-0.9C400.4,369.1,400.2,369.5,400.6,369.7z M404.8,360c0.3,2.8-2.5,4-2.6,6.9
		c-0.9,0.3-1.5,0.4-2,1.9C401.4,365.2,403,362.5,404.8,360z M404.1,391.1c-0.4-0.2-0.4-0.2-0.7-0.1c-0.1-0.3,0.1-0.7,0.1-0.7
		C404,389.8,403.9,390.5,404.1,391.1z M407.2,416.5c-0.3-0.9-0.2-1.6,0.4-1.7C407.8,415.4,408.4,416.2,407.2,416.5z M406.2,383
		 M407.5,375.1c0.1-0.7,0.3-2-0.3-1.9c-0.5,0.5-1.5,2.4-0.3,3C406.6,375.4,406.8,375,407.5,375.1z M405.9,362.3 M409.1,368.1
		c-0.9,0.3-1.3,1-1.6,2.1C408.3,369.7,409.4,369,409.1,368.1z M410.8,348.8c-0.3-0.9,0.3-4,2.2-4.2
		C412.6,346.3,411.6,347.2,410.8,348.8z M414.3,392.9 M414,381 M413.5,366.8c0.3-0.1,0.6-0.2,0.6-0.2c-0.1-0.3-0.2-0.6,0.2-0.4
		c-0.1-0.3-0.2-0.6-0.2-0.6s-0.3,0.1-0.6,0.2c0,0,0.1,0.3-0.2,0.4C413.3,366.2,413.4,366.5,413.5,366.8z M418.2,358.6
		c-0.1-0.3-0.5-0.5-1,0c-0.5,1.4-1.2,2.3-0.8,4.5C418.6,361.8,416.7,360,418.2,358.6z M418,357c-0.2,0.4,0,1,0.9,0.7
		C418.7,357.2,418.3,357,418,357z M420.2,380.5c-0.2,0.4-0.5,0.5-0.2,1.4C421.2,381.5,421.1,380.2,420.2,380.5z M420.8,354.6
		c0.2-1.4-0.4-2.2-1.6-1.8c0.7,1.1-0.5,1.4-0.7,2.8C419.8,354.6,420,354.2,420.8,354.6z M422.5,377.5c0-1,0.4-2.7-0.5-2.5
		c0.2,1.6-2.6,3.7-0.7,4.8C422,379,421.1,377.3,422.5,377.5z M423.9,346.5c-0.2,1.4-1.4,2.7-0.9,4.2
		C424.8,350.2,424.8,347.2,423.9,346.5z M425.4,371.8c0.4-0.8,0.9-1.2,0.8-1.5C427.1,370,426.4,371.8,425.4,371.8z M425.1,365
		 M424.9,345.6 M426.4,341.5c-0.5,0.5-1,0.9-0.6,2.1C427.1,343.6,427,341.4,426.4,341.5z M430.6,353.3c-0.1-0.3,0.1-0.7,0.1-0.7
		s-0.3,0.1-0.6,0.2c0,0-0.2,0.4-0.1,0.7C430.3,353.4,430.6,353.3,430.6,353.3z M436.2,334.1c-0.1-0.3-0.2-0.6-0.2-0.6
		s-0.3,0.1-0.6,0.2c0,0,0.1,0.3,0.2,0.6C435.9,334.2,436.2,334.1,436.2,334.1z M436.6,328.4c-0.2,0.4-0.4,0.8-0.1,1.7
		C437.5,330.1,437.7,327.8,436.6,328.4z"/>
	<path class="st0" d="M536.8,391.2c-3.2,4.1-8.5,7-11.2,11.7c-0.8,0.5-0.3-0.9-1.1-0.4c-1.1,0.6,0.4,0.2,0.4,1.3
		c-3.5,3.2-7.4,4.4-10.3,8.4c-3.2,1.1-5.3,2.9-6.8,5.3c-2.6,0.9-5.6,3-8.3,5.6c-0.6,0.1-0.9,0.2-1.5,0.3c-0.8,0.5-1.1,1.6-2.2,2.2
		c-1.1,0.6-0.2-1.6-1-1.1c-0.8,0.5,0.3,0.9,0.3,2c-3,1.7-5.1,2.5-7.7,4.5c-1.1,2.6-5.1,2.5-6.5,6.2c-0.8-0.5-1.1-0.4-1.9,0.1
		c7.3,8.4,17.5,14.5,24.4,22.7c1.1,0.4,0.4-1.8,0.8-0.5c0.8-0.5,0.8,0.5,0.7,1.2c3,1.3,5.1,3.6,6.5,6.9c0.7,0.2,1.3,0,2,0.2
		c2.9,3,6.1,5.7,9.1,9c1.1,0.4,2.1,0.5,2.3,2.2c5.2,4.9,12.4,5.9,15.9,13.9c-6-4.4-11.1-8.9-17.4-12.2c2.1,3.6,5.9,7.1,10.6,8.4
		c0.1,0.3-0.1,0.7,0,1c6.3,2.3,9.5,9.3,15.9,11.9c1.1,3.4,5,3.2,6.9,6.2c-0.1,0.7,0.9-0.2,1.1,0.4c-0.1,1.7,0.7,2.2,1.8,2.6
		c-2.7-0.4-5.3-4.2-7.7-5.6c0,1,0.1,1.3-1.1,0.6c-0.7,3.9,4.2,2.8,4.3,7.1c2.3-0.9,3.4,3.3,6.7,2.5c0.4,0.2,0.3-0.1,0,0
		c-0.9-1.8-3.2-2-3.9-3.8c4.4,0.4,5.4,6.5,9.7,5.9c-0.2-1.6-1.4-1.4-1.3-3.1c-1.7,0.7-3.9-0.8-4.3-3.1c3.3,1.3,5.7,4.4,9.4,5.9
		c-1.3-2.1-3.1-2.7-4.5-4.7c4,2.1,5.4,6.5,9.3,8.6c0.2,0.6,0.2,1.6,0.5,2.6c-1.5-0.7-2.4-1.5-2.7-3.4c-2.6,1.9,0,6.1,2.7,6.4
		c0.2,2.6,2,3.2,3.8,4.5c0.7,3.2,1.7,5.3,4.4,6.4c-0.4,0.8-0.7,0.8-1.1,0.6c2.8,2.7,3.7,6.2,4.9,10c-0.6,1.1-1.5,1.4-2.3,1.9
		c-1.2-0.7-2.3-2.2-3.9-0.8c-1.8-2.6-4.3-3.1-6.8-3.8c-3-5.4-9.1-7-13.7-10c-0.4-0.2,0.1,1.3-0.9,1.2c0-2-0.7-0.2-1.3,0
		c-0.3-5-5.9-3-7.3-6.4c-0.3,0.1-0.6,0.1-0.5,0.5c-5.7-4.4-11.9-8.4-17.1-13.3c-0.3,0.1-0.9,0.2-1.2,0.3c-1.2-1.7-2-3.2-4.4-3.4
		c-2.5-3.8-6.5-4.9-9.2-8.3c-0.3,0.1-0.9,0.2-1.2,0.3c-2.5-3.8-6.8-4.8-9.5-8.3c-0.6,0.1-0.5,0.5-1.1,0.6c-0.8-2.5-2.3-4.2-5.2-3.9
		c-0.7-2.2-3-2.3-3.7-4.2c-0.7-0.2-0.4,0.8-0.2,1.4c-0.6,0.1-0.9-0.8-0.8-1.5c-5.5-2.8-9-8.7-14.9-10.7c-0.7-1.2-1.1-3.5-3.2-2
		c-7.6-7.4-16.7-13-24.7-19.6c-1.3,3-3,5.7-1.8,8.5c-2.5,7.3-3.4,14.6-4.3,22.9c-0.6,0.1-0.8-0.5-1.1-0.4c-0.5,1.5-1.2,3.3-1.4,5.7
		c-1.5,1.4-3.4,3.5-2.3,5.9c-2.8,0.3-3.5,3.2-5.3,4.9c-0.5-0.6-1-1.1-0.9-1.8c-2.5,3.3-4.6,7.1-5.8,11.4c-3.3,0.8-3.5,5.2-3.6,7.9
		c-0.7-0.2-0.9-0.8-0.7-1.2c-2,0.8-1.5,3.4-3.5,4.2c-4.1-6.5-3.1-17.5-2-24.1c-0.8-6.5-0.2-14.8,2.7-21.8c-0.1-0.3-0.7-0.2-1-0.1
		c0.1-4.7,2.4-7.6,1.8-12.5c1,0.1,0.7-0.8,1.3-1c-0.7-2.2-1-4.1,1-6c-1.9-0.9-0.8-1.5-0.5-3.6c2.2-2.2,0.6-7.2,0.4-9.9
		c-0.7-1.2-1.3,0-2.1,0.5c0.1-0.7-0.1-1.3,0-2c-1.9,1.1-2.9,1-5.3,1.9c-0.3-0.9,1-0.9,1.2-1.3c-0.1-1.3-0.8,0.5-1.4-0.3
		c2.7-1.6,7.5-4.1,9.2-3.8c0.5-1.5,1-2.9,2-2.8c-0.7-1.2,0.3-2.1,0.2-3.4c-0.1-1.3-0.6,1.1-0.9,0.2c0.6-1.1,1.1-2.6,2.1-3.5
		c-0.9-0.8-1.3-2.1,0.2-2.4c0.1-0.7,0-1-0.1-1.3c2.6-16.1,5.5-31.2,8.5-45.4c-3.2,3.1-5.6,7-6.5,12.3c-1.1,0.6-0.4-1.3-0.9-0.8
		c-0.7,0.8-2.2,3.2-2.9,2c-0.9,0.2-0.6,2.2-1.8,2.4c-1.7-1.3-1.7-4.3-3.4-5.3c0-1,0.8-0.5,0.9-1.2c-1.2-3.8,0.6-5.2-0.4-8.3
		c-0.6,0.1-0.8,1.5-0.9,2.2c-0.9-0.8,0.2-2.4-1-3.1c0.6-1.1,1.3,0,1.7-0.7c0.5-1.5-1.1-0.4-0.6-1.9c0.9,0.8,0.8-0.5,1.1-1.6
		c-1.9,0.1-1.7,1.7-3,2.7c-0.7-1.2,1-2.9,0.9-4.2c0.3-0.1,0.2,0.6,0.8,0.5c0.6-0.1,1-0.9,1.2-1.3c-2.2-2.9,2-7.9,4.7-9.8
		c-0.1,0.7-0.4,0.8-0.4,1.8c2.7-2.6,3.8-6.3,6.6-8.9c0.8,0.5,0.9-0.2,1.7,0.3c0.6-1.1,0.8-2.5,1.5-3.4c2.2-0.2,3.7-3.6,6.1-4.4
		c0.9-7.3,3.7-11.6,1.8-18.6c2.6-5,13.6-5.5,17.2-7.3c0.7,1.2,1.6,0,2.6,1.1c0.8-0.5-1-1.1,0.2-1.4c0.9,0.8,1.5,1.7,2.9,1
		c0.1,0.3,0.2,0.6,0.1,1.3c0.3-1.1,1.1,0.4,1.7-0.7c0.5,1.6,1.6,3,2.2,3.9c0.9-1.2-0.2-1.6,0.6-2.2c0.3-0.1,0.4,0.2,0.6,0.9
		c4.2-4.3,7.1-5.3,12.2-7.8c-0.1,1.7-2.2,3.2-3.3,4.8c1.8-0.4,4.8-3.4,6.7-4.6c1,1.1-1.9,1.1-1.8,2.4c2.2-1.2,5.9-3,5.5-5.3
		c1.7,0.3,1.2-0.3,2.6-0.9c0.1,0.3-0.2,0.4,0,1c0.9-0.2,1-0.9,1.8-1.4c-0.9-1.8,1-2.9,2.1-3.5c1.3,2.1,2.8-1.3,4.4-0.7
		c1.4-0.7-1-1.1-0.1-1.3c1.4-0.7,0.9,0.8,1.6,1c0.9-0.2,1.7-0.7,1.4-1.7c0.7,0.2,1.5,0.7,1.6,2c1-0.9,0.6-3.2,2.1-3.5
		c-0.3,1.1-1.6,1-0.9,2.2c3-0.7,3.6-3.9,6.9-4.9c-0.9,2.2,4,3.1,4.9,0.9c0.1-0.7-1.4,0.7-1.9,0.1c0.4-1.8,1.8-1.4,3.2-2.1
		c2.8,1.7,6.4-2.5,9-1.4c-3.2,1.1-5.2,2.2-7,3.6c1.4,1.4,5.3,0.1,4.8-2.4c1.2,0.7,3.1,0.6,4.3-1c1.7,1.3,4.6-1,5.6,1.1
		c0.9-1.2,4.3-2,4.8-0.4c-1.8,0.4-2.6-0.1-3.6,1.1c-0.2,1.4,1.8,0.6,2,2.2c0.8-0.5,0.3-1.1,0.1-1.7c2.3-0.9,2.2-0.2,4.5-1.4
		c1.2-0.3,0.9,1.8,2.3,1.2c0.4,1.3,1,2.1,2.5,2.8c-0.3,2.1-3.7,0.8-4.2,2.3c1.6,1,3.3-0.8,6-0.7c-0.9,1.2-0.1,1.7,0.7,2.2
		c1.3,0,0.9-1.2,1.9-1.1c0,1-0.9,1.2-1.8,1.4c0.8,3.5,4.5,5.7,3.3,10c0.1,0.3,0.8,0.5,0.8,1.5c0.6-0.1,0.5-0.5,0.7-0.8
		c0.8,0.5-1.1,2.6-0.1,3.7c-0.9,0.2-0.8,0.5-1.3,1c-0.1,0.7,1.5-0.3,1,1.1c-1.2-0.7-1.4,1.7-0.7,2.9c0.7-0.8,1.1-1.6,2.7-1.6
		c0.2,1.6,0.1,2.3-1.1,3.6c0.4,0.2,1.1,0.4,1.4,1.4c-1,0.9-2,1.8-0.7,2.9c-0.8,0.5-1.4,1.7-2.2,2.2c0.3,4-0.2,7.5-0.8,12.6
		c-0.9,0.2-2.2,0.2-1.8,1.4c0.6,0.9,0.7-0.8,1.4-0.7c0.3,0.9-0.8,1.5-0.6,3.2c-0.3,0.1-0.2-0.6-1-0.1c0.7,4.2-3.6,5.9-5.6,9
		c-0.3,1.1,1.1,0.4,0.8,1.5c-1.4-0.3-1.6,0-0.9,1.2c-1.1,0.6-2.7,2.6-1.6,4.1c-1.7-0.3-1.8,1.4-2.8,2.3c-0.9-0.8,1-1.9,0.8-2.5
		c-0.4-1.3-2.7,0.6-1.7,1.7c-2.8,2.3-4,6-6.8,8.3c-0.3,1.1,1,0.1,0.4,1.3c-1.9,0.1-2.9,3-4.7,4.8
		C537.1,391.1,537.1,391.1,536.8,391.2C536.6,389.5,534.8,392,536.8,391.2z M424,502.8c-0.3,0.1-0.6,0.1-0.9,0.2
		c-0.2,1.4,0.3,2-0.3,3.1C424.3,505.7,423.6,503.6,424,502.8z M424.7,447.7c-0.2-0.6,0.4-0.8,1-0.9
		C425.5,447.2,425.3,447.6,424.7,447.7z M428.9,487.8 M427.2,448.2 M427.7,449.7 M430,458c0.2-0.4,0.1-0.7,0.1-0.7
		c-0.3,0.1-0.3,0.1-0.6,0.1c0,0,0.1,0.3-0.1,0.7C429.7,458,429.7,458,430,458z M432.1,477.4c-0.3,0.1,0.1-0.7-0.7-0.2
		c-0.2,0.4-0.1,1.7,0.5,1.6C431.7,478.1,432.6,477.9,432.1,477.4z M425.5,387.6 M425.5,387.6 M426.2,387.8 M434.1,470.5
		c-0.2-0.6-0.4-1.3-0.7-1.2c0.2,0.6-0.8,0.5-0.6,1.1C433.1,470.4,433.5,470.6,434.1,470.5z M427.3,374 M428,377.2 M434.6,462
		c1.7-0.7,2.1-2.5,2.5-4.3c-0.3,0.1-0.6,0.1-0.9,0.2c-0.2,0.4,0.2,1.6-1.1,1.6C435.7,460.4,435,461.2,434.6,462z M434.4,453.3
		c1.5,0.7,2.7-1.6,3.3-2.8c-0.7-0.2-0.4-1.3-1-1.1c-0.2,0.4-0.8,0.5-1.4,0.7C436.2,451.8,435,452.1,434.4,453.3z M435.3,465.2
		 M429.8,370.8c0.3-0.1,0.3-0.1,0.6-0.1c0.2-0.4,0.2-0.4,0.5-0.5c-0.1-0.3-0.2-0.6-0.2-0.6c-0.3,0.1-0.3,0.1-0.6,0.1
		c0,0,0.1,0.3-0.2,0.4C429.9,370.1,430,370.4,429.8,370.8z M438.5,498.1c0.3-0.1,0.6-0.1,0.5-0.5
		C438.7,497.7,438.4,497.8,438.5,498.1z M437,466.5 M435.5,431.5c0.7-0.8,0.9-3.2,1.2-4.3c-0.7-0.2-0.6-0.9-1.2-0.7
		c-0.1,0.7-1.3,1-0.7,1.8C436.3,427.9,435.4,430.1,435.5,431.5z M437.2,448.9 M441.8,501.4c0.3-1.1,1.1-1.6,1.4-2.7
		c-1.5,0.3-1.3,0-2.4,0.6C440.6,500.7,440.4,501.1,441.8,501.4z M432.1,366.9c0,0,0.1,0.3-0.2,0.4
		C431.8,366.9,431.8,366.9,432.1,366.9z M437.3,425c-1.1-1.4,1.1-1.6,0.6-3.2c-0.6,0.1-0.4-0.2-1-0.1c-0.5,1.5-0.8,2.5-1,3.9
		C436.4,426.2,436.3,424.9,437.3,425z M432.1,366.9c-0.1-0.3,0.4-0.8,1-0.9C433,366.4,432.8,366.7,432.1,366.9z M438,449.4
		c0.3-0.1,0.6-0.1,0.8-0.5C438.5,448.9,438.2,449,438,449.4z M438.5,415.6c-1.1,0.6-2.4,2.6-2.1,3.5
		C437.8,418.5,438.3,417,438.5,415.6z M438.7,446.5c0.1,0.3-0.2,0.4-0.4,0.8C439.1,447.8,439.3,446.4,438.7,446.5z M433.2,366
		 M437.7,419.2c0.2,0.6-0.8,0.5-0.2,1.4C438.4,420.3,438.6,419,437.7,419.2z M438.3,430.1 M444.3,395.1c0.8,0.5,0.7,0.2,1.9-0.1
		c0.2-0.4,0.2-1.4,0-2c0.8-0.5,1.3-1,1.8-1.4c0.1,0.3,0.2,0.6,0,1c0.9-0.2,0.8-1.5,1.8-1.4c-0.1-2.3,0.3-4.1,1.3-5
		c-1,2.9-0.6,5.2-1.7,6.8c-1.2,0.3-0.9,0.2-2.1,0.5c-0.8,2.5-2.6,5-4.4,5.7c0.2,0.6,0.2,1.6,0.8,1.5c-0.1-0.3,0.4-0.8,0.6-1.1
		c0,5-6.3,6.8-5.4,11.7c0.2-0.4,0.2-1.4,1-1.9c0.9-0.2,0.2,1.6,1.3,1c1.5-1.4,0.7-4.9,2.3-5.9c0.1,2.3-1.4,3.7-0.6,6.2
		c-0.7,2.9-3.1,3.4-4,6c1,0.1,1.9-0.1,2.5,0.8c-0.2,2.4-2.4,3.6-2.9,6.1c1,0.1,1.5-1.4,2.4-0.6c0.4,1.3-1.3,1-1.7,1.7
		c1.9,2.9-0.8,5.6-0.8,8.6c3-2.7,3.5-9.2,5.9-14.1c-0.2,0.4,0.2,0.6,0.8,0.5c0.9-3.2,2.8-8.4,1.5-10.4c-0.5,1.5-1.2,3.3-0.6,5.2
		c-1.2,0.3-1,0.9-0.7,1.8c-1-0.1-1.2,1.3-1.7,0.7c3.1-6.4,1-14,4.9-19c0.1,0.3,0.2,0.6,0.8,0.5c0.6-5.2,4-10.7,2-13.9
		c-1.8,1.4-2.6,4-5.3,4.9C445.9,391,445.4,393.5,444.3,395.1z M440.5,458.9c0.3-0.1,0.6-0.1,0.5-0.5
		C440.7,458.6,440.4,458.6,440.5,458.9z M439.7,447.7 M443.4,502.1 M437.5,409.4 M440.7,434.6c-1.3,0-1.9,2.1-1.1,2.6
		C440,436.5,441.2,435.9,440.7,434.6z M441.2,441.9c-0.9,0.2-1.2,1.3-1.3,2C440.8,443.7,441.1,442.6,441.2,441.9z M442.7,454.7
		c-0.6,0.1-0.3-0.9-1.4-0.4c0.1,0.3,0.2,0.6,0,1C441.9,455.3,442.1,455.9,442.7,454.7z M444.9,483.5c-0.1-0.3-0.2-0.6-0.2-0.6
		c-0.3,0.1-0.3,0.1-0.6,0.1c0,0,0.1,0.3,0.2,0.6C444.6,483.6,444.6,483.6,444.9,483.5z M439.9,410.9c0.3-0.1,0.6-0.1,0.5-0.5
		C440.1,410.5,439.8,410.6,439.9,410.9z M441.1,403.6c0-1-0.2-1.6-1-1.1c0.1,0.3-0.7,0.8-0.2,1.4
		C440.2,403.8,440.8,403.6,441.1,403.6z M447,477c-0.6,0.1-1.1,0.6-1.3,1C446.3,477.8,446.5,477.4,447,477z M441.1,399.5
		c-0.5,0.5-0.5,1.5,0.9,0.8C441.8,399.7,441.4,399.4,441.1,399.5z M442,393.2c-0.7,0.8,0.1,1.3,0.5,1.6
		C442.5,393.8,442.4,393.5,442,393.2z M442.6,401.2 M442.2,387.8 M442.5,390.8c0.3-0.1,0.6-0.1,0.8-0.5
		C443,390.3,442.7,390.4,442.5,390.8z M450,477.3c0.3-0.1,0.6-0.1,0.5-0.5C450.2,476.9,449.9,477,450,477.3z M447.9,431.6
		c-0.3,0.1-0.3,0.1-0.6,0.1c-0.2,0.4-0.1,0.7,0.6,0.9C447.7,432,447.7,432,447.9,431.6z M447.2,379.9c-0.5,2.5-1.5,3.4-1.7,5.8
		c1.7-0.7,1.4-3.7,2.3-4.9c0.5,2.6-0.4,4.8-2.3,5.9c0.2,0.6,0.4,1.3,0.3,1.9c1.9-0.1,2-1.8,3.4-2.5c-0.7-4.2,2.2-8.3,2.7-11.7
		c-1.2,1.3-1.7,1.7-2.6,1.9C449.9,377.3,448.3,380.4,447.2,379.9z M447,405.6c0.2,0.6,0.2,1.6,0.8,1.5
		C447.6,406.5,447.8,405.1,447,405.6z M448.3,401.6c0.3,0.9-0.7,0.8-0.3,2.1c0.7-0.8,2.4-4.6,0.5-4.5c0.1,1.3-1.5,1.4-1.4,2.7
		C448,402.7,448,400.6,448.3,401.6z M446.4,387.5 M447.5,396c-0.1-1.3,1.5-1.4,2.3-1.9C449.4,395.9,448.2,395.2,447.5,396z
		 M450.9,384.5c-0.1-0.3,0.1-0.7,0.1-0.7c-0.3,0.1-0.3,0.1-0.6,0.1c0,0-0.2,0.4-0.1,0.7C450.6,384.5,450.6,384.5,450.9,384.5z
		 M451.3,380.7c0.3-0.1,0.6-0.1,0.9-0.2c-0.1-0.3-0.2-0.6,0-1c-0.3,0.1-0.3,0.1-0.6,0.1c0,0-0.2,0.4-0.5,0.5
		C451.1,380.1,451.2,380.4,451.3,380.7z M453,376.6c1.6,0,1.3-2,0.9-3.2c-0.9,0.2-0.5-0.6-1.2,0.3
		C453.9,374.4,453.2,375.2,453,376.6z M456.5,411.8 M459.4,414.5 M461.1,424.9c0.1-0.7,0.7-0.8,0.6-1.1c-0.3,0.1-0.6,0.1-0.9,0.2
		c0,0,0.1,0.3,0.2,0.6C461,424.6,460.8,425,461.1,424.9z M509.2,383.7c-1.1,0.6-1.8,0.4-2.3-0.1c1.2-0.3,2.6-1.9,3.8-0.5
		c0.4-0.8,1.7-0.7,1.6-2.1c-0.9,0.2-1.4,1.7-1.8,0.4c0.5-0.5,0.6-1.1,0.8-1.5c1.7-0.7,2.1-1.5,3.5-2.2c0.1-0.7-0.2-0.6-0.4-1.3
		c2-0.8,2.3-2.9,3.6-3.9c0.8-0.5,0.8,0.5,1.6,0c3.7-5.6,9.3-9.5,12.8-15c0-1-0.1-1.3-0.5-1.6c3-3.7,6.5-6.2,7.1-11.4
		c2.1-1.5,2.2-3.2,2.1-5.5c-1.3,0-1,0.9-1.5,1.4c-0.3,1.1,0.7,0.2,0.5,1.6c-0.2,0.4,0.1,1.3-0.8,1.5c-0.6-0.9,0-1,0.4-1.8
		c-1.8-1.6-2.7-6.4-5.3-5.2c-3.9-5.9-11.3-2.5-20-1.2c-0.2,1.4-2.1,1.5-2.6,0.9c-6.8,3.2-15.2,5.5-22.2,11.1c-2.1-0.5-3,2.7-5.9,2
		c-1.1,4.6-9.3,5.5-10.5,10.8c-0.3,5.1-1.5,11.5-2.4,17.7c1.2,0.7,0.7-1.8,2-1.8c-0.2,1.4-0.5,3.5-2.3,2.9c-0.5,1.5-1.2,3.3-0.5,4.5
		c-1.7,2.8-1.4,7.7-2.9,11.1c0.1,0.3,1.2-0.3,1.1,0.4c-0.8,0.5,0,2-0.5,2.5c-0.2-0.6-0.1-1.3-0.3-2c-2,4.8-1.4,9.8-3.6,14
		c0.4,0.2,0.5,0.6,0.4,1.3c-0.9,1.2-0.2,3.4-1.5,4.4c0.8,2.5-1.7,4.8-0.5,5.5c2.7-2.6,5.7-1.6,7.9-4.8c0.3-0.1,0.7,0.2,1.4,0.3
		c0-2,2.6-3,4-3.9c-0.3-0.9-0.4-1.3,0.1-1.7c2.8-0.3,5.8-4.4,8.7-4.3c0.1-0.7-0.2-0.6-0.4-1.3c2.7-2.6,5.6-3,6.9-6
		c2.4-0.6,4.5-2.4,5.8-4.4c2.7-0.6,5.2-4.2,6.9-6c-1,0.9-1.5-0.7-2.7,0.6C502.8,386.1,507.6,387.7,509.2,383.7z M462.6,422.6
		 M462.1,403.8c0.3-0.1,0.6-0.1,0.8-0.5C462.6,403.4,462.3,403.4,462.1,403.8z M465.6,425.6c-0.6,0.1-0.9,0.2-1.3,1
		C464.9,426.4,465.5,426.3,465.6,425.6z M465.8,421.2c-1-0.1-0.8,0.5-1.4,0.7C463.9,423.3,466.1,422.1,465.8,421.2z M463.7,400.8
		 M465.6,396.3c-0.1-0.3,0.1-0.7,0.1-0.7c-0.3,0.1-0.3,0.1-0.6,0.1c0,0-0.2,0.4-0.1,0.7C465.3,396.4,465.3,396.4,465.6,396.3z
		 M466.5,402.1 M467.2,404.3 M467.9,401.5c-1.5,0.3-0.8-1.5-0.4-2.3C468.1,399.1,467.4,400.9,467.9,401.5z M466.3,385.4 M469.7,426
		c0.1-0.7,0.2-1.4-0.6-0.9c0,0,0.1,0.3,0.2,0.6C469.6,425.7,469.4,426.1,469.7,426z M467.5,398.2 M470.9,423.7
		c-0.6,0.1-1.2,0.3-0.7,0.8C470.8,424.4,470.7,424.1,470.9,423.7z M468.3,392.6 M468.3,392.6 M475.3,425.4c2,0.2,4.7-0.7,5-2.8
		c-0.3,0.1-0.2-0.6-0.5-0.6c-3.1,1.4-6,3.7-9.2,4.8C471.9,428.9,473.6,426.1,475.3,425.4z M469.3,372.5 M472.6,421 M473.5,414.7
		c0.1,1.3,1.8,0.6,1.5-0.3C474.4,414.5,474.1,414.6,473.5,414.7z M475,420.4c-0.6,0.1-1.2,0.3-1,0.9
		C474.6,421.2,474.5,420.9,475,420.4z M475.4,426.7c-0.7,0.8,0.9,0.8,1,0.1C476.2,426.9,475.9,426.3,475.4,426.7z M476.3,412.4
		c-0.1-0.3,0.1-0.7,0.1-0.7c-0.3,0.1-0.3,0.1-0.6,0.1c0,0-0.2,0.4-0.1,0.7C476,412.4,476,412.4,476.3,412.4z M481.4,434.1
		c-1.4,0.7-3.1,1.4-4.1,2.6C478.7,436.7,480.9,435.6,481.4,434.1z M476.7,411.6 M478.3,433.5 M478.1,420.7c-0.7,0.8,0.9,0.8,0.7,0.2
		C478.5,421,478.6,420.3,478.1,420.7z M479.7,410.6c-0.9,0.2-1.1-0.4-1.5,0.3C478.2,411.9,480.1,411.8,479.7,410.6z M480.9,422.4
		c2,0.2,2.5-2.3,4.5-1.4c0.1-0.7-0.1-1.3,0.1-1.7c-1.2,0.3-1.5-0.7-1.9-0.9c-1.1,1.6-2.5,0.2-3.3,1.8
		C480.5,421.2,481.4,421,480.9,422.4z M480.4,410.8c0.3-0.1,0.6-0.1,0.5-0.5C480.6,410.4,480.3,410.5,480.4,410.8z M482.4,433.2
		 M484,432.9c-0.2-0.6-0.6-0.9-1.1-0.4c0,0,0.1,0.3,0.2,0.6C483.4,433,483.7,432.9,484,432.9z M486.8,406.3
		c-1.8,0.4-3.2,2.1-5.4,2.6C482.6,410.6,486.1,408.1,486.8,406.3z M477.4,332 M483.5,407.4c0.2-0.4,0.1-0.7,0.1-0.7
		c-0.3,0.1-0.3,0.1-0.6,0.1c0,0,0.1,0.3-0.1,0.7C483.2,407.4,483.2,407.4,483.5,407.4z M478.5,330.4 M486.7,431.2
		c-0.2-0.6,0-1-0.1-1.3c-0.3,0.1-0.3,0.1-0.6,0.1c0.1,0.3-0.1,0.7,0.1,1.3C486.4,431.3,486.4,431.3,486.7,431.2z M480.3,328.9
		c-0.9,0.2-0.8,0.5-0.9,1.2C480,330,480.1,329.3,480.3,328.9z M487,414c-0.9,0.2-1.7,0.7-1.7,1.7C486.2,415.5,487.3,414.9,487,414z
		 M492.5,414.7c-2.9,0-5.2,1.2-7,3.6C488.2,417.7,490.4,416.6,492.5,414.7z M490.1,407.5c-0.3-0.9,0.7-1.8,0-2
		c-0.6,1.1-2.1-0.5-2.5,1.3C488.5,407.6,488.7,407.2,490.1,407.5z M491.2,461.2c0.3,0.9,1.4,2.4,3,1.3
		C492.9,462.5,492.7,460.8,491.2,461.2z M492.4,425.5c-0.9,0.2-1,0.9-1.1,1.6C492.2,426.9,493,426.4,492.4,425.5z M485.7,326.4
		c-0.1-0.3,0.1-0.7,0.1-0.7c-0.3,0.1-0.3,0.1-0.6,0.1c0,0-0.2,0.4-0.1,0.7C485.4,326.4,485.4,326.4,485.7,326.4z M496.4,403.7
		c-1.1-0.4-2.6,0.9-4.2,0.3c-0.2,1.4-1.6,2.1-1.5,3.4C492.1,406.4,495.1,404.7,496.4,403.7z M512.6,477.8c-4.9-6-11.9-8.4-16.8-13.4
		c-0.3,2.1,2.5,3.8,4.7,4.3C503.4,473.6,509.2,474.3,512.6,477.8z M496.4,409.8c-0.8,0.5-2,0.8-1.8,2.4
		C495.7,411.6,497.3,410.6,496.4,409.8z M496,406.5c-0.1-0.3,0.2-0.4,0.1-0.7c-0.3,0.1-0.4-0.2-0.7-0.2c0.1,0.3-0.2,0.4-0.1,0.7
		C495.6,406.3,495.7,406.6,496,406.5z M490.8,322.2c0.9-0.2,1.4-0.7,1.9-1.1C494.2,321.4,490.8,324.2,490.8,322.2z M498.4,404
		c-0.9,0.2-1.9,0.1-1.8,1.4C497.3,404.5,498.4,405,498.4,404z M498.2,422.2 M496.7,392.6c0.3-1.1,3-3.7,3.4-1.5
		C498.2,391.2,497.9,392.3,496.7,392.6z M498.9,420.4c0.3-0.1,0.8,0.5,0.9-0.2C499.5,420.2,499.3,419.6,498.9,420.4z M494,322.8
		c-1.8-0.6,0.5-2.5,2.2-2.2C495.5,321.4,494.2,322.4,494,322.8z M494.8,320.2c-0.4-0.2,0.4-0.8,0.3-1.1
		C495.8,319.3,495,319.9,494.8,320.2z M496.2,322.6c-0.3,0.1-0.3,0.1-0.6,0.1c0.1,0.3-0.2,0.4-0.4,0.8
		C495.5,323.4,496.1,323.3,496.2,322.6z M500,389.5c0.3-0.1,0.3-0.1,0.6-0.1C500.7,389.6,500.1,389.8,500,389.5z M500.9,390.3
		 M498.2,317.8c0.1,0.3-0.2,0.4-0.5,0.5C497.6,317.9,497.9,317.8,498.2,317.8z M503.6,393.7c-0.1-0.3-0.2-0.6-0.2-0.6
		c-0.3,0.1-0.3,0.1-0.6,0.1c0,0,0.1,0.3,0.2,0.6C503.3,393.7,503.3,393.7,503.6,393.7z M508.5,395.6c-0.5-1.6-3.9-0.8-4.3,1
		C505.8,396.5,507.3,395.9,508.5,395.6z M505.9,416.7c0.3-0.1,0.6-0.1,0.8-0.5C506.4,416.3,506.1,416.4,505.9,416.7z M504.7,388
		 M513.3,501.9c0.2,0.6-1.3,1-0.9,0.2C512.3,501.8,513.2,501.6,513.3,501.9z M505.4,317.5c-1.7,0.7-3.4,1.5-4.3,3
		C502.8,319.8,504.5,319,505.4,317.5z M508,413.2c0.2-0.4,0.1-0.7,0.1-0.7c-0.3,0.1-0.3,0.1-0.6,0.1c0,0,0.1,0.3-0.1,0.7
		C507.7,413.3,507.7,413.3,508,413.2z M502.6,317.1 M512.7,469.1c0.1,1.3,1.5,1.7,2.4,2.5C514.9,469.6,514,469.1,512.7,469.1z
		 M537.1,495.8c1.1,0.4,1.1,1.4,0.9,2.8c1.3,0,2,2.2,4.1,2.4C541.5,498.2,539.9,496.2,537.1,495.8c-0.1-0.3-0.1-0.3-0.4-0.2
		c-0.6-1.9-2.7-3.4-4.4-2.4c-0.2-0.6,0.1-0.7,0.5-1.5c-5.8-2.7-10.6-9.4-15.8-10.5c-0.4-2.3-1.9-2.9-3.5-3.6c-0.7,0.8,2,2.2,0.3,4
		c4.2,2.8,7.8,7,12.3,9.7c0.6-2.2-1.7-2.3-1-3.1c0.7,0.2,2,0.2,1.7,2.3c4.5,0.7,6.3,5.3,9.5,7.3c0.6-2.2-2.9-3-2.6-4.1
		c1.3,0,2.1,1.5,2.9,2C536.8,495.9,536.8,495.9,537.1,495.8z M510.6,395.1c-0.4-0.2-0.8-0.5-1.3,0c0,1,0,1,0.8,1.5
		C509.8,395.6,510.8,395.7,510.6,395.1z M515.6,468.8c-0.7-0.2-1.1-0.4-1-1.1C515.4,467.1,515.4,468.1,515.6,468.8z M506.2,313.9
		c0.1,0.3-0.2,0.4-0.5,0.5C505.6,314.1,505.9,314,506.2,313.9z M507.5,331.2 M518.1,470.5c-0.3,0.1-0.3,0.1-0.6,0.1
		c-0.1-0.3-0.1-0.3-0.4-0.2C516.9,469.8,518.1,469.5,518.1,470.5z M517.9,476c0.1,1.3,1.6,2,2.7,2.4
		C520.1,476.8,518.5,476.8,517.9,476z M524.4,488c-2.1-1.5-4.3-3.1-5.9-5.1C520.6,484.1,522.9,485.3,524.4,488z M511.4,329.9
		c-0.8-0.5-2.4,0.6-2.5,1.3c1,0.1,1.5-1.4,2.1-0.5c-0.4,0.8-2.1,0.5-2,1.8c2.6-1.9,5.8-2.3,7.5-4.1c-1.1-0.4-2.3,0.9-3.4,0.5
		c0-1,1.3-1,1.1-1.6c-1-0.1-1.4,0.7-2.3,0.9C511.1,328.3,512,329.8,511.4,329.9z M509.9,314.4c-0.8,0.5-2.1,0.5-1.7,1.7
		C508.6,315.4,510.3,315.7,509.9,314.4z M522.6,477.3c-1.4-0.3-1.5-1.7-2.7-1.4c0.1,1.3,1.3,1,1.5,2.7
		C522,478.4,522.1,477.7,522.6,477.3z M520.6,471.3c5.4,7.5,14.4,10.2,20.2,18c-6.9-6.2-14.9-10.7-21-17.4
		C519.7,471.5,520.3,471.4,520.6,471.3z M522.3,500.6c0.2,0.6,0.7,1.2,1.6,1C523.6,500.6,522.7,500.8,522.3,500.6z M523.5,478.1
		c-0.1-0.3-0.2-0.6-0.2-0.6c-0.3,0.1-0.3,0.1-0.6,0.1c0,0,0.1,0.3,0.2,0.6C523.2,478.1,523.2,478.1,523.5,478.1z M520.7,406
		 M516.2,326.8c0.2-0.4,0.4-0.8,0.4-0.8c-0.3,0.1-0.3,0.1-0.6,0.1c0,0-0.2,0.4-0.4,0.8C515.9,326.9,515.9,326.9,516.2,326.8z
		 M514.8,311.3c0.4-0.8,0.5-1.5,1.4-1.7C516,310,515.7,311.1,514.8,311.3z M518.6,324.9c-0.9,0.2-1.7,0.7-1.6,2.1
		C517.7,326.5,518.2,326,518.6,324.9z M527,326.7c0-1,0.6-1.1,1-1.9c-1.8-0.6-3.3-0.2-5.3,0.9c-0.1-0.3,0.1-0.7,0.1-0.7
		c-0.9,0.2-4.8-0.6-3.8,1.5c2.1-1.5-0.1,1.7,1.2,1.7c1.1-0.6,1.7-1.7,2.4-2.6C523.2,327.2,525.2,327.1,527,326.7z M529.3,481.8
		 M530.6,486.9 M520.8,326.8 M522.6,329.4c-0.1-0.3,0.1-0.7,0.1-0.7c-0.3,0.1-0.3,0.1-0.6,0.1c0,0-0.2,0.4-0.1,0.7
		C522.3,329.5,522.3,329.5,522.6,329.4z M534,486.1c-0.1-0.3-0.2-0.6-0.3-0.9c-0.3,0.1-0.6,0.1-0.9,0.2c0.1,0.3,0.2,0.6,0.6,0.9
		C533.7,486.2,533.7,486.2,534,486.1z M534.6,487c0.3-0.1,0.6-0.1,0.5-0.5C534.8,486.6,534.5,486.7,534.6,487z M529.8,396.8
		 M525.1,312 M533.9,393.2c-0.6,0.1-0.5-0.6-0.8-0.5c-1,0.9-2.5,1.3-1.9,3.1C532.1,394.9,533.5,394.3,533.9,393.2z M527.2,309.2
		c-0.3,0.1-0.3,0.1-0.6,0.1c0.1,0.3-0.2,0.4-0.1,0.7C526.8,309.9,527.4,309.8,527.2,309.2z M532.6,390.4c-0.3,0.1-0.3,0.1-0.6,0.1
		c0.1,0.3-0.2,0.4-0.1,0.7C532.2,391.2,532.8,391.1,532.6,390.4z M529.9,327.7c0.9-0.2,1.2-1.3,1.3-2c-0.7-0.2-0.7-1.2-1.8-0.6
		c-0.1,0.7-1,0.9-1.7,0.7C527.2,328.4,531.8,324.6,529.9,327.7z M531,329.2c-0.9,0.2-2.2-0.8-2.7,0.6C529,330,530.8,330.5,531,329.2
		z M527.7,309.7 M540.8,503.1 M530.4,335.4c0,0,0.1,0.3,0.2,0.6c-0.3,0.1-0.3,0.1-0.6,0.1c-0.1-0.3-0.2-0.6-0.2-0.6
		C530.1,335.4,530.1,335.4,530.4,335.4z M529.4,323.1c1.1,1.4,4.2,2.8,6.5,1.9C534.6,323,532.5,322.4,529.4,323.1z M540.2,336.2
		c-2-3.2-6.8-3.8-10.2-4.1c2.1,2.5,6.7,2.5,8.8,6.1C538.9,337.1,540.2,337.2,540.2,336.2z M542.1,492c0.9-0.2,0.4-0.8,1.2-0.3
		c2.7,3.4,6.7,5.5,10.2,8.1c0.2,0.6-0.4,0.8-1,0.9c-0.1,0.7,0.3,0.9,0.7,1.2c0.6-0.1,0.4-0.8,0.6-1.1c2.9,1,6.2,2,7.4,5.7
		c2.3,1.2,5.6,3.1,6.3,5.3c-4.2-1.7-6.7-4.5-10.3-7.4c-0.7-0.2-0.5,0.5-0.4,0.8c-1.2,0.3-0.5-2.6-1.7-2.3c-0.8,0.5,0.6,0.9,0.3,2
		c-2-2.2-4.8-3.6-6.6-6.2c-2.3-3.2-7-3.5-7.7-8.7C542,489.7,541.6,491.5,542.1,492z M542,488.7c0.1,0.3-0.2,0.4-0.5,0.5
		C541.4,488.8,541.7,488.7,542,488.7z M542.5,500.3c-0.3,1.1,0,2,1.3,2.1C543.2,501.5,543.2,500.5,542.5,500.3z M543.6,490.7
		c-0.9,0.2-1.1-0.4-0.7-1.2C543.7,488.9,543.4,490,543.6,490.7z M537.6,389.6 M549.4,503.5c-2,0.8-1.9-1.9-3.7-1.2
		c1.7,1.3,1.5,3.7,4.3,4.1C550.8,504.8,548.9,504.9,549.4,503.5z M538.3,388.8 M544.5,311.3c-0.4-1.3-1.7-0.3-0.9-1.8
		c-1.3,1-2-0.2-1.5-1.7c-1.4,0.7-3.5-0.6-4.6,1c-0.2-0.6-0.2-0.6,0.3-1.1c-1.5,0.3-3.9,0.2-4,1.9
		C537.6,310.1,540.9,311.1,544.5,311.3z M539.3,386.9 M539,381.9 M540.2,385.7c-0.1-0.3-0.2-0.6-0.2-0.6c-0.3,0.1-0.3,0.1-0.6,0.1
		c0,0,0.1,0.3,0.2,0.6C539.9,385.7,539.9,385.7,540.2,385.7z M537.1,319.7 M541.9,383.6 M552.3,500.4c0-1-0.8-0.5-1.2-0.7
		c0.1-0.7-0.3,0.1,0,0C551.3,500.3,551.7,500.6,552.3,500.4z M541.1,334.9c-0.2-0.6,0.1-0.7,0-1c-0.3,0.1-0.6,0.1-0.9,0.2
		c0.1,0.3,0.2,0.6,0.3,0.9C540.8,335,540.8,335,541.1,334.9z M540.4,321.6c0.1,0.3,0.2,0.6,0,1C541.4,322.8,541.4,320.7,540.4,321.6
		z M545,327c1.9-1.1,1.3,1,2.9,1c-1-2.1-2.4-4.5-4.3-4.1c0.1-0.7,0.4-0.8,0.3-1.1c-0.8-0.5-2.6-1.1-2.8,0.3
		C543,323.7,543.9,325.5,545,327z M545.6,378c0.3-0.1,0.3-0.1,0.6-0.1c-0.1-0.3-0.1-0.3,0.2-0.4c0.2-0.4,0.1-0.7,0.1-0.7
		c-0.3,0.1-0.3,0.1-0.6,0.1c0,0,0.1,0.3-0.2,0.4C545.7,377.3,545.5,377.7,545.6,378z M557.8,534.2c-0.6,1.1-1.1-0.4-1.7-0.3
		C556.9,532.7,557.1,534.4,557.8,534.2z M554.7,502.6c0.3-0.1,0.6-0.1,0.5-0.5C554.9,502.2,554.6,502.3,554.7,502.6z M556,510.7
		c-0.2,0.4-0.3,0.1-0.6,0.1C555.3,510.5,555.9,510.4,556,510.7z M548.6,378.4c-1-0.1-0.5,1.5-1.7,1.7c-0.1-1.3,1-1.9,1-2.9
		C548.2,377.1,548.8,377.7,548.6,378.4z M546.8,329.3c-0.1-0.3,0.1-0.7,0.1-0.7c-0.3,0.1-0.3,0.1-0.6,0.1c0,0-0.2,0.4-0.1,0.7
		C546.5,329.3,546.5,329.3,546.8,329.3z M560.4,508c-0.8,0.5-2.7-0.4-2.4-2.5C559.4,505.2,559,508,560.4,508z M549.3,362.4
		c0.3-0.1,0.6-0.1,0.5-0.5C549.5,362,549.2,362.1,549.3,362.4z M551.6,373.3c-0.1-0.3-0.2-0.6-0.2-0.6c-0.3,0.1-0.3,0.1-0.6,0.1
		c0,0,0.1,0.3,0.2,0.6C551.3,373.4,551.3,373.4,551.6,373.3z M563.2,538c-0.7-0.2-0.6-0.9-0.8-1.5C563,536.4,563.2,537,563.2,538z
		 M552.9,311c-0.8-0.5-1.4-0.3-0.8-1.5c-1.6,1-2.8-0.7-4.5,0.3C548,311.8,551.3,313.1,552.9,311z M553,368.6
		c-0.3,0.1-0.6,0.1-0.9,0.2c0.2,0.6,0.1,1.3,0.7,1.2C552.9,369.3,553.2,369.2,553,368.6z M562.1,517.4c0.3-0.1,0.4,0.2,0.6-0.1
		C562.6,517,562,517.1,562.1,517.4z M561.7,508.1c0.3-0.1,0.6-0.1,0.5-0.5C561.9,507.7,561.6,507.8,561.7,508.1z M563.7,537.6
		 M553.9,366.4c-0.2-0.6,0.1-0.7,0-1c-0.3,0.1-0.6,0.1-0.9,0.2c0.1,0.3,0.2,0.6,0.3,0.9C553.6,366.4,553.6,366.4,553.9,366.4z
		 M553.9,361.3c0.3-0.1,0.6-0.1,0.5-0.5C554.1,360.9,553.8,361,553.9,361.3z M552.2,321 M555.3,364.7c0.3-0.1,0.3-0.1,0.6-0.1
		c-0.1-0.3-0.1-0.3,0.2-0.4c-0.1-0.3,0.1-0.7,0.1-0.7c-0.3,0.1-0.3,0.1-0.6,0.1c0,0-0.2,0.4-0.5,0.5
		C555.1,364.1,555.2,364.4,555.3,364.7z M553.8,326.7 M556.5,362.4 M558.4,361c0.2-1.4-1.3-1-1.3,0
		C557.4,360.9,557.8,361.1,558.4,361z M557.8,318c-1.3,0-1.6,0-2.7-0.4c-0.4,1.8,0.4,2.3,1.9,1.9C556.7,318.6,557.7,318.7,557.8,318
		z M569.9,512.3c-0.3,1.1-1-0.1-1.3,0C568.6,511.2,569.6,512.3,569.9,512.3z M559,358.8 M557.2,325.2c0.9-0.2,1.4,1.4,1.3,2.1
		c2.1-1.5-0.3-6-1.2-6.8c-0.2,0.4-0.5,0.5-0.8,0.5C557,322.6,558.5,323.2,557.2,325.2z M559,352.8c0.3-0.1,0.6-0.1,0.8-0.5
		C559.5,352.3,559.2,352.4,559,352.8z M559.2,355.4 M570.1,519c0.5,0.6,0.9,1.8,1.9,1.9C572.6,519.4,571.4,519,570.1,519z
		 M570.4,513.8c-0.1-0.3-0.2-0.6-0.3-0.9C571.1,512,571.4,513.9,570.4,513.8z M561.8,336.3c0.1,0.3,0.7,0.2,0.5-0.5
		c-0.8-0.5-2.9,1-2.7,2.6C560.7,338.9,561.1,337.1,561.8,336.3z M559.9,312.5c0,1-1.9,1.1-1.6,0C559.1,312,559.3,312.6,559.9,312.5z
		 M561.4,346.1 M573.6,519.5 M563.2,340.7c0.1-0.7-0.3-0.9-0.9-0.8c0.1,0.3-0.7,0.8-0.2,1.4C562.7,341.1,562.6,340.8,563.2,340.7z
		 M561.1,315.9c0-1,0.1-1.7,1.4-1.7C562.4,314.9,562,315.7,561.1,315.9z M576.4,525.3c-0.6,0.1-1-0.1-0.6-0.9
		C576.4,524.3,576.5,524.6,576.4,525.3z M564,338.1 M562.8,319.2c0.1-0.7-0.1-1.3,0.9-1.2C563.9,318.6,563.3,318.8,562.8,319.2z
		 M565.6,330c-0.1-1.3-1-1.1-0.3-2C566.2,327.9,566.9,329.7,565.6,330z M565.1,325.4 M581.9,523"/>
	<path class="st0" d="M622.2,399.5c3.5,2,5,6.8,9.2,7.7c0.9,2.9,3.7,2.6,4.3,5.6c4.2,1.9,6.8,5.1,10.3,7.1c2.9,3.2,6.5,5.2,9.6,7.9
		c1,2.2,3.5,2,4.2,4.3c1.8,1.7,4.6,2.1,5.7,5c3.2,0.7,4.1,3.9,7.5,4.2c-0.2,0.4,0,1,0.1,1.4c0,1,0.4-0.8,1.1-0.6
		c0.7,2.3,3.7,3.7,6.2,4.2c0.5,1.6,0,2.1-0.1,3.1c1.4,1.4,4,1.2,4.4,3.9c-1.8-1.7-5.1-1.7-5.7-4.6c-0.7-1.2-3.2-0.7-3.4-2.7
		c-0.6,0.1-1.1,0.6-2,1.1c2.7,2.5,5.2,5.4,8.4,6.1c0.2,0.6-0.4,0.8-0.1,1.7c1.2-0.3,2.9,0.8,3.3-1c6.6,4.4,11.8,9.9,17.2,15.9
		c1.9-0.1,1.7,2.4,3.5,2c3.8,6.1,9.8,7.5,13.4,13c-1.2,0.3-1-1.2-2.1-1.6c0.3,1,0.2,2.7,0.8,3.6c1.1-0.6-0.2-0.6-0.1-1.4
		c1.2-0.3,1,1.2,1.7,1.4c0.5,0.6-0.1,0.7-0.3,1.1c-0.4,0.8,1,0.1,0.4,1.3c2.9-1.3,3.7,3.7,6.2,4.2c0.1,0.3,0.1,0.3,0.2,0.6
		c-0.2,0.4-1,0.9-1.2,1.6c0.9-0.2,1.1-0.6,1.2-1.6c2.6,3.2,5.4,8.1,9.3,10.4c0.9-0.2-0.2-1.7,0.9-1.2c0.4,1.3,1,3.2,2.1,3.7
		c-0.3,3.5,2.4,2.6,2.6,5.3c-2.4,0.8-5-1.3-9.3-0.4c-0.5-0.6-0.9-0.8-1.5-1.7c-0.6,0.1-0.5,0.5-1.1,0.6c-0.5-0.6-0.9-0.8-1.3-2.1
		c-0.3,0.1-0.5,0.5-0.7,0.8c-0.7-1.2-1-3.2-3.1-2.8c-0.1,1.7,1.7,1.4,1.6,3.1c-0.4,0.8-1.8-0.6-2,1.1c-1.3-2.1-3.2-3.1-4.8-5.2
		c-3.6,1.1-5.2-4.4-9.2-2.2c-2.8-3.9-6.1-7.3-9.6-10.3c0.3-1.1,1-0.9,0.8-1.6c-0.6-0.9-0.4,0.8-1.4,0.7c-0.1-1.4-0.5-2.7-1.3-3.2
		c-0.4-0.3,0.3,1-1,0.9c0-1-0.1-1.4-1.5-0.7c-0.6-0.9-0.7-2.3-2-2.3c0.6-1.2,1.3,0.1,1.5-0.3c-2-3.4-4.2-5.3-7.4-7.4
		c-0.6,0.1-0.5,1.5-1.5,1.7c1,1.2,1.9,2,1.9,4.1c1.7,0.3,4.5,1.8,5.8,3.9c-2.7-1.5-5.7-1.5-7.4-5c-2.2,0.5-2.6-4.3-5.8-3.9
		c-0.3-1-0.4-2.3-1.4-2.5c-0.6,0.1-0.7,0.8-0.9,1.2c1,2.2,2.3,3.3,3.9,4.3c-1.1,3,0.9,5.3,3.3,3.4c2.2,3,5,4.8,7.7,5.9
		c0.6-0.1,0.4-0.8,0.3-1.1c1.7,0.3,3.3,2.4,4.9,2.1c1.1,2.5,1.8,4.8,4.7,3.8c0.5,2.7,2.9,3.2,4.1,5c-4.6,0-7.8-5.2-11.4-7.5
		c-0.3,0.1-0.4,0.8-0.6,1.2c2.4,0.5,3.7,3.7,5,5.8c-0.5,0.5-0.8-0.5-1.4-0.4c-0.6,0.1,0.3,1-0.6,1.2c0.3,1,1.5,0.7,1.5,1.7
		c-1.7,1-2.4-1.5-4.1-1.5c-0.3-1,0.5-1.5,0.7-2.2c-0.8-0.5-3-2.5-3.3-1c-1-2.2-3.8-1.6-4-4.6c-7.5-3.2-13.5-8.8-19.3-15.2
		c-0.3,0.1-0.5,0.5-1.1,0.6c-5.9-6.6-15.3-10.5-21.5-18.1c-3.7,0.8-6.2-5.2-10.5-4.3c-0.5-0.6,0.7-0.8,0-2.1
		c-3.1-2.8-6.8-5.1-10-8.2c-0.6,0.1-1,0.9-2.1,0.8c-1.8-2.7-5.1-3.7-6.7-7.2c-0.6,0.1-1.2,0.3-1.9,0.4c-1.6-2.1-3.3-4.5-6.1-4.9
		c-0.2-0.6,0.2-1.4,0.4-1.8c-0.2-1.7-2.2-0.9-1.9-3c-1.9,0.1-3.3-1-4.5-1.8c-2.2,4.6-4.2,9.1-8,12.7c0.4,0.3,0.9,0.8,0.2,1.7
		c-6.7,7.3-10,18-11.9,29.4c-0.3,1.1,0.5,0.6,0.5,1.6c-0.6,0.1-0.7-0.2-1.3-0.1c-0.1,3.1,0.3,7.5-1.9,10c0,1,0.9,0.8,0.7,2.3
		c-0.6,0.1-0.8-0.5-1.7-0.3c0.6,0.9,0.8,1.6,1.6,2.1c-2,4.2,0.3,8.5-3.8,13.5c-1.2,0.3,0.5-1.5-0.5-1.6c-1.5,0.3,0.8,2.6-1,4.3
		c1.5,8.3-3.3,14.1-3.6,22.1c-0.6,1.2-0.3,4.5-1.9,5.6c1.5,1.7-1.4,3-0.5,4.9c-0.6,1.2-2.1,1.8-2.9,3.4c-2.5,0.5-3.9,0.1-4.5,2.3
		c-3.7,0.8-5.5,1.5-10.8,2.3c0.8-1.6-1-1.2-2.1-1.6c-4.8,4.8-13.2,0.8-10.6-8.1c2.2-0.5,3.9-4.6,4.2-6.7c1.7-4.1,3-9.6,4.1-12.6
		c0.6-0.1,1,0.1,1.3,0.1c0.1-1.7-0.3-1-0.2-2.7c0.6-0.1,0.5,0.6,0.8,0.5c1.6-3.4,3.9-7.7,3.5-11.4c2.2-3.6,3.6-8.7,4.6-14.4
		c1.5-1.7,1.5-3.8,1.2-5.8c0-1-0.4,1.8-1.7,1c2.9-8.9,2-18.7,6.4-25.8c1.4-0.7,0.7,1.2,1.3,1.1c0.8-2.9,2.9-7.8,1.1-10.6
		c1.3,0.1,1.9-2.5,0.7-2.2c0.3-1.1,1.4-0.7,1.8-1.8c-0.3-1-0.8,0.5-1.5,0.3c0-2.1,1.8-1.8,0.3-3.5c1.3,0.1,2.1-0.8,1.9-1.4
		c-0.1-1.4-1.1,0.6-1.2-0.8c1.5-0.3,2.2-2.5,2.7-1.9c0.3,3.4-2.5,9.1,0.1,12.4c1.2-0.3,1.1-1.9,1.5-2.7c-0.1-10.3,3.2-21,5.8-31.2
		c0.8,0.5,0.1,2.4-0.5,2.8c0.2,0.6,1,0.1,0.9,0.8c-0.5,4.9-2.8,10.2-3.7,14.9c0.7,2.3,0.6,5.4-0.7,7.4c0,1,0.7,1.2,0.2,2.7
		c-1.2,2.7-1.8,7.3-1.5,10.3c-0.2-1.7,2.3-4.3,1.1-5.1c0.4-1.8,2.5-2.6,2.5-4.7c-2.1-2.6-0.1-6.9,0.4-10.7c0.8-0.5,1.4-0.7,1.7-1
		c0.3-9,2.4-18.4,5-27.2c0.6-0.1,0.2,0.6,0.5,0.6c0.5-0.5,0.2-1.4,0.6-2.5c-0.1-0.3-0.4-0.3-1-0.1c0-1,1.8-1.8,0.3-2.1
		c1.8-2.8,2.9-6.8,3.6-10c-3.1,0.7-0.8,5-2.9,5.8c0.2-5.9,3.1-12.7,4.2-18.8c-1.2-1.8,0.5-4.9,1.1-7.4c0.2-1.4-0.9-0.8-1-2.2
		c1.1-0.6,0.5-1.5,1-2.3c-0.6-0.9-0.7-0.2-1.9,0.1c-0.4-2.3,1.6-4.5,0.2-5.9c-1.2,0.3-0.4,3.2-2.3,3.2c2.1,0.6-1.2,3.7-0.2,5.9
		c0.6,0.9,0.6-1.2,1.3-1c-0.1,1.7-1.3,2.3-2.6,3.3c-1.3,10.9-4.1,20.1-5.6,29.4c-0.3,1.1-1.8,0.7-2.1,1.8c1.3,0.1,0.2,4.1,2.1,2.6
		c-1.2,1.6-1.3,4.4-3.5,5.9c2,3.4-1.4,6.2-0.6,10.1c-2.2,0.5-2.1,2.9-3.4,3.8c0.2-1.4,2-3.2,0.7-4.3c-1.3,2.3-2.6,6.7-2.4,9.5
		c2-1.1,3.2-3.4,3.5-5.9c0,3.4-0.7,7.7-1.6,11c-0.8-0.5,0.3-2.1-1.1-2.5c-1.1,0.6-1.2,1.6-2.1,2.9c-0.4-2.3,0.8-6,1-8.8
		c-1.2,0.3-0.4,1.8-1.2,2.7c0.9-9.1,4.5-18.9,5.8-28.8c0.1-0.7-0.8-0.5-0.5-1.6c0.6-0.1,0.8-0.5,1.1-0.6c0.5-8.4,3.1-15.8,4.8-24.4
		c-1.2-1.8-0.6-4.3,0.2-5.9c-0.1-5.8,3.5-13.5,3.3-20.7c-0.3-1,0.8-1.6,1.1-1.9c0.2-0.4-0.1-0.3-0.5-0.6c1.9-6.9,2.2-15.6,3.4-22.7
		c-0.4-0.3-2.1,1.8-2.4,2.9c-0.7-0.2-1.1-0.5-1.8-0.6c-0.4-7.8,4.5-11.3,4.4-18.1c3.4-6.2,5.5-13.5,6.3-21.6
		c2.6-1.2,3.1-1.7,5.8-2.6c0.4,1.3-0.1,1.7,0.4,2.3c0.9-0.2,0.8-1.6,1.1-1.9c0.7,1.2,2.4-0.8,3.4,0.3c0.9-0.2,0.5-1.5,1.5-1.7
		c0.2,1.7-0.8,1.6-1.2,2.7c1.9-0.4,2.6-2.3,3.6-3.2c0.9-0.2,1.3,0.1,1.8,0.6c3.9-2.2,8.5,0.9,13.7,0.9c-2.2,19-5.5,40.7-10.6,61.1
		c-0.5,10.4-4.5,20.2-6.5,31c-0.6,0.1,0,1-1,0.9c1.4,0.4,0.4,1.3,0.5,2.7c1.3-1.3,1.8-2.8,2.1-3.9c1,0.1,0.9,0.8,0.5,1.6
		c1.8-0.7,2.1-1.8,2.1-3.9c0.6-0.1,0.9-0.2,1.2-0.3c5-7.3,9.6-15.1,14.6-22.4c-0.8,2.9-0.5,4.9-1.6,7.9c1.3-2.3,3.6-4.5,3.1-8.2
		c1.4-0.7,1.1-3,0.7-4.3c1.7-2.1,3.8-3.9,4.2-6.7c-1.5-0.7-1.7,2.1-3,3.1c-0.6-1.9,1.4-4.1,2.8-4.7c0.2,0.6,0.6,0.9,0.4,1.3
		c1.1-0.6,0.9-1.2,1.5-1.7c0.1,1.4-0.3,2.1-0.3,3.5c1.9-3.5,5-6.2,6.1-10.2c-0.5-0.6-1.3,1.3-1.5,1.7c-0.1-2.4,2.4-6.4,3.9-8.8
		c0.6-0.1,0.2,0.6,0.5,0.6c1.9-4.5,6-8.5,8.4-11.4c0-1-0.8-0.5-0.8-1.6c1.5-0.3,1.9-1.4,2.9-2.3c-1-1.2-1.5-0.7-0.1-2.4
		c0.1,0.3,0,1,0.1,1.4c0.7,0.2,1.1-1.9,0.1-1.7c-0.1-0.3-0.1-0.3,0.1-0.7c1.4-0.7,0.8,0.5,1.2,0.8c0.8-0.5,1.5-1.7,0.8-2.9
		c1.8-0.7,2.2-2.5,3-4.1c1-0.9,0.6,0.9,1.2,0.8c0.8-1.9,4.2-2.3,4.5-5.8c-1.4,0.7-1.8,2.8-3.5,3.5c0.5-1.5,0.5-1.5-0.2-2.7
		c0.6-0.1,0.8-0.5,0.7-0.8c0.8-0.5,0.2,1.7,1,1.2c0.3-1.1,0.8-1.9,1.9-2.5c0.3-1.1-0.9-1.9,0.5-2.8c0.2,0.6-0.1,0.7-0.2,1.4
		c0.7,0.2,1.4-2,0.2-1.4c0.1-0.7,0.9-1.2,0.7-1.9c0.9-0.2,0.4,1.3,0.5,1.6c2.8-1.6,3.9-5.6,6.4-6.2c0.1-0.7-0.5-0.6-0.7-1.2
		c2.8-2.7,5-5.2,6.7-8.3c0.8-0.5,0.5,0.6,1.1,0.4c-0.1-1.4,0.3-2.1,0.7-3.2c5.8-4.7,12.8-12,16.5-18.3c0.6-0.1,0.4,0.3,0.5,0.6
		c0.8-0.5,0.4-1.8,0.6-2.5c3.4-3.8,9.2-5.4,11.3-10.3c1.9-0.1,4,0.2,6,0.4c1.2-0.3,1.3-2.3,2.2-1.5c0.4-0.8,0.8-1.6,0.6-2.5
		c1.2,0.8,2.5,0.8,3,2.5c0.9-1.2,3.2-0.3,3.4,0.3c0.2,0.6,0.3,1,0.1,1.4c0.8-0.5,2,1.3,0.4,2.3c0.4,0.3,0.7,0.2,1,0.1
		c0.4,1.3-0.5,1.5-0.2,2.5c-0.3,0.1-0.5-0.6-1.1-0.5c-1.4,0.7,0.3,2-1.4,2c-0.3,1.1,0.8,0.5,1.1,0.4c-0.6,1.2-1.8,1.8-2.5,3.6
		c0.3,1,1.5-0.3,1.8-0.4c0,1-1.3,1-1.8,1.8c1.2,1.8-1,0.9-0.7,3.2c-0.3,0.1,0.1-0.7-0.3-1c-1.5,2.7-4.3,4.4-5.8,7.1
		c1.5-0.3,2-1.1,2.4-1.9c0.2,1.7-2.9,4.4-4.7,5.1c0,1,1.3,0.1,1,1.2c-3.5,3.5-6.9,6.6-8.8,11.2c-2.9,0.3-3.2,4.8-6.4,6.2
		c-0.2,2.5-2.3,3.2-2.9,5.8c-5.4,3.9-8.1,10.3-13.4,14.5c-0.5-1.6,2.8-4.7,2.6-7.8c0.6-0.1,0.7-0.8,1-0.9c-0.4-1.3,0.9-1.2,0.7-2.2
		c-3.7,2.9-5.6,7.7-9,10.5c-0.1,5.2-4.9,6.6-5.7,11.5c-1.5,0.3-1.1,1.9-2.9,2.3c0.2,1.7-0.7,2.2-1,3.3c-4.2,2.3-4.4,8.2-8.3,9.7
		c-0.1,0.7,0.2,0.6,0.1,1.4c-1.9,0.1-2.8,4.7-3.9,3.3c-1.2,3.7-5.5,4.6-7.5,7.8c0.7-0.8,1.2-1.6,0.8-2.9c1.1-0.6,2.3-1.2,2.5-2.6
		c-0.6-0.9-1.9,0.1-1.3-2.1c-3.1,1.7-1.8,7.3-4.8,9.3c1.7,2.4-2.2,4.6-0.7,6.3c-0.3,0.1-0.2,0.4-0.9,0.2c-1.8,4.9-6.8,9-7.2,14.3
		c-0.2,0.4-0.7,0.8-0.8,1.6c-1-0.1,0.4-0.8-0.2-1.7c-0.2-0.6-0.8,1.6-1.8,1.8c0.4,0.3,0.7,0.2,1,0.1c-3.7,6.3-7.8,12.3-10.3,19.4
		c2.5-1.6,2.3-5.3,5.2-6.6c1.7-3.1,3-6.5,5.3-8.7c0-2.1,0.8-2.9,2.5-3.6c1-6.4,6-9.5,8.3-15.2c0.9,3.9-4.4,6.1-4.8,10.3
		c-1.6,0-0.8,1.9-2.4,1.9c0.4,5.8-4.8,6.9-5.6,11.9c0.8,0.5,1.1-1.9,2.2-0.5c2.1-3.9,4.1-8.1,6.8-11.4c0.3-0.1,0.3-0.1,0.3-0.1
		C636.5,376.9,628.8,387.5,622.2,399.5z M563.9,463.2c0.1-0.7-0.2-0.6-0.8-0.5c-0.2,0.4-0.2,0.4-0.1,0.7
		C563.3,463.3,563.6,463.3,563.9,463.2z M567,522.1 M564.2,449c0.2-0.4,0.4-0.8,0.2-1.4C565.5,447.7,564.9,449.2,564.2,449z
		 M566,461.7c-0.1-0.3,0.2-0.4,0.1-0.7c-0.3,0.1-0.4-0.3-1-0.1c0.1,0.3,0.2,0.6,0.3,1C565.7,461.8,566,461.7,566,461.7z
		 M564.8,445.5 M565.1,450.9c-0.1-0.3,0.4-0.8,0.3-1.1C566.2,450,565.3,450.5,565.1,450.9z M565.6,454.6c-0.7-0.2,0.3-1.1,0.1-1.7
		C566.7,453,565.8,454.2,565.6,454.6z M569.2,537.1c0.1,0.3,0.2,0.6,0,1C570.2,538.2,570,536.6,569.2,537.1z M565.2,443.7
		 M566,448.3c-0.5-1.6,0.6-4.6,0.9-6.7C567.6,442.8,566.4,446.5,566,448.3z M565.8,442.2c-0.1-0.3-0.1-0.3-0.2-0.6
		c0.3-0.1,0.6-0.1,0.2-0.4c0.3-0.1,0.3-0.1,0.3-0.1C566.3,441.7,566.4,442,565.8,442.2z M566.6,439.6c0.2,0.6,0.3,1-0.2,1.4
		c0,0,0,0-0.3,0.1C566.5,440.3,565.6,439.5,566.6,439.6z M566.1,439c-0.2-0.6,1-2.3,0.7-3.2C568,436.5,566.9,438.2,566.1,439z
		 M567.1,439.8c-0.2-0.6,0.3-1.1,0.7-1.9C568.5,438.1,568.1,440,567.1,439.8z M567,434.3c0.4-0.8,0.5-1.5,0.7-2.2
		C568.4,432.3,568,434.1,567,434.3z M571.2,433.8c-0.1-0.3,0-1-0.1-1.4c-0.8,0.5-2.2,0.5-2.1,1.8
		C569.9,434.1,570.5,433.9,571.2,433.8z M575.2,452.9c-0.9,0.2-1.1,0.6-0.8,1.6C575.3,454.2,575.8,453.8,575.2,452.9z M577.4,496.5
		c-0.2-0.6-0.5-0.6-1.1-0.5c0.1,0.3,0.1,0.3,0.2,0.6C576.8,496.6,577.1,496.5,577.4,496.5z M576.8,500c0.6-0.1,1.2-0.3,1.5-0.3
		c0.2-1.4,1.6-4.5-0.6-4.3c-0.1,0.7,0.3,2-1.1,1.9C577.4,498.5,577.4,498.5,576.8,500z M573.9,425.3c-0.4-0.3,0.1-0.7,0-1
		C574.6,424.5,573.8,425,573.9,425.3z M577.8,486.7c0.3-0.1,0.6-0.1,0.9-0.2c-0.1-0.3-0.2-0.6-0.3-1c0,0-0.3,0.1-0.6,0.1
		c0.1,0.3,0.1,0.3-0.2,0.4C577.7,486.4,577.7,486.4,577.8,486.7z M578.2,488 M576.8,406.5c-0.8,0.5-2,1.1-1.7,3.1
		C576.1,408.7,576.8,407.8,576.8,406.5z M578.5,437.4c-0.1-0.3-0.5-0.6-0.8-0.5c-0.1,0.7-0.7,0.8-0.7,2.2
		C577.8,438.6,578.4,438.4,578.5,437.4z M577.7,442.4c0.3,1-0.7,3.2-0.1,4.1C578.5,445.3,579.2,443.1,577.7,442.4z M577.7,423.8
		c-0.1-0.3,0.2-1.4-0.4-1.3c-0.1,0.7-0.5,0.5-0.5,1.5C577.1,423.9,577.4,423.9,577.7,423.8z M578.8,441.8 M577.6,415.9 M580.4,461.4
		 M578.3,415.1c1-0.9,0.6-2.5,0.9-3.6C579.4,412.1,580.2,414.7,578.3,415.1z M581.5,483.9 M578.4,394.4c-0.1-0.3-0.2-0.6-0.8-0.5
		c0.4,0.3,0.3,1,0.6,0.9C578.1,394.5,578.4,394.4,578.4,394.4z M582.4,450.7c-0.3,0.1-0.6,0.1-0.9,0.2c0.2,0.6-0.4,0.8-0.1,1.7
		C582.7,452.7,582,451.4,582.4,450.7z M579.2,405.9c-0.5-1.6,1.3-1.3,1.2-2.7C581.3,404.1,580.6,406,579.2,405.9z M579.6,408.3
		c0.2-0.4,0.1-0.7,0-1C580.4,406.7,580.6,408.4,579.6,408.3z M580.4,410.9 M582.6,445.8c0.8,0.5,0.1,2.4,0.8,2.6
		C583.4,447.4,584.2,445.5,582.6,445.8z M582.8,422.4c-0.8,1.6,0.3,2-0.3,3.5C584.3,425.1,583.7,423.2,582.8,422.4z M584.8,418.2
		c-1.5,0.3-1.3,3.4-1,4.3C585.6,421.8,584.5,419.3,584.8,418.2z M584.1,425.5 M584,409.7c0.3-0.1,0.6-0.1,0.5-0.5
		C584.5,409.3,583.9,409.4,584,409.7z M584.6,413c0.3-0.1,0.6-0.1,0.5-0.5C585.2,412.6,584.5,412.7,584.6,413z M586.3,428.5
		c-0.4,0.8-0.5,1.5-0.8,2.9C586.7,430.8,587.6,428.6,586.3,428.5z M586.7,440.8c-0.1-0.3-0.1-0.3,0.1-0.7c0,0-0.3,0.1-0.6,0.1
		c-0.2,0.4-0.2,0.4-0.1,0.7C586.4,440.9,586.7,440.8,586.7,440.8z M583.7,371.6c-0.1-0.3-0.1-0.3-0.2-0.6c0,0-0.3,0.1-0.6,0.1
		c0.1,0.3,0.1,0.3,0.2,0.6C583.4,371.7,583.7,371.6,583.7,371.6z M585.1,384c-0.4-1.3,0.8-4,1.3-5.4
		C587.4,380.5,585.7,382.5,585.1,384z M590.4,444.5c-0.2,1.4-1.4,3-0.4,4.2C590.3,447.3,590.7,445.5,590.4,444.5z M586.8,374.1
		c-0.9-0.8,0.3-2.1,1.2-2.7C588.3,372.7,586.3,372.4,586.8,374.1z M586.7,377.2c0.3-2.5,0.9-4.7,2.6-5.7
		C588.1,373.1,587.9,375.5,586.7,377.2z M591.2,382.4c-0.7,3.2-2.1,6.3-3.5,9C590,389.2,592.5,384.5,591.2,382.4z M590.7,443.4
		C591.3,442.9,590.6,443.1,590.7,443.4C589.8,443.6,591.1,444.7,590.7,443.4z M590.2,389.8c-0.3,0.1-0.6,0.1-0.9,0.2
		c0.3,3-1.3,5.4-0.9,8.1C590.2,396.4,589.7,392.7,590.2,389.8z M585.8,326.8c-1-0.1,0.3-1.1,0.2-1.4
		C586.7,325.6,585.7,326.5,585.8,326.8z M588.7,370.6c-0.5-0.6-0.6-0.9-1.2-1.8c0.5-0.5,1.1-0.6,1.5-0.3
		C589.2,369.1,588.8,369.8,588.7,370.6z M589.3,355.3c-0.3,2.1-2.1,4.9-2,6.6C588.4,359.9,590.6,357.4,589.3,355.3z M590.2,383.3
		c0.2-0.4,0.1-0.7-0.5-0.6c0.4,0.3,0,1,0.3,1C589.9,383.4,590.2,383.3,590.2,383.3z M592.1,374.3c-1.9,0.1-2.4,2.9-2,4.2
		C590.9,377,591.9,375.7,592.1,374.3z M590.8,382.1c1.1,0.5,0.9-1.2,0.3-1.1c0.1,0.3,0.1,0.3-0.2,0.4
		C591,381.7,591,381.7,590.8,382.1z M591,349.8c-0.9,0.2-1,0.9-1.4,2C590.9,351.5,591.4,351.1,591,349.8z M594.5,442.9
		c1.3,0.1,2.1-1.8,1.4-2c0.5,0.6-0.9,0.2-1.4,0.7C594.6,441.9,594.8,442.5,594.5,442.9z M594.6,390.3c-0.1-0.3-0.1-1.4-0.7-1.2
		c-0.7,0.8-0.7,1.9-1,3.3C594.5,392.4,594.9,391.3,594.6,390.3z M591.6,358.6c1-0.9,1.8-1.8,1.4-3c-0.6,0.1-0.5,0.5-1.1,0.6
		C592.1,356.8,591.5,358.2,591.6,358.6z M592.6,371.8c0.3-0.1,0.6-0.1,0.6-0.1c0.2-0.4,0.1-0.7-0.3-1c-0.2,0.4-0.2,0.4-0.5,0.5
		C592.5,371.5,592.5,371.5,592.6,371.8z M593.7,367.8c-0.6,0.1-1.2,0.3-1.3,1.3C593.4,368.9,594,368.7,593.7,367.8z M593.7,388.4
		c0.3-0.1,0.6-0.1,0.9-0.2c0.2-0.4,0.1-0.7,0-1c0,0-0.3,0.1-0.6,0.1c0.1,0.3,0.1,0.3-0.2,0.4C593.9,388,593.9,388,593.7,388.4z
		 M592.6,362.8c0.3-0.1,0.6-0.1,0.5-0.5C593.1,362.4,592.5,362.5,592.6,362.8z M593.2,352.7 M594.8,364.8c0.2-0.4,0.2-0.4,0.1-0.7
		c0,0-0.3,0.1-0.6,0.1c0.1,0.3,0.1,0.3-0.1,0.7C594.5,364.8,594.8,364.8,594.8,364.8z M594.7,360c0.4,1.3-0.4,1.8-0.4,3.2
		C595.6,362.9,596,360,594.7,360z M595,338.9c0.4,1.3-1.3,1-0.7,2.2C595.2,340.9,596.3,339,595,338.9z M595.7,356.7
		c0.2,0.6-0.5,0.5-0.5,1.5C596.1,358,597,356.7,595.7,356.7z M597.6,348.7c0.4,1.3-2,2.1-0.7,3.2
		C597.8,351.8,598.9,348.8,597.6,348.7z M600.1,397.7c-0.1,0.7-0.5,1.5-1.3,2.3C599.7,399.8,601.2,398.2,600.1,397.7z M597.3,354.3
		c0.2-0.4,0.1-0.7-0.5-0.6c0.4,0.3,0,1,0.3,1C596.9,354.3,597.3,354.3,597.3,354.3z M600.5,434.4 M598,372 M600.3,396.3
		 M601.6,359.9c-1.7,1-0.6,2.5-1.7,4.1C601.7,363.7,601,361.4,601.6,359.9z M599.1,319.8c-0.6,0.1-0.9,0.2-1,0.9
		C598.6,321.3,599.4,320.8,599.1,319.8z M601.2,377.5c-0.1-0.3,0.1-0.7-0.5-0.6c0.1,0.3,0,1,0.3,1
		C600.9,377.6,601.2,377.5,601.2,377.5z M602.4,394.5 M602.5,380.7c-0.4,0.8-0.2,2.5,0,3.4C603.8,383.8,603.8,380.7,602.5,380.7z
		 M604.9,390.8c0.2-0.4,0.2-0.4,0.1-0.7c0,0-0.3,0.1-0.6,0.1c0.1,0.3,0.1,0.3-0.1,0.7C604.6,390.9,604.9,390.8,604.9,390.8z
		 M608.6,423.1c-0.7-0.2-0.4,0.8-0.9,1.2C608.6,424.1,609.1,423.6,608.6,423.1z M606.7,384.9c-0.1-0.3-0.1-0.3-0.2-0.6
		c0,0-0.3,0.1-0.6,0.1c0.1,0.3,0.1,0.3,0.2,0.6C606.4,385,606.7,384.9,606.7,384.9z M603.1,301.4 M607.7,379.2
		c-0.1-0.3-0.1-0.3-0.2-0.6c0,0-0.3,0.1-0.6,0.1c0.1,0.3,0.1,0.3,0.2,0.6C607.4,379.3,607.7,379.2,607.7,379.2z M609.3,428.8
		 M608.9,385.5c0.1-0.7,0-1-0.6-0.9c0.1,0.3,0.1,0.3-0.1,0.7C608.5,385.3,608.9,385.5,608.9,385.5z M611.1,421.5
		c-0.1,0.7-0.9,1.2-1.1,1.9c1.4,1.4,3.3,2.4,4.5,4.2c5.9,1.1,7.9,7.6,15.7,6.3c0.7-2.2-1.5-0.7-1.2-2.8c1.8-0.7,1.9,1,3.5,0.6
		c-0.5-1.6,0.8-1.6,0.6-2.5c-0.7-1.2-2-1.3-3.9-0.9c-0.1,0.7,0,1-0.6,1.2c-1.2,0.3-1.1-1.5-2.6-1.2c-0.6,1.2,1.3,2.1,0.6,3
		c-2.7-0.1-5.2-2-4.6-4.5c-0.7-0.2-1,0.9-2.1,0.8c0-2.1-1.9-3-3.9-1.9C613.5,425.1,613.6,422,611.1,421.5z M608.9,381 M606.8,285.2
		c1.1,0.5,0.9-1.2,0.3-1.1c-0.2,0.4-0.2,0.4-0.5,0.5C606.7,284.8,606.7,284.8,606.8,285.2z M608.4,286.2c-0.1,0.7,1.5,0.7,1,0.1
		C609.1,286.4,609,286.1,608.4,286.2z M613.6,373.8c-0.1-0.3-0.1-0.3,0.1-0.7c0,0-0.3,0.1-0.6,0.1c-0.2,0.4-0.2,0.4-0.1,0.7
		C613.3,373.9,613.6,373.8,613.6,373.8z M612,341.2 M616.1,367.8c0.5,2.7-2.1,2.9-2.1,4.9C615.1,372.2,617.7,368.8,616.1,367.8z
		 M619.6,422.4c-0.3-1-1.3-1.1-2.4-1.5c0.2,0.6-0.5,1.5-0.2,2.5C618.4,422.7,617.9,422.5,619.6,422.4z M616.4,388.7
		c-0.1-0.3,0.1-0.7-0.5-0.6c0.1,0.3,0,1,0.3,1C616.1,388.8,616.4,388.7,616.4,388.7z M614.3,333.4 M617.2,388.2
		c0.3-0.1,0.6-0.1,0.8-0.5C618.1,387.7,617.4,387.8,617.2,388.2z M621.5,382.8c0.2-2.8,1.4-4.1,1.7-6.2c-2.4,1.9-3.6,5.6-5.6,8.8
		C620.2,386.2,619.7,383.2,621.5,382.8z M619.8,425.5 M617.9,366.4c-0.3,0.1-0.5,0.5-0.7,0.8C617.8,367.1,618,366.7,617.9,366.4z
		 M620.4,393.4c0,1-1.2,1.6-0.6,2.5C621.2,396,622,393,620.4,393.4z M623.2,396.2c-0.1-1.4,0.3-2.1,0.8-2.9
		c-0.5-0.6-1.1,0.6-1.3-0.1c-0.1-0.3-0.1-0.3-0.4-0.3c0.5,2.7-3.3,4.5-1.5,5.8C621.6,397.3,621.9,397.2,623.2,396.2z M624.3,389.8
		c0.1-0.7,0.3-2.1-0.6-1.9c-0.2,1.4-2.2,2.5-2.5,4.7C622.7,392.2,622.7,390.1,624.3,389.8z M628,428.6c-0.6-1.9-1.8-2.7-3-3.5
		c0.2,0.6-0.3,1.1-0.3,2.1C625.9,427,626.9,428.1,628,428.6z M624.8,392.8c-0.2-0.6,0.3-1.1,0-2.1c-0.9,0.2-0.6,1.2-1.8,0.7
		C623.2,392.8,624.1,392.6,624.8,392.8z M627,371.7c-1.6,0-2.5,3.6-3.2,5.8C625.8,376.4,626.7,373.8,627,371.7z M620.8,298
		 M624.3,354.7c0.1,0.3,0.1,0.3-0.4,0.8C624.5,356.4,625.3,354.8,624.3,354.7z M629,386c0.6-1.2,2.3-4.3,1.1-5.1
		c-0.7,3.2-6,6.1-4.4,9.5C627.9,389.7,627.7,384.9,629,386z M639.9,447.7c-0.7-0.2-1-1.2-2.2-0.9c0.5,1.6,2.3,2.3,4,1.2
		c0.9,0.8,0.7,1.2,0.3,3c2.3,1.2,4,2.6,5.7,4.6c1.1-0.6,1.2-0.3,2.1-0.8c1.2,1.8,3.5,2,4.2,4.3c5.2,1,6.6,6.8,11.5,7.9
		c0-1-2.2-1.9-0.6-3c1.1,1.5,2.2,4,4.2,3.2c-0.8,1.9,1.4,2.5,2.3,3.3c-2.3,1.2-3.2-2.1-4.5-2.8c-0.7,1.9,1.5,1.7,0.6,3
		c-1.4-0.4-1.2-2.8-3.6-2.3c0.5,2.7,2.9,2.1,3.4,4.8c5-2.1,6.3,4.5,10.9,4.6c0.4-1.8-0.4-2.3-1.7-2.4c0.2-0.4,0.1-0.7,0.4-0.8
		c2,0.3,2.8,2.8,4.8,1.7c-1.2-5.2-9.3-3.5-9.7-9.3c-3-2.5-4.9-6.5-7.8-8.7c0.9-0.2,1.2-0.3,1-0.9c-4.8-2.8-7-9.2-13.2-10.3
		c0.1-0.7,1.5-0.3,1.2-1.6c-1.9,1.4-2.7,0.9-4.3,2c0.2-1.4-1.7-0.3-1.6-2.1c-1-0.1-0.7,0.8-2,1.1c-0.5-0.6-1-1.2-1.5-1.7
		c-1-0.1-1.9,1.4-2.2,0.5c0.5-0.5,1.3-1.3,0.4-1.8c-1.2-0.8-0.3,1.1-1.3,1c-1.4-0.4-1.8-1.7-1.5-3.8c-3.3,1-2.7-2.5-5.1-2.7
		c-0.1-0.3-0.3-1-0.4-1.3c-2-0.3-4.1-0.5-5.8-1.9c-1.1,1.9,2.5,1.9,2.2,5C633.9,441.8,637,444.5,639.9,447.7z M625.5,360
		 M626.7,350.8c-0.2-0.6,0.3-1.1,0.2-1.4C627.9,349.1,627.7,350.9,626.7,350.8z M633.9,434.2c0-1-1.9-1-2.4-0.2
		C632,435.6,633.1,434.7,633.9,434.2z M632.6,422.1c0.2-1.4-0.6-1.9-1.6-1C631.3,422,631.9,421.9,632.6,422.1z M629,375 M628,348.4
		 M635.9,355.3c-1.8,0.7-1.2,3.7-3.2,3.4c0.4,0.3,1,0.1,1.1,0.5c-0.9,0.2-0.3,2.1-0.7,3.2c-1.6,1.4-4.8,4.8-3.5,6.9
		c2-2.1,2.6-5.7,5.1-6.9c0.3-1.1,0.1-0.7,0-2.1c1.1-0.6,2.4-0.8,1.8-2.8c0.6-0.1,0.4,0.3,1,0.1c0.4-0.8,0.9-1.2,0.4-1.8
		c-0.9,0.2-0.5,1.5-2.2,1.5C635.7,356.7,635.8,356,635.9,355.3z M629.2,347.1c0.8,0.5,3.3-2.1,2-3.2c-0.1,0.7-0.4,1.8-2.1,1.8
		C629.2,346.1,629.1,346.8,629.2,347.1z M631.1,379.7c0,1,0.8,1.6,1.2,0.8C632.6,379.4,632,379.5,631.1,379.7z M633.5,430.5
		c0.1,0.3,0.2,0.6,0.3,1C634.8,431.6,634.6,429.9,633.5,430.5z M640.3,438c0.9-0.2,1.1-0.6,0.8-1.6c-2-1.3-3.8-0.6-3.6-3.4
		c-1.5,0.3-0.4,1.8-1.3,2.3c-0.7-0.2-0.5-1.6-1.8-1.7c-0.6,1.2,1.1,1.5,0.9,2.9C636.9,436.6,638.8,437.3,640.3,438z M635.7,432.4
		c0.6-1.2-0.7-1.2-1.2-0.8C634.1,432.8,634.8,432.6,635.7,432.4z M632.7,341.2c0.3,1-0.3,1.1-0.4,1.8
		C633.7,343.4,633.8,340.6,632.7,341.2z M639.6,425.7c-1.1,0.6-1.6-1-3.5-0.6c1.9,2,3.2,4.1,6.5,4.1
		C641.9,428,640,428.1,639.6,425.7z M636.1,335c-1.2-0.8-2.1,1.8-3.1,2.7c0,0,0,0-0.3,0.1c-0.5-2.7,1.9-3.5,3.2-4.8
		c0.1,1.4,1.4,0.4,2.4,0.2c-1.3,1.3-1.2,3.7-3.7,4.2C634.8,336,636.4,336,636.1,335z M634.4,360.1c1.1-0.6,1.2-1.6,1.5-2.7
		C634.7,357.7,634.3,358.8,634.4,360.1z M639.4,417.5c0.2-0.4,0.1-0.7,0-1c-0.3,0.1-0.6,0.1-0.9,0.2c0.1,0.3,0.2,0.6,0,1
		C638.8,417.7,639.1,417.6,639.4,417.5z M635.1,341.4c1.7,0.3,4.4-3,3.7-4.2c-0.2,1.4-1.2,1.6-2.6,1.2
		C636.5,339.7,635.3,340,635.1,341.4z M637.5,352.9c0.1-0.7-0.2-0.6-0.8-0.5c-0.2,0.4-0.2,0.4-0.1,0.7
		C636.9,353.1,637.2,353,637.5,352.9z M641.2,419.2c0.2-0.4,0.1-0.7,0.3-1.1c-0.3,0.1-0.6,0.1-0.9,0.2c-0.2,0.4,0.2,0.6,0,1
		C640.9,419.3,641.2,419.2,641.2,419.2z M637.1,332.7c-1.2-1.8,0.8-4,1.8-4.9C638.9,330.3,637.1,330.7,637.1,332.7z M643,450.5
		c0,0-0.4-0.3-0.7-0.2c0.2-0.4,0.2-0.4,0.4-0.8C643.4,449.4,643.2,449.8,643,450.5z M642.4,440.6c1.7,3.4,3.5,3,6.5,4.1
		C647.8,442.2,646,440.6,642.4,440.6z M638.3,350c0.2,0.6,0.3,1,0.9,0.8C639,350.2,638.9,349.9,638.3,350z M647.8,435.7
		c-0.7-3.3-3-4.5-5-5.8c-0.2,0.4-0.7,0.8-0.5,1.5C645,431.8,645.6,434.8,647.8,435.7z M639.7,326.3c0.6,0.9,0,1-0.8,1.6
		C639.3,327.1,639.1,326.4,639.7,326.3z M640.4,335.1c-0.7-0.2-1.5,1.7-0.8,1.6C639.7,335.9,640.4,336.1,640.4,335.1z M641.4,363.8
		c0.1,0.3,0.1,0.3-0.1,0.7c0,0-0.3,0.1-0.6,0.1c0.2-0.4,0.2-0.4,0.1-0.7C641.1,363.9,641.4,363.8,641.4,363.8z M642.3,330.6
		c-0.1-0.3-0.5-0.6-0.8-0.5c-0.2,1.4-1.2,2.7-1.7,4.1C640.8,333.3,642.2,332.3,642.3,330.6z M643.6,345.8c-1.7,1-3.4,3.8-2.9,5.8
		C642.4,350.5,642.9,348,643.6,345.8z M643.1,344.2c-0.8,0.5-0.8-0.5-1.4-0.4c-0.3,1.1-1.6,3.4-0.9,4.7
		C641.3,347,643,345.9,643.1,344.2z M645,421.8c0.3,1,0.8,1.6,1.7,1.4C646.4,422.2,645.9,421.6,645,421.8z M641.8,323.4
		c-0.4,0.8-0.6,1.2-1.2,1.6C640.8,324.4,641.1,323.3,641.8,323.4z M640.7,325.1 M642.9,364.5c0.1,0.3,0.1,0.3-0.2,0.4
		C642.6,364.6,642.9,364.5,642.9,364.5z M643.6,362.3c0.7-0.8,1.2-1.6,2-2.1c-0.2,1.4-1,3.3-2.6,4.3
		C643.1,363.8,644.4,362.8,643.6,362.3z M646.4,438.7c0,1,0.8,1.6,1.5,1.7C647.9,439.1,647.7,438.5,646.4,438.7z M641.9,329.3
		c1.6-1.4,2-1.1,3.3-2.1c1-2.3-0.2-2.7,0.1-4.1c-1.3,1.3-2.1,2.9-3.3,4.5C644.2,327.1,642,328.2,641.9,329.3z M642.9,321.5
		c1,0.1,0,1,0,2.1C641.8,323.4,643,321.8,642.9,321.5z M643.4,343.1c0.6-0.1,0.6,0.9,1.4,0.4c0.3-2.1,1.7-3.1,1.7-5.2
		c-1.6,0-1.1,1.9-2.7,2C644.3,341.5,643.4,342,643.4,343.1z M648.4,449.7 M647.4,423.4c0.7,2.3,2.7,3.6,4.8,4.1
		C651,425.4,649.3,424.4,647.4,423.4z M649.6,432.9c-0.7-0.2-0.4-0.3-1.5,0.3C648.2,434.9,650.7,434.4,649.6,432.9z M649.2,453.6
		c0.5-1.5,2.4,0.2,2.6,1.2C650.9,454.7,650.4,454.1,649.2,453.6z M649.1,445.4 M654.3,444.3c-0.3-2-2.6-1.2-3.2-3.1
		c-0.6,0.1-1.2,0.3-1.8,0.4c0.5,0.6-0.1,0.7-0.2,1.4C651.2,443.6,652.1,444.4,654.3,444.3z M645.1,344.1 M646.1,359.7
		c0.2-1.4,1.5-1.7,1.8-2.8C648.8,357.7,647.2,359.1,646.1,359.7z M647.3,352.6c-0.1-0.3-0.1-0.3-0.2-0.6c0.3-0.1,0.3-0.1,0.2-0.4
		C647.9,351.4,648.4,353,647.3,352.6z M646.9,347.1 M647,346.1c0-1,0.2-1.4,0.8-1.6C648.1,345.5,647.9,345.9,647,346.1z
		 M646.2,318.4c-0.4-0.3-0.2-0.6-0.3-1C646.7,317.6,646.1,318.1,646.2,318.4z M648.5,351.3c-0.6,0.1-0.2-1.7,0.3-1.1
		C648.9,350.5,649,350.8,648.5,351.3z M654.3,431.2c2.8-0.6,3.1,3.8,5.6,2.2c-2-2.3-5.4-3.7-6.1-6.3c-0.9,0.2-0.9,1.2-2,1.1
		C652.3,429.9,654.4,429.1,654.3,431.2z M648.4,345.4c1.8-0.7-1.3,2.3,0.1,0.3L648.4,345.4z M648.8,350.2 M657.6,453.2
		c-0.6,1.2,0.5,1.6,0.6,3c-1.8,0.7-1.1-1.5-1.6-2.1c-1-0.1-0.3,1.1-1.7,1c-0.2-0.6-1.3-2.1-1.2-2.8
		C655,453.1,656.1,453.5,657.6,453.2z M649.4,355.2c-0.1-0.3,0.1-0.7,0-1C650.1,354.4,649.6,354.8,649.4,355.2z M649.4,336.6
		c-0.1-0.3,0.5-0.5,0-1c-0.3,0.1-0.6,0.1-0.9,0.2c0.1,0.3,0.2,0.6,0.3,1C649.1,336.7,649.4,336.6,649.4,336.6z M649.3,352.8
		c0.2-2.5,3-5.4,4.6-7.5C652.9,348.3,650.5,350.2,649.3,352.8z M647.7,314.6 M657.9,459.7c-1.2-0.8-4-1.2-3.6-3.4
		C655.4,457.8,657.6,457.4,657.9,459.7z M651.1,352.4c0.2,0.6-0.4,0.8-0.6,1.2c0,0-0.3,0.1-0.6,0.1c0.2-0.4,0.1-0.7,0.3-1.1
		C650.5,352.6,650.8,352.5,651.1,352.4z M648.2,312.8 M655,445.5c0.2,2.7,3.9,3.3,5.9,4.3C660,446.9,657.3,446.7,655,445.5z
		 M651.2,332.8c-1-0.1-1.1,1.9-0.2,1.4C650.9,333.9,651,333.2,651.2,332.8z M651.8,334.7c1,0.1,0.8-1.6,1.6-1.4
		c0.2,0.6,0.6,0.9,0.9,0.8c-0.2-0.6,1.5-1.7,0.3-2.1c-0.2,0.4-0.4,0.8-1.3,1.3C653.5,331.6,651.2,333.8,651.8,334.7z M654.2,335.3
		c-1.1-0.5-2.2,0.5-2.1,1.8C652.9,337.6,654.1,336,654.2,335.3z M652.2,315.4c-0.6,0.1-0.8,0.5-0.5,1.5
		C652.6,316.7,652.8,316.3,652.2,315.4z M653.4,327.2c0.1,0.3-0.1,0.7-0.3,1.1C654.4,328.3,654.8,327.2,653.4,327.2z M653.9,345.3
		c0.6-1.2,0.4-3.2,1.8-3.8C655.5,342.9,655.3,344.3,653.9,345.3z M661,462.1c-0.7-0.2-1.8-0.6-1.5-1.7
		C660.3,460.9,661.3,461,661,462.1z M654,306.1c0.4,0.3,0.1,0.3-0.2,0.4C653.7,306.1,654,306.1,654,306.1z M656.7,341.3
		c-0.3,0.1-0.6,0.1-0.9,0.2C655.5,340.5,657.3,340.1,656.7,341.3z M662.8,462.8c-0.6,0.1-1-0.1-1.2-0.8
		C662.5,461.8,662.9,462.1,662.8,462.8z M654.9,307.9c0.1,0.3-0.1,0.7-0.2,1.4C655.7,309.5,655.8,307.7,654.9,307.9z M656.1,331.8
		 M661.8,447.5c0,1,0.8,1.6,1.4,1.4C663.6,447.8,663.4,447.2,661.8,447.5z M656.9,339.8c-0.1-1.4,1.2-1.6,1.7-2.1
		C658.9,338.7,658.1,339.6,656.9,339.8z M657.5,328.7c0.3,1-0.3,1.1-0.4,1.8C658.3,330.3,658.8,328.8,657.5,328.7z M658.8,325.3
		c-0.1-0.3-0.1-0.3-0.2-0.6c0,0-0.3,0.1-0.6,0.1c0.1,0.3,0.1,0.3,0.2,0.6C658.5,325.4,658.8,325.3,658.8,325.3z M659.9,326.8
		c-0.2-0.6-0.3-1-0.9-0.8c0.2,0.6-0.7,0.8-0.8,1.9C659.2,327.7,659.3,327,659.9,326.8z M678.7,462.1c0.2-1.4-1.3-1.1-1.8-2.7
		c0.8-0.5,0.6,0.9,1.7,0.3c-1.8-2.7-6-1.5-6.9-5.4c0.9-0.2,1.5-0.3,1.3-1.3c-2.5-1.9-5.4-1.6-8.8-3c3.4,3.7,7.3,5.7,10.2,9.9
		C676.8,459.1,677,463.2,678.7,462.1z M659.4,307.7c-0.6,0.1-1,0.9-1.6,1.4C658.8,308.8,659.4,308.7,659.4,307.7z M690.4,280.8
		c-4.7,3.1-5.7,10.5-11.5,12.1c-0.5,2.9-3.4,4.2-4.1,7.1c0.1,1.4,1-0.9,1.3,0.1c-1.2,1.6-2.5,1.6-4.1,2.6c-0.6,2.5-2.1,6.3-4.6,6.5
		c0,1-0.5,2.8-2,2.1c-0.4,1.8-1.6,3.4-2.6,5.7c-0.3,0.1-0.1-0.3-0.4-0.3c-0.1,0.7-0.2,1.4-0.2,2.5c-0.2,0.4-0.6,1.2-2,1.1
		c0.2,0.6,0.6,0.9,0.4,1.3c-0.5,0.5-1,0.9-1.6,1.4c0,1,0,2.1,0.9,1.9c0.3-2.1,1.8-3.8,2.8-3.7c2.7-5.4,5.8-10.2,10-13.8
		c0.7-4.3,4.1-6,6-9.5c0.4-0.8,0.6-0.1,1.2-0.3c1.2-4.7,6.4-6.2,7.5-11.2c0.9-0.2,0.3,1,1.2,0.8c2.3-5.3,6.3-8.6,7.4-14.7
		c-1.9,0.1-2.4,5-4.8,4.8C690.7,278.3,690.2,279.1,690.4,280.8z M669.6,441.7c-0.5-1.6-4-4.6-4.5-1.8
		C667.6,439.4,667.7,441.8,669.6,441.7z M661.1,324.2 M661.5,333.4c0-1,1-0.9,1.2-1.6C662.7,332.8,662.4,333.2,661.5,333.4z
		 M661.3,304.2c-0.6,0.1-0.8,0.5-0.8,1.6C661.4,305.5,661.5,304.8,661.3,304.2z M668.6,471.2 M662.7,331.7 M670.2,457.8
		 M665.1,328.8c0,0-0.3,0.1-0.2,0.4c-0.3,0.1-0.2-0.6-0.6-0.9C664.9,328.2,665,328.5,665.1,328.8z M670.5,444.6
		c0.8-0.5,0.8-0.5,1.8-0.4c0.1-0.7,0.3-1.1,0.1-1.7c-1.1,0.6-1.8-1.7-2.8-0.4C670,443,671.2,442.7,670.5,444.6z M665.7,318.7
		c-1.2,0.3-0.4,0.8-0.8,1.6C665.8,320.1,666,319.7,665.7,318.7z M666,326.5c-0.2,0.4-0.2,0.4-0.1,0.7c0,0-0.3,0.1-0.6,0.1
		c-0.1-0.3-0.1-0.3,0.1-0.7C665.7,326.6,666,326.5,666,326.5z M677.5,465.8c0.6-2.5-1.3-2.1-1.3-4.2c-1.1,0.6-1.7-0.3-1.9-1
		c-1-0.1-1.5,0.3-1.9,1.4C675.6,461.8,675.1,465.6,677.5,465.8z M673.6,464.9c0.2-0.4,0.5-0.5,0.4-0.8c-0.3,0.1-0.4-0.3-1-0.1
		c0.1,0.3,0.2,0.6,0,1C673.3,465,673.6,464.9,673.6,464.9z M667.3,325.2 M673.8,444.6c-0.1-0.3-0.2-0.6-0.8-0.5
		c0.4,0.3,0.3,1,0.6,0.9C673.5,444.7,673.8,444.6,673.8,444.6z M667.3,296.7c0.3-0.1,0.6-0.1,0.6-0.1c0.2-0.4,0.5-0.5,0.5-0.5
		c-0.1-0.3-0.1-0.3-0.2-0.6c0,0-0.3,0.1-0.6,0.1c0.1,0.3,0.1,0.3-0.2,0.4C667.5,296.3,667.5,296.3,667.3,296.7z M669.6,292.4
		c-1.2,0.3-2.5,2.6-0.9,2.6C669.2,294.2,669.9,293.4,669.6,292.4z M669.5,317.2 M678.3,482.9 M672.6,312.4c-0.3,0.1-0.6,0.1-0.9,0.2
		c0,1-0.4,1.8-0.8,2.9C672.1,314.9,672.3,313.5,672.6,312.4z M672.6,309c-1.5,0.3-1.5,1.7-1.7,3.1C672.1,311.5,672,310.1,672.6,309z
		 M680.1,482.1c-0.3,0.1-0.9,0.2-0.7,0.8C679.9,482.9,680.2,482.5,680.1,482.1z M681.5,465c-0.4-1.3-1.3-2.1-2.7-2.5
		c0.1,0.3,0.2,0.6,0,1C679.8,463.6,680.5,465.9,681.5,465z M672.4,289.7c-0.6,0.1-1,0.9-1.3,1.3
		C671.7,291.6,672.4,290.8,672.4,289.7z M681,486.4c0.3-0.1,0.6-0.1,0.5-0.5C681.5,486,680.9,486.1,681,486.4z M675,306.1
		c-0.3,1.1-1.8,1.8-1.9,3.5C674.4,308.3,675.8,307.6,675,306.1z M673.3,301.3 M682.5,472.7c0.5-1.5-1-1.2-1.2,0.3
		C682.2,472.7,682.1,473.5,682.5,472.7z M685.7,479.2c0.5-1.5-0.5-1.6-1.2-2.8c-1.3,1.3-1.1-0.4-3.1,0.7
		C682.3,478.6,684.2,478.5,685.7,479.2z M673.8,286.7c-0.7-0.2-1.3,1.3-0.5,1.5C673.1,287.5,674.1,287.7,673.8,286.7z M674.2,301.1
		 M682.2,473.8c0.7,1.2,3.1,2.8,3.8,1.6C684.7,474.6,684.2,473,682.2,473.8z M681.9,448.7c0.1,0.3-0.2,0.4-0.7,0.8
		c0,0,0.2-0.4-0.1-0.3c0.2-0.4,0.2-0.4,0.1-0.7C681.5,448.5,681.6,448.8,681.9,448.7z M683,488.7 M683,484.3 M682.1,464.8
		 M689.4,472.9c0.9-2.6,1.7,0.3,2.7-0.9c-1.8-2.7-5.4-2.6-6.2-6.6c-1.8,0.7-2.1,0.8-3.6,0.1c-0.4,3.2,4,1.2,3.4,4.8
		C688,470.1,688,472.5,689.4,472.9z M673.9,278.1 M684.5,485c0.1,0.3,0.1,0.3,0.2,0.6c0,0-0.3,0.1-0.6,0.1c-0.1-0.3-0.1-0.3-0.2-0.6
		C684.2,485,684.5,485,684.5,485z M675.9,305.9c2.2-1.5,2.7-4,4.6-5.5c0.6-1.2-0.3-1,0.1-1.7c0.6-0.1,0.7,0.2,1.3,0.1
		c0.7-3.2,4.1-4,4-7.4c0.7-0.8,0.7,0.2,1.1-0.6c0.3-1.1,1.1-1.9-0.3-2c0.3,1-1.2,2.7-2,2.1C682.5,296.9,677.9,299.2,675.9,305.9z
		 M683.8,456.2 M677.2,275 M678.8,305.6c0.5-0.5,0.5-1.5,1.2-1.6C680,305,679.7,305.4,678.8,305.6z M687.8,458.5
		c0.2-1.4-1.2-1.8-1.9-1C686.1,458.5,687,458.3,687.8,458.5z M678,282 M688.5,480.7c0.1,0.3,0.1,0.3-0.1,0.7c0,0-0.3,0.1-0.6,0.1
		c0.2-0.4,0.2-0.4,0.1-0.7C688.2,480.8,688.5,480.7,688.5,480.7z M688.7,493.4 M690,482.4c-0.3,0.1-0.4-0.3-1-0.1
		c0.2-0.4,0.2-0.4,0.1-0.7C689.7,481.5,689.8,481.8,690,482.4z M688.9,457.9c0.1-0.7,0-1-0.6-0.9c0.1,0.3,0.1,0.3-0.1,0.7
		C688.8,457.6,688.6,458,688.9,457.9z M689.9,461.1c0-1,1.4-0.7,0.8-1.9c0.3-1.1-1.6-1-2.4-0.2C688.3,460.4,689.6,460.2,689.9,461.1
		z M681.3,289.9c-1-0.1-0.8,1.6,0.1,1.4C681.6,290.9,681.8,290.5,681.3,289.9z M683.6,287.7c-0.9,0.2-0.7,0.8-1.5,1.7
		C683.1,289.2,683.5,288.4,683.6,287.7z M692.6,477c3.3-1,3.1,2.8,5.5,3c0.5-0.5,0.2-1.4,0-2.1c-2.9,0.3-2.7-4.6-4.7-3.8
		c-0.3-1-0.3-2-1.2-1.8c0,1-1.3,1-1,2.3C691.5,475.6,693,474.9,692.6,477z M695.8,464.7c-0.8-1.6-3.9-6.4-4.8-1.7
		C694.3,461.6,694.5,465.6,695.8,464.7z M684.7,285.8c0.2,0.6,0.3,1,0.9,0.8C685.4,286,685.3,285.6,684.7,285.8z M685.9,265.6
		c-1.1-0.5,0.4-0.8-0.3-2C686.5,263.4,686.1,265.2,685.9,265.6z M697.5,486.7c-0.8,0.5-0.9-0.8-1.7-0.3c-0.4,0.8,0.5,0.6,0.2,1.7
		C697,488.2,697.6,488,697.5,486.7z M687.9,262.4c0.1,1.4-1.9,1.4-1.3-0.1C687.2,262.2,687.3,262.5,687.9,262.4z M697.2,466.1
		c-0.1-0.3-0.1-0.3,0.4-0.8c0,0-0.3,0.1-0.6,0.1c-0.5,0.5-0.5,0.5-0.4,0.8C696.9,466.2,697.2,466.1,697.2,466.1z M702.7,504.1
		 M691.8,256.7 M702.8,484.8 M692.9,268.2 M707.9,476.5c0.1,0.3-0.1,0.7,0,1C708.9,477.7,708.7,476,707.9,476.5z M700.3,250.1
		 M713.7,500.4c-0.1-0.3-0.2-0.6-0.8-0.5c0.4,0.3,0.3,1,0.6,0.9C713.4,500.5,713.7,500.4,713.7,500.4z M714.9,506.4 M725,494.2
		c-0.1-0.3,0.2-0.4,0.1-0.7c-0.3,0.1-0.4-0.3-1-0.1c0.1,0.3,0.2,0.6,0.3,1C724.7,494.3,725,494.2,725,494.2z M719.6,248.7
		c0.2-0.4,0.4-0.8-0.2-0.6c0.1,0.3-0.3,1.1,0,1C719.3,248.8,719.6,248.7,719.6,248.7z M719.7,240.5c0.2-0.4,0.2-0.4,0.1-0.7
		c0,0-0.3,0.1-0.6,0.1c0.1,0.3,0.1,0.3-0.1,0.7C719.4,240.5,719.7,240.5,719.7,240.5z M719.8,244.2 M720.5,246.5 M722.4,241.9
		c0.3-0.1,0.6-0.1,0.6-0.1c0.4-0.8,0.1-0.7-0.5-0.6l-0.1-0.3c-0.6,0.1-0.3-1-1.7-0.3c0.3,1,0.2,1.7,0.5,2.7c1.2-0.3,0.4-1.8,1.4-2
		C722.7,241.5,722.7,241.5,722.4,241.9z M721.9,240c0.3-0.1,0.6-0.1,0.8-0.5C722.7,239.5,722.1,239.6,721.9,240z M722.1,244.1
		c0.3-0.1,0.6-0.1,0.6-0.1c0.8-0.5,0.7-0.8,0-1c0.1,0.3,0.1,0.3-0.2,0.4C722.6,243.6,722.6,243.6,722.1,244.1z M723.6,240.3
		c0.1-0.7-0.2-0.6-0.8-0.5c-0.2,0.4-0.2,0.4-0.1,0.7C723,240.4,723.3,240.4,723.6,240.3z M723.7,245.1c-0.1-0.3-0.1-0.3-0.2-0.6
		c0,0-0.3,0.1-0.6,0.1c0.1,0.3,0.1,0.3,0.2,0.6C723.4,245.2,723.7,245.1,723.7,245.1z M723.5,242.1c0.2,0.6,1.4,0.4,0.9-0.2
		C724.3,241.5,723.7,241.7,723.5,242.1z M736.6,505.5c-0.1-0.3-0.1-0.3-0.2-0.6c0,0-0.3,0.1-0.6,0.1c0.1,0.3,0.1,0.3,0.2,0.6
		C736.3,505.6,736.6,505.5,736.6,505.5z M725.3,242.7c0,0-0.3,0.1-0.6,0.1c0.1,0.3,0.1,0.3-0.7,0.8
		C724.6,243.5,725.2,243.4,725.3,242.7z M724,240.6c0.3-0.1,0.6-0.1,0.5-0.5C724.5,240.1,723.9,240.2,724,240.6z M725.8,250.9
		c-0.2,0.4-0.5,0.5-0.8,0.5C725.2,251,725.8,250.9,725.8,250.9z M725.3,244.8 M725.8,254.3 M727.2,255.7c-0.7-0.2-0.3-2-0.1-2.4
		C728.2,253.4,727,255.1,727.2,255.7z"/>
</g>
</svg>
