<svg xmlns="http://www.w3.org/2000/svg" width="439.567" height="192.536" viewBox="0 0 439.567 192.536">
  <g>
    <path d="M439.567,0,409.834,63.764h-7.909l-14.87-31.882h9.789l9.056,19.5L429.857,0Z" fill="#d5281e"/>
    <g>
      <path d="M326.889,31.882h18.732v8.687h.373c4.592-6.826,10.669-10.547,19.352-10.547,13.648,0,22.084,9.923,22.084,23.944V95.4H368.078V57.688c0-6.7-3.474-11.415-10.174-11.415-6.948,0-11.662,5.707-11.662,13.77V95.4H326.889Zm-4.216,31.882c0,18.98-13.523,33.621-33.742,33.621s-33.743-14.641-33.743-33.621c0-19.1,13.519-33.617,33.743-33.617S322.673,44.66,322.673,63.764Zm-19.6,0c0-11.784-5.084-19.352-14.265-19.352s-14.018,7.568-14.018,19.352c0,11.662,4.837,19.356,14.018,19.356S303.07,75.426,303.07,63.764ZM200.107,95.4h54.335V80.141H223.675v-.373l29.4-33V31.882H200.107V47.141h29.77v.372l-29.77,33.248Zm-69.973,0h19.352V66.245c0-13.272,7.941-19.1,20.1-17.491h.373V32.008a11,11,0,0,0-3.969-.5c-7.568,0-12.655,3.471-17,10.913h-.373V31.882H130.134ZM105.946,76.542h18.606c-1.115,5.585-5.087,11.164-10.669,15.01A33.208,33.208,0,0,1,94.405,97.26c-20.962,0-33.617-14.638-33.617-33.743,0-18.98,13.272-33.5,32.377-33.5,8.934,0,16,2.731,21.338,7.69,7.568,6.825,11.164,17.742,11.042,31.387H79.768c.993,8.561,6.2,14.143,14.763,14.143C100.238,83.242,104.082,80.761,105.946,76.542Zm-26.053-20.1,25.927,0c-.745-7.446-5.46-12.53-12.282-12.53C85.475,43.917,81.381,48.879,79.893,56.444ZM22.084,95.4H42.429L64.51,31.882H45.032L32.627,72.7H32.38L19.972,31.882H0Zm153.208,0h19.477V31.883H175.292Zm0-68.851h19.477V9.3H175.292Z"/>
      <path d="M12.338,127.029H31.692v9.057h.372c3.971-6.576,10.05-10.918,19.232-10.918a19.023,19.023,0,0,1,17.865,11.166h.248c4.963-7.692,11.787-11.166,19.975-11.166,14.392,0,21.588,9.8,21.588,24.069v41.315H90.749V152.836c0-6.825-2.854-10.8-8.933-10.8-6.451,0-10.05,5.335-10.05,12.9v35.608H51.544V152.836c0-6.825-2.854-10.8-8.934-10.8-6.327,0-10.05,5.335-10.05,12.9v35.608H12.338Z"/>
      <path d="M115.349,158.667c0-18.983,13.275-33.5,32.629-33.5,9.058,0,16.253,2.978,21.712,7.94,7.569,6.948,11.291,17.99,11.166,30.894H135.2c1.241,8.56,5.956,13.895,14.269,13.895,5.335,0,8.808-2.357,10.546-6.327H179.74a25.846,25.846,0,0,1-10.67,15.012c-5.335,3.722-11.786,5.831-19.85,5.831C128.252,192.413,115.349,177.9,115.349,158.667Zm45.037-6.7c-.745-7.569-5.459-12.407-12.036-12.407-7.692,0-11.662,4.838-13.027,12.407Z"/>
      <path d="M284.151,172.811c0-14.02,11.166-18.239,24.317-19.975,11.911-1.49,16.129-2.73,16.129-7.073,0-4.094-2.6-6.823-8.684-6.823-6.452,0-9.678,2.853-10.3,8.188h-18.61c.5-11.787,9.552-21.836,28.784-21.836,9.552,0,16,1.737,20.594,5.211,5.46,3.97,8.065,10.173,8.065,18.114v32.01c0,5.086.5,7.94,2.233,9.057v.868h-19.6c-.992-1.364-1.613-3.846-2.11-7.071h-.248c-3.721,5.334-9.3,8.684-18.858,8.684C293.208,192.165,284.151,185.341,284.151,172.811Zm40.942-4.963v-7.569c-2.605,1.365-6.327,2.358-10.421,3.35-7.817,1.737-11.042,3.722-11.042,8.561,0,5.087,3.721,7.072,8.684,7.072C319.882,179.262,325.093,174.671,325.093,167.848Z"/>
      <path d="M212.941,192.536a26.827,26.827,0,0,1-11.161-2.294,25.009,25.009,0,0,1-8.8-6.635,30.72,30.72,0,0,1-5.767-10.6,45.63,45.63,0,0,1-2.046-14.2,43.33,43.33,0,0,1,2.046-13.641,32.167,32.167,0,0,1,5.7-10.6,26.193,26.193,0,0,1,8.743-6.883,25.408,25.408,0,0,1,11.285-2.48q6.7,0,10.789,2.542a24.259,24.259,0,0,1,6.944,6.511h.372V104.516H251.26v86.036H231.914V182h-.247a20.819,20.819,0,0,1-7.627,7.751A21.6,21.6,0,0,1,212.941,192.536Zm5.209-16a11.42,11.42,0,0,0,9.858-4.96q3.534-4.959,3.535-12.773a32.072,32.072,0,0,0-.807-7.379,17.027,17.027,0,0,0-2.48-5.828,12.315,12.315,0,0,0-4.092-3.783,11.57,11.57,0,0,0-5.766-1.364,10.692,10.692,0,0,0-9.425,5.023q-3.348,5.022-3.349,13.083,0,8.309,3.286,13.145A10.538,10.538,0,0,0,218.15,176.539Z"/>
      <g>
        <path d="M259.1,127.1h20.214v63.451H259.1Z"/>
        <rect x="259.095" y="104.516" width="20.214" height="17.244"/>
      </g>
    </g>
  </g>
</svg>
